<mxfile host="Electron" modified="2023-11-30T23:18:17.379Z" agent="Mozilla/5.0 (Windows NT 10.0; Win64; x64) AppleWebKit/537.36 (KHTML, like Gecko) draw.io/22.1.2 Chrome/114.0.5735.289 Electron/25.9.4 Safari/537.36" etag="krpnXjF3JgeYOMazQjOK" version="22.1.2" type="device">
  <diagram name="Page-1" id="2YBvvXClWsGukQMizWep">
    <mxGraphModel dx="1036" dy="606" grid="1" gridSize="10" guides="1" tooltips="1" connect="1" arrows="1" fold="1" page="1" pageScale="1" pageWidth="850" pageHeight="1100" math="0" shadow="0">
      <root>
        <mxCell id="0" />
        <mxCell id="1" parent="0" />
        <mxCell id="9H0NTYWTjEc0ZepBtMzy-1" value=":Fabrica" style="shape=umlLifeline;perimeter=lifelinePerimeter;whiteSpace=wrap;html=1;container=0;dropTarget=0;collapsible=0;recursiveResize=0;outlineConnect=0;portConstraint=eastwest;newEdgeStyle={&quot;edgeStyle&quot;:&quot;elbowEdgeStyle&quot;,&quot;elbow&quot;:&quot;vertical&quot;,&quot;curved&quot;:0,&quot;rounded&quot;:0};" parent="1" vertex="1">
          <mxGeometry x="80" y="50" width="100" height="300" as="geometry" />
        </mxCell>
        <mxCell id="9H0NTYWTjEc0ZepBtMzy-2" value="" style="html=1;points=[];perimeter=orthogonalPerimeter;outlineConnect=0;targetShapes=umlLifeline;portConstraint=eastwest;newEdgeStyle={&quot;edgeStyle&quot;:&quot;elbowEdgeStyle&quot;,&quot;elbow&quot;:&quot;vertical&quot;,&quot;curved&quot;:0,&quot;rounded&quot;:0};" parent="9H0NTYWTjEc0ZepBtMzy-1" vertex="1">
          <mxGeometry x="45" y="70" width="10" height="200" as="geometry" />
        </mxCell>
        <mxCell id="9H0NTYWTjEc0ZepBtMzy-3" value="1. fabricarCollar()" style="html=1;verticalAlign=bottom;startArrow=oval;endArrow=block;startSize=8;edgeStyle=elbowEdgeStyle;elbow=vertical;curved=0;rounded=0;" parent="9H0NTYWTjEc0ZepBtMzy-1" target="9H0NTYWTjEc0ZepBtMzy-2" edge="1">
          <mxGeometry relative="1" as="geometry">
            <mxPoint x="-60" y="70" as="sourcePoint" />
          </mxGeometry>
        </mxCell>
        <mxCell id="9H0NTYWTjEc0ZepBtMzy-4" value=":MarcaAntiPulg" style="shape=umlLifeline;perimeter=lifelinePerimeter;whiteSpace=wrap;html=1;container=0;dropTarget=0;collapsible=0;recursiveResize=0;outlineConnect=0;portConstraint=eastwest;newEdgeStyle={&quot;edgeStyle&quot;:&quot;elbowEdgeStyle&quot;,&quot;elbow&quot;:&quot;vertical&quot;,&quot;curved&quot;:0,&quot;rounded&quot;:0};" parent="1" vertex="1">
          <mxGeometry x="260" y="50" width="100" height="300" as="geometry" />
        </mxCell>
        <mxCell id="9H0NTYWTjEc0ZepBtMzy-5" value="" style="html=1;points=[];perimeter=orthogonalPerimeter;outlineConnect=0;targetShapes=umlLifeline;portConstraint=eastwest;newEdgeStyle={&quot;edgeStyle&quot;:&quot;elbowEdgeStyle&quot;,&quot;elbow&quot;:&quot;vertical&quot;,&quot;curved&quot;:0,&quot;rounded&quot;:0};" parent="9H0NTYWTjEc0ZepBtMzy-4" vertex="1">
          <mxGeometry x="45" y="80" width="10" height="170" as="geometry" />
        </mxCell>
        <mxCell id="9H0NTYWTjEc0ZepBtMzy-6" value="2. crearCollar()" style="html=1;verticalAlign=bottom;endArrow=block;edgeStyle=elbowEdgeStyle;elbow=vertical;curved=0;rounded=0;" parent="1" edge="1">
          <mxGeometry relative="1" as="geometry">
            <mxPoint x="135" y="136" as="sourcePoint" />
            <Array as="points">
              <mxPoint x="220" y="136" />
            </Array>
            <mxPoint as="offset" />
            <mxPoint x="305" y="136" as="targetPoint" />
          </mxGeometry>
        </mxCell>
        <mxCell id="9H0NTYWTjEc0ZepBtMzy-7" value="CollarAntiPulg" style="html=1;verticalAlign=bottom;endArrow=open;dashed=1;endSize=8;edgeStyle=elbowEdgeStyle;elbow=vertical;curved=0;rounded=0;" parent="1" source="9H0NTYWTjEc0ZepBtMzy-5" target="9H0NTYWTjEc0ZepBtMzy-2" edge="1">
          <mxGeometry relative="1" as="geometry">
            <mxPoint x="235" y="215" as="targetPoint" />
            <Array as="points">
              <mxPoint x="230" y="290" />
            </Array>
            <mxPoint as="offset" />
          </mxGeometry>
        </mxCell>
        <mxCell id="9H0NTYWTjEc0ZepBtMzy-8" value=":CollarAntiPulg" style="shape=umlLifeline;perimeter=lifelinePerimeter;whiteSpace=wrap;html=1;container=0;dropTarget=0;collapsible=0;recursiveResize=0;outlineConnect=0;portConstraint=eastwest;newEdgeStyle={&quot;edgeStyle&quot;:&quot;elbowEdgeStyle&quot;,&quot;elbow&quot;:&quot;vertical&quot;,&quot;curved&quot;:0,&quot;rounded&quot;:0};" parent="1" vertex="1">
          <mxGeometry x="410" y="50" width="100" height="300" as="geometry" />
        </mxCell>
        <mxCell id="9H0NTYWTjEc0ZepBtMzy-9" value="" style="html=1;points=[];perimeter=orthogonalPerimeter;outlineConnect=0;targetShapes=umlLifeline;portConstraint=eastwest;newEdgeStyle={&quot;edgeStyle&quot;:&quot;elbowEdgeStyle&quot;,&quot;elbow&quot;:&quot;vertical&quot;,&quot;curved&quot;:0,&quot;rounded&quot;:0};" parent="9H0NTYWTjEc0ZepBtMzy-8" vertex="1">
          <mxGeometry x="45" y="90" width="10" height="140" as="geometry" />
        </mxCell>
        <mxCell id="9H0NTYWTjEc0ZepBtMzy-10" value="3. new CollarAntiPulg ()" style="html=1;verticalAlign=bottom;endArrow=block;edgeStyle=elbowEdgeStyle;elbow=vertical;curved=0;rounded=0;" parent="1" edge="1">
          <mxGeometry relative="1" as="geometry">
            <mxPoint x="320" y="148" as="sourcePoint" />
            <Array as="points">
              <mxPoint x="405" y="148" />
            </Array>
            <mxPoint as="offset" />
            <mxPoint x="450" y="148" as="targetPoint" />
          </mxGeometry>
        </mxCell>
        <mxCell id="9H0NTYWTjEc0ZepBtMzy-11" value="CollarAntiPulg" style="html=1;verticalAlign=bottom;endArrow=open;dashed=1;endSize=8;edgeStyle=elbowEdgeStyle;elbow=vertical;curved=0;rounded=0;" parent="1" edge="1">
          <mxGeometry relative="1" as="geometry">
            <mxPoint x="316" y="270" as="targetPoint" />
            <Array as="points">
              <mxPoint x="401" y="270" />
            </Array>
            <mxPoint as="offset" />
            <mxPoint x="451" y="270" as="sourcePoint" />
          </mxGeometry>
        </mxCell>
        <mxCell id="Sd_HuGuEES-h_kePIg39-1" value="CollarAntiPulg" style="html=1;verticalAlign=bottom;endArrow=open;dashed=1;endSize=8;edgeStyle=elbowEdgeStyle;elbow=vertical;curved=0;rounded=0;" parent="1" edge="1">
          <mxGeometry relative="1" as="geometry">
            <mxPoint x="10" y="310" as="targetPoint" />
            <Array as="points">
              <mxPoint x="105" y="310" />
            </Array>
            <mxPoint as="offset" />
            <mxPoint x="120" y="310" as="sourcePoint" />
          </mxGeometry>
        </mxCell>
        <mxCell id="Kfiq15m31X0faJve7t4S-1" value="" style="shape=image;verticalLabelPosition=bottom;labelBackgroundColor=default;verticalAlign=top;aspect=fixed;imageAspect=0;image=data:image/png,iVBORw0KGgoAAAANSUhEUgAABBwAAAIjCAYAAACgZwhHAAAAAXNSR0IArs4c6QAAAARnQU1BAACxjwv8YQUAAAAJcEhZcwAAEnQAABJ0Ad5mH3gAAABjaVRYdFNuaXBNZXRhZGF0YQAAAAAAeyJjbGlwUG9pbnRzIjpbeyJ4IjowLCJ5IjowfSx7IngiOjEwNTMsInkiOjB9LHsieCI6MTA1MywieSI6NTQ3fSx7IngiOjAsInkiOjU0N31dfekfyO0AAP82SURBVHhe7J0HmBTXlbbPkHOOQ845RxEECAlQtKINQla0ZBzXXu9au45a22uv9O+us1fBliVZKNiKoABCEooIiZxzhiHnHOev91QV9AwzMEAP6pn+3ucpmK6ucOtW161zvnvuuRlmlh0sQgghhBBCCCGEEEmjRPS/EEIIIYQQQgghRNKQ4CCEEEIIIYQQQoikI8FBCCGEEEIIIYQQSUeCgxBCCCGEEEIIIZKOBAchhBBCCCGEEEIkHQkOQgghhBBCCCGESDoSHIQQQgghhBBCCJF0JDgIIYQQQgghhBAi6UhwEEIIIYQQQgghRNKR4CCEEEIIIYQQQoikI8FBCCGEEEIIIYQQSScjWLLDP4UQQgghzky5cuWsfv361qJFC9u7d6/VqFHDypcv798dPHjQli5d6t+zvkyZMnb8+HHbunWrLViwwHbu3Glly5a1unXrWocOHXy/EiVK2IkTJ3xfttm8ebOVLl3aGjRoYE2aNLEtW7ZYnTp1rEKFCrZjxw5btmyZn6tVq1ZWs2ZNK1mypGVnZ/v+ixcv9jLVqlXLWrdubaVKlbKMjAwvw/bt2/37bdu2+fmEEEIIUfhIcBBCCCFEgUFMuPrqq+3b3/62LV++3Jo2bWrVqlVz5/7o0aP2xBNPWO/eva1ly5ZWqVIlFxjmzp1rP/vZz+yTTz6x6tWr25AhQ+x73/ueCwYIAux7+PBh+/Wvf23jxo1zIeKmm26yO++80z766CPr2LGjVa1a1WbPnm1/+9vfXMy46667XHQ4duyYCwoIFX/84x9tzZo11q9fP7vvvvv8uIDwgVDx+9//3t58800XJ4QQQghR+GhIhRBCCCHOCaISKlas6ELAk08+6QLEmDFjbN++ffbNb37TNm7caN/61rfsi1/8or366qsuDFxyySXWuHFjO3LkiIsCDz74oF111VXWs2dP33f37t02atQo3wYQCxAkLr30UnvmmWfsxhtvtH/91391UYPtiWp44IEHfP8+ffrYNddcYy+99JKtXbvWpk2bZt///vetf//+/v1///d/e3lvu+02/18IIYQQFwcJDkIIIYQ4Z3D8Z8yY4c79ypUrfcjCpk2bfAjE22+/7evXrVtns2bN8ugFhkUQCYEosXDhQnv//fdt1apVPkxiw4YNvo7vmzVr5kIDwx7YlmNNmTLFz0E0RJs2bTzCgWiHOXPm+P4su3bt8vMwfIP1H3zwgUc98B37rl+//uRQEIkOQgghxMVBgoMQQgghPO8BQx1+8pOf2C9/+Uv7xS9+Ybfffru1a9cu2iInDGMgH0Ls6PP50KFDtn//fo9wIGIBUYL/GfbAsAaiFlgQH0aOHGk//OEP/Vzf+MY3rG3btj6UAjGAYRjA/ogRiBmcg+/J7UCEBQIC588N5yF/w7333ms///nP/fhETjD0g+8qV658cqiFEEIIIQoXCQ5CCCGE8ESNRA4QAUD+BZbMzMykRgMgGHDcG264wQWHXr16+XALkkOSo4EIhjMR53tgOAUCR+7kj+SM6Natm+d/uPnmm619+/Z+fEQKvhNCCCHExUWCgxBCCCE8KuHFF1+0O+64w3MvIAj813/9l02fPj3a4sIhYSQJHb/yla/40Icf//jHfp5/+7d/sw8//NDzO5wJIigYJoHwULt2bRcpEqlXr57nhbjiiit8uMfdd99tt956q+dwYJiFEEIIIS4uEhyEEEIIcVEhOiErK8tni0A4ICph4MCBPuThTOzZs8fmz59vBw4c8JkwGIaRFxyX43Oehg0b+rZdunSJvhVCCCHExUKCgxBCCCEuCuRiQDAg2uDyyy+3xx57zGegGD16tK1YscKFgtzDJBLZu3evJ4t89NFHfQgIkRFvvfWWvfHGG/bwww/7kBCSVO7cudPzT7zyyiv217/+1QUHElieLYJCCCGEEMmFwZLZ4Z9CCCGEEGeGXAjkYWC6Saa3nDlzpgsJzADBcAlyPkyePNkdfP4mWSNTYrLtggULPPljjx49fEpNIhoQGIhcICKB2Sk4HoIBeRc6derkAgUzWJCcEsjhQNQCx2QbPhPJQBkmTZpkJUuW9IgJZrMAvmP4BmIFOSQ++ugjHz5COYQQQghRuEhwEEIIIYQQQgghRNLRkAohhBBCCCGEEEIkHQkOQgghhBBCCCGESDoSHIQQQgghhBBCCJF0lMNBpCxNmjTx+dRJCkYSMCGEEEIIIUTRgcS9GzZs8NmESB4s0g8JDiJlGTx4sP32t7+1lStX2tGjR6O1QgghhBBCiKIAUxg3b97c/umf/snee++9aK1IJyQ4iJTl2muv9XnVe/Xq5dOlCSGEEEIIIYoOmZmZNm3aNBszZoyNHz8+WivSCeVwEEIIIYQQQgghRNKR4CCEEEIIIYQQQoikI8FBCCGEEEIIIYQQSUeCgxBCCCGEEEIIIZKOBAchhBBCCCGEEEIkHQkOQgghhBBCCCGESDoSHIQQQgghhBBCCJF0JDgIIYQQQgghhBAi6UhwEEIIIYQQQghRYEqVKmWtW7e2unXrWtmyZaO1506ZMmWsdu3afiyOKYofEhyEEEIIIYQQQhSY8uXL29VXX239+vWzevXqRWvPnVq1alnv3r3tmmuu8WOK4ocEByGEEEIIIYQQBSY7O9sOHDjgQkHfvn2jtedOz549bcSIEX48UTyR4CCEEEIIIYQQosAcPHjQXnvtNdu+fbt16dLF+vfvH31TcFq1amXdu3e30qVL24svvugChih+SHAQQgghhBBCCFFgjh8/bhs2bLAPPvjAqlatatdff73nYihRouDu5cCBA6169eo2Z84cW7t2rR9TFD8kOAghhBBCCCGEOGemTp1qa9assWbNmtmAAQMKlECS5JBs361bN9uxY4e9//770TeiOCLBQQghhBBCCCHEObNt2zabNGmSzZ492774xS96AkmGSORHRkaGVaxY0SMimKFi3rx5tnDhwuhbURyR4CCEEEIIIYQQ4rxANCBKgVkmbrjhBmvQoEH0zekQ3VCnTh27/fbbbdGiRTZjxozoG1FckeAghBBCCCGEEOK8OHbsmC1btsxeeuklu/XWW33WimrVqkXf5qRhw4Ye3TB//nwXGzZt2hR9I4orEhyEEEIIIYQQQpw35GKYMmWKRy2Qm6FDhw7RN6eoUqWKderUyYYMGWKvv/66LV261A4fPhx9K4orEhyEEEIIIYQQQpw3R44csfXr19uTTz7pwkLPnj1PG1rRvHlzn0ITkQFxgvwPovgjwUEIIYQQQgghxAVx6NAhe/vtt2358uXWunVru/zyyz2BJIkiy5UrZ927d7emTZva2LFjbevWrZoGM02Q4CCEEEIIIYQQIim8+uqr/v+oUaOsSZMmVrJkSevRo4d17NjRdu3aZePGjXNxQqQHEhyEEEIIIYQQQiQFhlYQ6bBy5Uq76667fBrMYcOGufDwzjvv+PCL7OzsaGtR3JHgIIQQQgghhBAiKRC98Omnn9onn3ziEQ579+714RMIEJoGM/2Q4CCEEEIIIYQQImlkZWXZ9OnTbe7cuR7xMHXqVBcbNm/eHG0h0oWMYCky8SylSpXybKf8L4o/l112mf3iF7/wuXq3bNkSrRVFAeZj3rBhg/8vzKpXr241atSIPgkhUhWmddu5c2f0SQhRWNSrV8/D7EXxhnvcpk0bu+++++zll1920WH37t3Rt6IosHHjRjtw4ED06fwoUoIDjdPkyZP9f1H8Iatt+fLlbd++fXbixIlorSgKbNq0yedY5n9h9m//9m92//33R5+EEKnKgw8+aP/1X/8VfRJCFBbPPvusjRgxIvokiivMTkHehrJly3reBjqilLuhaEHizwkTJkSfzo8iJThkZmbatGnTbNGiV2zdurnRWiFEKtGoUWdr1+5669Wrl4fTCbMHHnjA7r77BnvnnT9Fa4QQqcbQoV+3xx9/2Z9XIUThwiwFjRpl2OzZr0VrhBCpRIUKVe2aa35gI0d+2caPHx+tPT+KpOAwefJDtmTJB9FaIUQq0abNpTZkyPclOCSAAzNy5BAbO/Y70RohRKoxevRv7LnnJktwEOIigOBQqVJWYNM/Eq0RQqQSlSvXtjFjng7ejfdcsOCgpJFCCCGEEEIIIYRIOhIchBBCCCGEEEIIkXQkOAghhBBCCCGEECLpSHAQQgghhBBCCCFE0pHgIIQQQgghhBBCiKQjwUEIIYQQQgghhBBJR4KDEEIIIYQQQgghko4EByGEEEIIIYQQQiQdCQ6i0GjWrKddccW37PLLv2XlylWK1hacypVrWZcuV9ktt/zKLrlklNWu3Sz6RgghCk7dui3tuut+ZLff/kcbPfq31r//l61WrSbRt+lBmTLlLTOznV177Q9s4MC7/G/q5eqr77ehQ7+edvUhhBCi6NCy5SWBP/ENGzz4PqtTp7m1bTvIrrzyXwL/YLTeX0UACQ7iNDBMu3f/gl122RgbNuyfcix9+nzJ6tVrHW15ZipWrBFs28bq129tJUqUjtYWnFKlylr16pnWuHHXoDFpamXLnrtoIYS4uGRmtrfevW/x9uKKK75tl156tzVs2DF4fitGW5yZOnVaWLt2g32fkiXPvd3ITc2aja1VqwHWpEl3O3Bgl61fP8+2bFlhhw7tj7b4/ClTpkLQTra1gQPvdJGW5ZJLbs1RB/w9YMAdOdrjQYO+Ym3aXOrfnw3a06pV6wXtaRerUaOhVapUK6ibJt6+sp7vhRBCpA6lSpWx5s17B23/nda//+3B372ib0J4r/Ju4D07dOg3rH37y7w9TyXKl68alLuPCwXYBLFtwGfW831BwA/Avqhata4dPXrY3+0NGrS3atXqBz5GqWgrkapIcBCnUapUOevQ4XLr3PmqwEjv5g9zvFSqVNNKly4fbVm4HDlyMHAMVtqSJe9bVtYiO3hwd/SNECJVQbBs0KCjdelytUcoVa/e0B3qEiVKRlvkT/nyVbzNadNmkO9XkH3OBk41Btnx40ds5sxx9umnz9myZVNs375t0RafPyVKlPAoMK69W7frAqNxqAsvGJMIA0SLdew43Fq3HpijPa5SpY7XWUFAuKhYsXrwV0Zw7dt9HVFkJUuWtJ07NwTt7QFfJ4QQIjVAcGjRoo/16HG9L02b9oi+Calcuba1bNnPe/mJBOYdUqFCtejbzx/EDyITunW7xv8nMiF+fyEc8N4r6Hu+QoWqlp19wnbv3uz+ANd57NhRf5/RmSBSG+7yA+GfqU/lypXtvvvus9WrP7bt29dEa0WyQVBo335I8EDvsWnTXrDJkx+xBQve9mXVqmm2Z89m7w2joatYsZqrkywYxxkZJQLD/mhwlGw3mOvXb+PrsrIWBsct59vRwGD8Hjt22LcL11fxBWeFY5YrVzloWI7b1q2rXWygR3L//p124sRxPx6GMsYzDU54zMrB+gxvuPgbYYTGKfyuSnC+Un489heFC6FtzZr1t8cee8z27t0brU1vBg8eHDiMzWzevAnRmuLL3r1bXWCoVKlG4MhutDff/H+2Y8e64Dkv6884BlT4fFbzqCWe2WPHjgTfVfbe9lat+rshsnnzMjt0aJ/3ZPBs027w3IfPfHgc2o8TJ074vqyjDeL5p22gLeH5b9Sos/eK0N4sWjTZ2zWOx7bx8Tg27RAL+8VtE9dBpBZL7rYkOzvbz1OpUtgOcV72P3r0kO97LnD9GEycjzKtWTPbpk9/MWj/VgXPUg/r1+82q1mzkS1d+pG98cb/O9keL136oW3atNTbROqAOq9QoXpU1rBNpM3DSKPOifIgagzBZf/+XVa7dtPguE29XrZtWxNse9Tr4kz1UrZsBa9rjh/fZ94Z1EfY9hddOnceYfPnr7b33nsvWiOEKCxGjRoVtCF7A5t+RrRG5Ia2lQ5A3jOIxbxfV66c5u0t76JGjTq5EI3dhfO9YsWntnHjYjt8eL+32afa8rC95r3Je/fEiWNuh9OWs8S2N+9FBHAEetp9zhu//8L3blnfN/c7Ob93Rbt2Q6xnzxusWrVMmzPnNZsy5W82c+artnDhO7ZkyQf+juO9E76/QruAc1GO4BK9HJyL4zKEgjJnZS2w3bs3BX7K5f5uW7Nmpm3YsMDfg4nvZI5RsmQZPzbfUX/hNdXw47ANfkKZMuWCMpwIjiX/IDfUYc+eN9pLL40L7I2l0drzIyNYzs0y+hzJzMwMHOBpgQP8kP9QReGAwXrTTT8L/sqwWbPGBQbYW+EXCWDEDx/+HQ9xikOZ6CWbO/dNN5Rp7Dp2HGZdu17jjRQNFg0S2+7fv8OWL//E3n33T4Hxv9d772g4MH4RFRhbHDYis4LtptqAAbf7C4lybNiw0BuJa6/9oTVs2CF4GCr5tjgRnHf79nUectau3WXe6AGREosWveuNHA2xKFwI8R4y5PvWq1ev4MWQFa1Nbx544AEbOXKIjR37nWhN8aV69QbWo8cN1rRpdzd+pkwZ6yH8nTtf6TkDNm9e7j34tAe0BQsXvmsffvjX4KV2k7cXGE4YGHGE08SJv/Z2gWe6b98v+QsQJ3rlys9s9uzx7pyzL4YXQ7cQNhA6ESlpyypXruntBPvs3LnePvroqaCdWBts3+Xk8Tg+59q7d0vQnmSfbJsIT+3V6xZr0KCDX1tiW7Jr1wa77LKve68N7dvhw/ts/foFNn78f55XbwvtJGGm5KqhHaW9Y/gaYbIYb7Nnv+7rQjEkJ6FRcJPXMfWf2Cayz65dG110GTTonqA+attbb/3WjVUiUOrUaWmTJv3eDTba1sR6zqteGJ7SokVfNw6PHj1ojRt3c3Fo2rR/+L0syowe/Rt77rnJ/rwKIQqXcePGBe1IlndqibzhHXbjjf8RvNfKB0sZt3F5XyIQI8x363attW49wN9NRLx9/PHfbPHi910UaNaslw+1YD3fI/zzXuRdw3uZd3Bu2/vQob3+zvj00+cDG7uzi93Y2ggNCONr186y99//i9v4BXlX8I7B6f/kk2fcjieSjvdTIryzuna91gVf3qXAu/qTT571dzwiCWXBF0DQJ+p59+4tNmzYt70eEDLwFRAWEt/JiBKckyhH6mTTpiVuixApsm7d3MAGYDhh3WD9sqA+ng7e33P9GsUpsBfGjHk6eDfeE9g246O154ciHMRpxBEOCA48oDRQucGo53siIObNe9MbQYxV8jXs3JkVGNy7/cFmvHDVqvUDx2OqG6Q85DRcjFfGQCcUKux56+YiBob6jBkvu0FPzx3HJJyMEKrNm1e4iNC37yh3ABYvfs/PP2vWeHcCOPbx44e9YWWcNuej4aTBDo3w7KCxnB1egCg0FOFwOsUtwgFDZciQr/pzzHPepElXFwv2798evPSrunNLL8L69fO9DcGJZhwqBk2pUqUCI+I1fxYxJKpUqRs4x7v9ZY+RwDqeZYSGWFjGsGnevKcLjhhbwIsQo4roKYQBjAd6Kjjn++//2Xv/d+xYH7RV9F4c93Zq6tTn3KDCIGnZsq874u+++3++DqOLdoL2jrIhinTqdKW3hzNnvmKfffZ3b09WrZruhl/Pnjf7dRN1wIJAgUBw6NAev1YiNeJhESRppHeJ82Co5QVtW6dOI1xs4RoY8kH4LFEJ9OAQXYYBlRt6mBD5qH+MNERihJ7q1ev7s7hnzxa/LwzNoIeI869c+anXNW0uxh9GHT09iMStW/c/Y71QJkRdDDVE5g8/fNwjJGifESCKMopwEOLioQiHM0NEHcMBiRLAXsaGxWFfu3ZO8L7Z5e9FbOc4vxn2M20xNjDvON5ROOiffvqsRwpXq1bPhXaEB96xvHtp73lvxbY37+YdO9YG7X4LT65MlMKCBe/Yxx8/EbSNk7yzELGad+7Z3hXh0MhM27hxic2d+4a/e3KLDUDOODoeOe877/yfbdu2OrArGrn9z7Xw3mvUqGNQF53cZ9i0abmXC9+Aa+Ha8EnIe4QYvnr1TI+g4N3HcYl6wCfAL6GTFIGGiAvqEf9h4cJJ7lOeT3RicSfszEhOhINyOIh8YYwV6iSRDMOGfccTmWGEMyaLhx6VkV5GwrswwnlgEQ9I5FK2bBhdQJgSDeOCBZPcKKcHDPGBMGoUS5wTCBvSgx7VwDFprOiFTKRcuYruuBB2TQOEUb1s2cduiLPfrl1ZLnasWzfH1UzKxUJjBBjfGOdhaJUQ4lzh5cNLn/Gideu2CgyW2u608kwSos8QCLbByccAwRhAFKDnAQMBZ5yIhCVLPvTeEF7wCAxEPu3atcmNKnrmMThoU+h1x/Ag+SxJHufMed2fcdoPHPOjRwm3JIyyRtCGHHdHPRYFECd2797oxySSYt26eW5k0QZgYGH40B7R3hB1wdANDCnKSP4IeocQAdasmeHtF046hjGGGT0mON5cHwYY/xOiSZkQN+glof3EWETwxNDDMGRYRF7EQ9QQcvbu3ebnwIgk+oBrxXBiXV7Q5rZocYn/vXz5FL8mBAquCZEBo7Jy5Tq+HaIHdUH5+BsxheNSR9QJQm5+9XLgwA5vz+kd435xjzAiaYdpYzmuEEKI5IAdzfuP9ykRBLTTvC8ZHsE7iISJtMn08rMN7wnE+/B9090dbd4Jy5Z94m10+F6pGPy/++Q7gAV7HjEBkR7HnPcyznzVqnX8/UZHCbY07z86AsNkjfm/K+J3KNsBtjnv9dxiA+9M3pHYEJyTcvKe5X2LmE2nRRjxGA6VIN8QogUdi7zPeA9xXOokM7ODkYCSISf4BQsXvh3YAPP9O97JrOd/3sccD3+Fa6N+EETyKp9ILvK8RL7EY5wQGGjAMFzDMVw4CCW9MSCbPL1i9PTFDUA8dAIY00tjtnHj0qAR2ucPPeonDR8KI40d4JSwjt5KGqu8oJGtUqVe8H8VN3ZxJhApEqFBoYw4RZSLBYUV9ROHh8aG8WlCiHOHZ4neAXpcMCJoIzAEeFkTZYQQSJvBs4YDGo7PPO7PLG0GhhHGBM8uzjwLRgrGFG0B2zFkgN59nHeeeYZH0FvPM4wT36nT8KCtqeXH3rRpsT/vCJd79mx1gwiDKYbvcp+D49GbT1kwlDC8MDT4H0OM9grnm2slXw2GFr04XAcQnkpkB+0ihguiAMNHGLpBuCnhmZSDqCzaRHp86JGh/STCA5EmN9QXYirGIG0kZeV6EUfiNjSvyAiup1q1Br4v+W42bFjk+3O9CBeAIUqZiUQpVaq0G3LcN8qGcUg5C1IvGLOUk7o+fPiACzjkgshriIcQQogLg6EI5CPgHUC7zXuBdUSXIXjzHqS9R/BGtOady3uWXnyECt5fdPCFYjA5do65aMH7l3cX7T1kZS32aELeMxyHqOQGDdoF223xdwH2NiS+k8/0rqBMvHOwBSg79kFe4EsQgcC7aNu2VcE7Zba/Z3nfcq3Au4lrokx8Rxl5v/FexW+gA4L3GdHVlGnt2rmBj7E82H9XcO7jfs2843gfUn46P4gSQWwg+jK/sonkI89L5AsRBoy7+vvf/82XF1/8kYdc8eCiSjIlWzi9DVO4jXZ1kQaEh/pM0AAgFOAI0JAUFBoVjGcEAxqM2AEIyfDvyYDbvfv1Xi7m62Xp0IGojPrRdkKI84VeC/IwEL1ApAICIOBg08PBs42jjqPPi5wXPYYNzjhRTPQqxNthuGA8HTmy349H7z8GAwZLHMUQip3MjlPLe3MYxoHgwNCBefMmeq8NPSCcDwEEQycRzoH4yfERMumx4XgYRwy3QCChHcGJpv1A6MCIYhsMr337drijnQiJtfiecxK10K/faI+GwOhjzCmRG3FPU+nSFbytxIDiehAGatVqFh3pFAgNhKPyP0MzEsWFWCzJS3BAkOCYtKWcP55pgjqnLeY62Z+yIvAGt8CFCeqT3ifuCcYk0RVnr5e1buQhNBO1xvmEEEIUDryDKlSgvQ2j/niv8B5BPGZIIFEBvPNiWxhnnHde2JlXzttohAq2w3EP3y+7g3fwimC7Si4KIAhs3rzUnXfAIQ/b+Zq+f+J7J/GdfKZ3Be9A3vHx+4fz5wXHI1IDduzY4MfDf8DORwxnf8rF+6127ebuN1Amjsd7n07MrVtX+jYI+iTNpJ4QxOkIqVGjQXCsssG6Vb4tdcDC+xQ7JK93qig8JDiIc4aGrk+fkW7Evvnmf9vjj99rzz33L55PgQcdI/ZMYAjTONHw0dgVFBqZw4f3euMSN24xYcPVOCjXl7z3cf78ifbww6N9ISERYWBCiAsj7kXHcMEwoKckNoBiypat7P/zgo+fS4wKsk2T6yWG3g/aApx6xAJ6ZXCE6SWhdyIRnl+e4/iZnjjxNx7JgNFEhAEGCSJF3KsfwzkwhhA6EFBjw4yyHTgQ9qAAYgdtCmVJ3C4/KCNGzPjxv/L2769/vc/eeut30b7HfEwqY0mpH4Z39elziwsrhJ8yvjQ3tGWcn31p404ZaMymUcENQK6loGB0kj+CYShEgRA9hqFFNALtLsPTuId8TjRYz1Qv8T0qX75a8HmnG4dCCCEKB95vCPxEJeBoE7HAexeRmfdemKRxW9AmVw7a7j2RE73P98XRR6CI23Yi6xAiDhzY4+9DhiEiOPCuCTsBzm2GoYK8Q3n/856Jc0wUBN6FTKvNOw9BgOgM7Af8Da4xHlbCuRJ9CM7HOxYxnHWI8eyHeIFgwzrqAHGdToVYmBAXDwkO4pyhx5CGhAaHhgqDFTWUMGQM/8QIBx52Hvq2bS892RtHQjV6CcMHPmwcCwJGM71sNLCMH2MMeRwSxinjXj0aUMKrUUNplMKx5nV8OyHE+YMDzbhIjAqGEeCE8lxi/GAk4JBWqFAlWEeUwvqgnWC6xnCKK3ofiDSIYfgEBgWGFD0ZPL+IEmxDu4ABwTEQH9gfMYI2h4VeFhzq2BFnW4yROGkh7RPfIXbwN+XlHLEWGg4NCKfR7N//dhcH6BHi3BwLA4WyE7pKb04icY9NmTIVo+/C6ck4H0lyERtImokgQQQGbR/DMogOI4cEokJu6MkKs2pv9jaOOqVuOAZlbNWqn+exyA2CQdiGZnvbyrb8TzIveoDIZ0OvF2JDaJSGeTWoE9pK2kiuNRaJz1QvQF2HEWbcByWEFUKIwgDblmhB2mRs3lCEznCHmcSPDD8mvxCONO8hotsQEmInmvYdu5y2ntmLGF7MZ94tYYRhJX/v8A5gXfwO4N1NRB75kYgYzk8sONO7AkF+48ZFLkpj99NJWb9+uxydhMA7mWvDT+C9hf3A30QxYh+Qw4m8TLx3iFTg2igz18u52Dce0sd7iZxEdHhgGzBVKHkoyHERijJVPQqC7RBiQqHizJ2jIrlolgpxGmebpYJGBkOch5rGhHniEQBQDzG86Y1EiMDJp8HiocYYx2CmASACAWWSbOoooWyHWEEIFAljEDBosBAv6DnFsSEsjMQuZLGl0eF8fEeYNclxMPBRNzHaQ2WzsY/pohGkXDRWNKQklwwbVyWHKSxwdDRLRU6KyywVOMs49cx6gOOalbXEn0165XnuyO1AAigMBJ4xjCDaCp5XnjscbnppGF/KjAmIkyR3pMcBY4DnmbaCY2Ho0M7zP+tobzBKMF4YyoDwiZHEPrRJjEGNQzn5DqGTbSkHxhntGH8zLITz8ztlG9oo2h7Kh0CAoIJxR48N23Feci/QzmRklHQHPaiJYH1Lb4P4n3GotGtcD5EWTJm5bt18zzPB9iSxJGw1t5NOPbEvBhZ5cLiOcAhFOJQD0QHDkHIw5IJy0IbGZeF43BOSQsYCDO0xZSLUlSSbtLF164YJIblGcm3wN3WJGEHUBedh3zPVC206+Ts4F9MLE6lBO12c0CwVQlw8NEtF/lSsWDNo79v6e4X3B20u71LWYc9iS5BHB1uXnGXY1LTt2McMYWQ9wxAQLeh0Q6hA9N+yhRxDM/09Hb8D2A/hAVuddyTvT95N2OyI+40bdw627+SCBe991p3pXYFIgBDA+z/u9GMbhhfy/sLe5xoQJNiGctau3STYrmWwDUmoO7vYQPJH3oXY95SXOuC9iK3AsTgX73beQ7yXMjPbBP/Xctuf6w07P7M9GSa2AnVXqVLtYJ8FwbI4Eh3EmUBQStYsFRIcxGmgiOK4o3IyvzoOQiIY9DyoKIxhaG4lb2gYS4XjgOBAQ4KSGDZwy70BQxHFSMYQJtEMjQmNYxgVUTJoWHZ6mDTHwogOe+FKnxQxuOfsS68q56TB4mEIj1siaIyWuiNEDyU9enzHevalpxDDm78xrs827EOcPxIcTqc4TYuJYUJ0EgvGCoIDRgBRSxg5OMGs5zlmPQ40M0jg8POMhsJgzaDtqOzOOaIm4z4ROHmmaQuASAbajrAH/njwXTk3Xnj2T5w4GrUHW7zXJGxTpnlPBtBuYOQwewblwTDDUEJICJ99ohLICVMmOP+yk20Df4fJuXYE5cjwNozz0s7xP20ibRyiKN/Ti8T6sKfogF/j6tXT/Di0mxwnbEO35Omc00Zh9OHsc52Un3rjPJSXesSQpB2jbqizxLLQFnIOzk0Zwvor4deAAIMhz/3CeAREA4w2PmMQUk6iINjmbPXC9WDUEUZLO42YUtyQ4CDExUOCQ/7QnmNj897AXmYWJ95H2N+8g5j1jfcQgjTEbTv2LfYzwgG2Mx2I2OO017xP6bjbvn21CwSn3gFzgyOcsok5B+8j3iehnU++JWaE2Ottf/guy/9dwbsJeD/RQcF7EjsfW533N/Bu433Je4XvORbbcE6OFU61vDS4jnBoCdfEu4p3PWDn85lhmkQ3UibefSyUf+vWFS5a8O5l+kuulXPwfmU9ZeQY4swkU3AI5Z8iQmZmpk2bNs0mT37IjSkhROrRps2lNmTI961Xr16WlZUVrU1vHnjgARs5coiNHfudaI0oTBAcu3W71sNIMcIYzoBBJsSZGD36N/bcc5P9eRVCFC7jxo2zSpWyPD+PECL1IFJkzJing3fjPTZ+/Pho7fmhHA5CCCGKFfTGEOEA9OwQfSWEEEIIIS4+EhyEEEIUCxiewDSVX/ziQ54bgfwQjNUkcZQQQgghhLj4SHAQQghRLAjzPqzwJFGffvqcLVgwyUg0K4QQQgghPh8kOAghhCgWkERr+fKp9sknY23q1Oc8GVY4q4QQQgghhPg8KJJJI6dP/6utWjUtWiuESAXIjnz48D5r3ryPkkbmgiR0t99+lY0b95/RGiFEKsCMS0TG0H7deuv/KmmkEBcJkkbWrr3fo9GEEKkDM3phz5cpUzFpSSOLpOBQu3YNTWciRIqxYMHbNmvWOJ9CSYJDTnBgfvzjH3kjLoRIHZiCjXZr1qzxdsstv5TgIMRFAsHhyiuHu+gnhEgd1qyZ5e9FphRNa8Fh4cKXff5VIUTqsG/fDg9pb9KkmwSHXODA3H33Dfb223+I1gghUgFEQNqtvXu32ahR/yPBQYiLBIJDo0bmYp8QInU4dGivvxczMkqmt+AwefJDtmTJB9FaIUQq0abNpRIccoEDM3LkEBs79jvRGiFEqjF69G8kOAhxkUBwqFQpK7DpH4nWCCFSicqVaydNcFDSSCGEEEIIIYQQQiQdCQ5CCCGEEEIIIYRIOhIchBBCCCGEEEIIkXQkOAghhBBCCCGEECLpKGmkECKpKGnk6ZCE7lvfuscWLZocrRFCpAL79++09evn+fKlLz2kpJFCXCSUNFKI1CaZSSMlOIiTlC1b0apWrWc1ajSyPXs22/bt6+zw4X3Rt/lTvnzVYJ+Gwf6VbNeuDcGy0U6cOB59e3GhLDVrNgr+r2K7d2+2bdvWBGU5Fn0rLgYSHE4HB+a73/2arVkzM1ojhEgFmA5z5crPgmWafelLD0pwEOIikc6CQ4kSJa1atfpuOx89eth27twQ2N1bom/zp1SpMkGd1bI6dZrbvn3b3d4+cGBX9O3FpUyZ8sE1ZPo1MIXizp1Zn1tZROEgwSHNBIeSJUu5M48gQCMVk519wucQP3Bgtx0/jlN9YbeyZs3G1rHjsMBRvNl7Yj/77O+2deuq6Nv8adCgg3Xvfr03gLNnv2bz5k2wI0cORt/mR4ZfV4UKVa106XKWkXFqdA9ixeHD+13sOHHiRNC41vDr45jHjh2OtsobytKz503B/+1twYK3berUZ/1Y4uIhweF0cGA0LaYQqY2mxRTi4lFUBIcSJbDBK7itir19Nju0IOCsd+o0wnr0uMGd9Vmzxtnixe9H3+ZPxYo1rEWLvjZo0D0ulM6Z84ZHZ50N7O0yZSpa+fKVc9jboR9x2Pbv3+7XWaZMheD/Enbw4N6z+hXVqzewLl2uDK7hJlu69IPgGl4rUFlE0UHTYqYZVarUtb59R9odd/wpuPFjTy533fWoXXHFt10oSBQiigKUl3JTfq4j8bq4Tq6X66ZxHD78u/65bt2W0d5CCCGEEEIULlWq1LFu3a6za675N6tXr3W0tmhRtWp969Hj+sDefsy++tW/JfgRj9lVV33fypWrYrVrN7dLLrnVBg26r0j6FSK1keBQBGjX7jJr2LCzrV8/35555rsnlxde+KF99NGTtmtXlmVnX/gQBsK55sx53Z5//n6PDCBUq7BA3SWSAoV07twJOa7rpZd+6pESRCbUqNE4aOxru+qaqMrmx7Ztq+3jj5+yV1/9uV8LESBCCCGEEEKcK+EwhprulBMpkAyIKli69CN77bVf2bvv/p+tXTsn+ib5YEO3aTPQIyM2bVoS2Ng/SfAjfmDvvfeoRxQTPVG5cq3gOiu6vZ1BDPwZYDja7Nlv2N//fr9NmfKMbd26MvpGiNNJyyEVKHf167fxBuTw4QOet4Bq2Lhxqa1a9ZmHOTG2qlSpsr798eNHLCtrUdAgzLYTJ7Jd4WzWrIc3QmEVss1R279/hzcg5A4It+lpFSpU8+8RBMgnQLjRli3hQ9m8eW8/T+nSZYMHvLIPm+Ah58GnLEuWhOFVI0Z8z4cKrF493d5550++Li8Y0tCwYSerVatJcJxQmWQ81apV03OEOeW3Hdd45Mh+a9y4m+3YsdbWrZub5/WSEwGRgzGvjDurX7/taUMqOH7duq3s2LFDJ7dLzOtQoUJ1u+mmn3mI2syZr/p+ifB9w4YdfIgH9cRYNRqzjRsXezkRIAj1ob5Kliwd3MM6wTY7bM2aWUGjWd2FjK1bVwf3bJZHRtSq1czzOxAqxhANrhsxYvv2tUH5PvV9CS2rV6+NNWnSze8LUC+8GI4ePejj0zjesWNH/DuRNxpScToaUiFE6qMhFUJcPJIxpAJ7jg45ImLpkcdZxpbGTt2xY70PgcDhJtcAdj7226pVMwLHe2nw3U7v/DqTzV+pUm1r126w2zXkTiAPU2iLLrVlyz5yW7N5815+fIYkxOddvnyK+wJVq9Z1GxZKly7vw4ixo3fsWBf4Aivcto/PR940fJPGjbv4ubBvsUvxCRg+ge9AGROHVOAn0DnXtGlPv7bFi99zezsR8rIxdINyrl49w95//y926NDe6NtQUMHu79RpePB/52BNhvsMHGfFiqnBdZUOjtHA1zO0BGGCc+LT7N69KShPH7elsc8pb/PmfaJ7wVDwSm7n4wNhZzNcOy5f7ro/cuSAixicg+Nxjwqz41OcnWQOqcDbLDJv1sqVK9t9990XPDAfBz/GNdHacyczs23gyF7hkQOIDuGYppLe+OzcuT54AK70BoqcCTRiDRp09AeCxoOxWzQgmZntPDEh2+Fc00DwmcaIBrB9+8usdesB/kDxMNep09ITq9AgcQ6cWB7udu2G+LFwkhEeatduGnxu743S5s3L/KGmQeL8cUPG2Coe6hgapfCcl7uKWbMmQgIhVGE5S5UqHTzo27zhzb2d2Qm/zuxsc7GhSpV61rv3zf6ZxhAHnWM0bdrDGw0aAoSEOnUQE474NpQd0YH/aSC2bFnuDQ6NND/WNWtmB2XenaPMNC5NmnT368Spp24TG0AaqVq1mrrQQUOOWHHs2FFvkDhWw4Ydve44L8coVYoG7YRfI8dt3Xqg36usrIXeEHfocIULQNwjGn3qM6zXTG/QwhdDPb9vHJd64l5Vr17fGjXqbPXqhdfL8RCXRP4gZDVr1t8ee+yx4OVx6p6mM4MHDw7anGYuxoniS9wWZ2Z2CNrSOt4m0V40btw1WF/T27Gz57cRnxedO4+w+fNX23vvvRetEUIUFqNGjQps5L3uBJ8v2G10TLFg12E70gbTeYTzjg1H2xt2RDV05xjhgcToRPXSeXUmmx8bnuOQFyx0ive7LXr48F7vZGzXbqjbjNjb2MjY1fgY2KJ8z3F79rzZbVnOjw2aERjoYfRthnXteo2LFpSHpOvY29iwXBfiCd9hfx8/ftxzPWAD40s0bdrdHXeEiwoVariggL29YcOC05JP0imHb0HE8PHj+BFhQnj+Dr8v5R2GvKdCP6Wkn4f3FT4H++I30BnHey0UdI77u43O0r59R/lxKE+ZMuU8ehm7G/sa0SH2EbDb6azkOqjLpk27Bf7GF/1aqTs6aKm7li0vCY5/Ijhe1mnXIi4uPBM9e95oL700zpYuXRqtPT/SUnDggUIkqF+/deDUr7APP/yr97Lj4AOOPclPZs8e7w4mDwyNFI7xli2rvJeb5C4LF75r27at8gaLRgk1dPnyqdaly1Xu3KL+vfPOH23GjFddOMBp5aEOHdxN7sjSiNF4TZ/+gn300VO+noaLhol9UFK54Tjfdeu28Ieb3v4w2iBUa0N1sqt163aNNwDTp7/kCuaGDfN9PxpLHuaNGxcF5+wSNHBXn9yOUKqFC98Jyv1JcH07fftGjTp5w8G1IwJgIK9bN8+TSM6fPykworO93DSEqLjUT27BgcYE4xtxBcU1UWwAGjSEAl4K1atneoNI44ygQdk4L5+pA8q/YsWnNnXqc35PaKwQZag/VFPuxaRJv/NIBcpGg83LgkaVYSiMS+OauEdcK2o6jTJRFDSkR44c8s9t26JiD/SGdvLkR4Prfd4b1Tp1WnhDzu+D41E+kT8SHE7nYgkOPHMIl4RFIjTyPPAbTkWIOMLAoP1K9tAnDDraPAxN2k8MO3qRCpvSpct429+v323+HGAsHTy4x4YMGePtEm0pRuXFvie0x9Q3hnjYa3b8tDYZaJepL3qw+Du/7YorEhyEuHgkQ3DA7sS+o9MPO27atH8E79mJ3s61atXPO44Ytoudj71O5CxtIY7v5s3L/RhnsvkZ6rBt20qPjMb2e/vtP/g5du3a5J1W5Dw4eHBXsO4F+/TT5wObZ1tgS17q7zb+5t3GsbCR16+f63Y022IrE8VAuTku9mU8qxrRuQsWTPLrYJgw2/BOR5TANk8UHNavXxD4BFu9HugApPy8cxLhvcM1IYbg9CMwUC7sA+opjFZY7e8Jho1QN++++3BQb2+4HR2fj0gJ7O0pU/4WtJNvuSCTWJbQh8oO3oG93NdZtuxjt9sXLXrX3yPhtR5zH6ZixWrWv/8dLsBMm/Z3++STsR41gm+BzU55qCMJDp8vyRQc0jaHA476jh0b/IHCyY+hVxznloytcOjQPm+UcEpppFAcEyG0iQeLhu7DDx93gw6nnf0QIAiRogFh3BQzPuBYE+IfjwOjt54GgjAjGgDURAQJDFLOR2OwePEH/jDSsJD05e67/xw01P9rRGgAxwqPWdrPwbk4J+emDJSFMvEQ47wnbnc2aHA3b17q4kXsaOPw0yBVqFDFjWoEl9zwAvngg794A5wXNIAzZrzi18Wwlksvvcfuu+9Ju/nmX1m9em2jrc4Mdcd5EHnOBuegMV+9eqZfB6FpCCPcVxRoIjl4oQDXGl8vdcTCuYRIdXgWMSiuv/6n7vSmcqLV7t2/YNde+4PAYLstWpM8aOPopeL4LITDXgww2DByEX0QaWmfeNesWjXNSNpFaC3t8MWG38Gll95lX/7y7/wdUrlyneibnGAkI7zedNPPg/tzXb7bCSFEqkBvOM49w4CxobHjQ7F3b2A3zwvWrXUbELt327a1LkIQ6QrnavPHsJ5OQDqysP8RCbATKQM2PJESRAMA9jxDBBA+6LTKj9hux/7EL8mvzLnBnn3rrd+5PU1UQF5gJ7///p/9Wrt2vdZuvfXXNnLk//P3cEGgI27jxiU2ffqL+Z4jBnEBH2Hp0o+9LsM6XRbUz56gvspZtWr13CehfqgvjouvgRDBPnR+pmpHiTh/io3gEIYt3Rg8QP/tsx6wXHZZ2KuUN9n+UOBUJvbgoOb06zfavvSlh/wYPJADBtzp6mIoEoQ5GzAsGTKBYrd373Z/mFHuUAcx+jEyebjiY9N4oAaiKBLBQO8RhD2QlCMMbYo/A710QCPE2KiPP37Snn32e/bmm//tiiahWEOGfNUdZaIE2JdzxAIK56YMlIUy0WuF0Zt7uzOB+tiq1QC7+eb/tDvvfNjrZNiwfwquu2vwbYYLInGdJEJjwXlZ8ibb6578DpMm/d7+8Y9/96gMeggZm8a9jBvr/OA6CDMrSMPEtvTWhduG9z6s52x3TogooTeUMjHOLD5mfN8UBi2KAjQZPJO81IkcCJ/P1ITnDsc8jNZKPrSxRDnQVscCb2FCW0nkHDlvMHqJwqMdoU0Jja49/h6hl+hiw++Aei5dukLwf+ng8+ltNrCeusKI5v7kt50QQhQWRL8iEn/xi/910u68+urvu5ibP6HtjG0X2nukpwsj/GJbL/wutvfDtq2gNn9uSpYs4zY1ZWUGixtvfCAo6yPB/g95BC7RuvG+YXlCf+NM9iptLlG/2NiIw3fd9YiNGvU/PsQA8SO/snBshBPs7VPXlxP8iDCp+t/smWf+2SZO/LVHJXTocLnPFkcExJmIbWgisvM7R0xc/5wz3Dau+zBlIMJJuXLkVCvl4gJDzPmOKMQwspkp8SU4FDeKjeCAGonCSFj90qUf+kISFlSzgoIQ0KXL1d6o4WCSgBA1kB7uOPwIcN4xKhk6gVGLgkqUQvjA0KAccwMv0cjlAcP4pcFIPFZBCUOe1ngCSJLE0FPPucOhDDUixz4MI05UQSkDZaFMbEPyw7y2ywt6u+iRa99+qP/NualXFFqUyGQQRlAsi5LffODhawxfYBhD2MAWPtyLcFzeYa+rRAcovm+xQCSESH0wVuhRYqgaQ8fogSpscNIJL0XgQGyIQ0HDsqzxXiG2qVnz4gsOu3dv9CGAYQ/XZ94TJ4QQqQi2Km0WdiGJ2LE7166d650/yaSgNn9ehE5+2KmGI08iSspJtDLRzjj2icnaz0bsV9DZhihNBDbHI2kjQylCG//C4Jp4F5FrjnLiR2D30nFKvoXCEv9zQ92dOEHENB1+pzpGYvubJJUSu4sfxUZwYMw/D9Fnn/3DH3QWxhqdS4ZTerhpeBjbz9ijKVOe9tkTCFcKx/+GjQ/bEd1ASNCGDQv9vDjgPEQMN6CHnB5GchyQc4EHhyiEMMvrCe/9Koh6x37sf2occvig7t+/MzjPFhcheEBpFGmcODbn4FzxvpSBslAmeusxwhO3OxPsX79+Ow8bY2wYwyOmTXvRrzf3GLHcEJ3A+DYa0NwggiAmhOPMwwaOxpQ6xEjnb64rbnDiRihRwEkmcZ3yMkNYwGmgzjkvuSBYeBkIUdjwu6N3JBxnWTpamzc8D2xP7wdJUcn2TK8QQ7zoOUiE54fEU4iHbMf27Mf+HIdIA4yctm0HeTJbtomPRzh+OE62s4/NZCFBF9vxP+M3E6OREEHjMZwxsTHFWFbExNzli+E4HC8+PuUlJwJl57g8k5SZhFREWSWel79Zx3eUlxDQPXu2eqgsgmvuugqX8ByUKcxdUN3fAeH5T9VBXGaug6S5ZPsmeo7hBxyPMjM+lvYW0Zk2PhZlT7UvvIsyPMosbv+op5Yt++Woqxi2IXkYw/YoVwy/C34flJM65booH0Ps4nvHNVFncfuKMU1dxO8N3j953XOS/VarxntKCCE+H2ivNm1a5mIxdjj2PPmPsEOTCW1nQWx+wB7lXRnOulDWnXf8C3wP7GryFMS+B8vMma94Z1pBoWOLdwidfByTHA7Y3AjFYdRtGAWdF7wrePfxjqR8ueG9RcdkYideaG+TrH2fv1d5v4X/01laJnp3FI7Tzzl5H/Euwt6uXLmm1yl1wPuRaAt18hU/io3gkAwIz+cBCJXEDH9AMS7JzMoDy8PIQ0HeAoxQxocRKkuIEc47mVZpKGhkMOhwuNm3du1mbpBiyGF40pBilJ4NHjiOSUPCeGQao3ihXPSk7dmzyUUOhlwwho1ZJuJz8j8hvhi8fE/yl6ysxV4GyhIbySycJxY1YmjgaFSJHuEYGNMYuiwM4UhsjHODc9Knz5c81IxGJBYPIGxYG7txS/hYXAbqFQOahh7hgegHIjIoB/eChgnnn8Yo8XjJgpwO3D/qNnYCaMAZbhEb7kIUJjj3jJ3v2fOmoM05cwQSgiDP+BVXfMuGD/+OXX75161fvy8HbdOg4Fk+Fc7Jb5fs1IMGfcWGDfu2b3f55d8Ilm+6M88wMKKKcDyHD/9nu+yyrwXLV30h+zROMY4pzzPryAUwdOjXfburrvqX4PPdbiTFzzk9RgyLatt2iJ8fMOxwaEmeSEZv2tFE2I/9OQ7hrCNGfNe35Twcf/Dge/24GHzM+DNw4J2erCtxyBx/s47vaFdoLy65ZJQnpkJo4HOvXjd52bgOwlavv/4Bz/HA844xxjb9+9/pQ9XYhnqlfhm+htPP0L1OnYb5tYf1MSbY9j7r3PlKT3ZFPTE8jvaLtiQR2jPaNpJl0f7R5vXv/2Xfv1Wr/tFWp6Ct4xycn3cJ7T3vIEJ4+/Yd6fVDOCzf8ZsJfwPf9PvLfeZ+c9+5/9Q/9c4Uy/xPe8o9ZyahK6/8Fw+pHTo0vCYyh/PuKYw2VgghUoWC2PzxdgjYrCMPWt26rd0px9Yncg17G1s7tmVZaF95pxUUbGzsXaJt6UTkfYP9ieDMeym/Y9FW16nTzN97REeQHyE3lAW7PdHmZ6HTlPc/yelJ8M47inLwLiTXUNhpivOf3M4+hheSwBNfKPZV6Nzkb5L5Y/vEdS+KD7qjCaD4EU7FWFyM0DFjxgYG9b/6A813hB7hEGAc8qBimJFci+3uu+8pT8JCvgNClUgOQwLJL37xV/4dSRExNlFpExMwFgSmarzxxv/w88RLx47DXURAAUX1XbdujmeDRXQYMOAOPyfnppwknWQWDs7JuSkDZaFM8fFuuOEBb9gSocef7Qm/Zeqae+75s49vo2FFvOB4+YWcYXjjsLMgluTuraVB6d37Fp/3PC7DHXc87I3iggVvexlJVknSS4ar4ExcddX9nksCgxnjO9lQT4sWvecG+rXX/rvde+8TbrTTgCsEWaQaiIRk1WfYD1mjn3rqm/bGG/8vEuiIHgqfEQwHnFrCR6dOfda3e/31B/3ZxcEkxD+OSsDoePLJr9vDD4/25dln/9l7ajCEcPZJIkjvxEsv/dgeffR274GidwgxIa/nvKCwH/tzHP4mn8uf/3yXvfXWb93w4FovBJJvMRTshRd+FBz3br+2V1/9mSfkIvKLGXz4n14Xrvfxx+/1bV577VdujBHJQLQBhhhTKJMQDCGYNnfs2O94Xh3CUzHWGJOaV/t+6FBo2HK/aP9o1zg2vWlEROSGcax8j0CBYMK7B4MXowxjkTaY9xLrmZqNd9ff/36/31/uM/eb+55fksrYmEUYeeONh/yayaDO9TH3vAw+IURxpiA2f7wdedpoGxHEb7rpF4Fzf4N34DHrGe9EhPjYlmUZPvyf3FYuKEyjib2LE96iRe/AJv8Pu+2237loznsgPxuU9wN2Ph12OO1ly1aOvjkFnYlMFX/ddT/MUUY6NjZtWuztP+8BhpLwTiQC+uqr7/f8EfgfnCPZ8N57771HgvfulsAOGWW33/7HwM/5udv6XGtc96L4QBdG/t3UKUZmZqZNmzYteMAf8vH+5wuNCz0+KIYkTYlDTDF0+S4cy4ThnOHGO+FdGNtENPAQYDASAhT3IIYwReVRz8zKcAN6HwnxPRU1kO3rEQTivBJhb31lPz7GI9Dzx1Q5rGd7lECOgwpJIxhDuTjWvn1MuxM+mJwLJRNlNDYWKS+GNNvGkI+BcF6uNb4G6oDIBwxmzsd5Mb5xvjkm+4SQ7+CgG9Sonlwv4HSEQze2B8sON3ZZRzk5Pw0yxwaug7Kinoa9oqcMW4QQphsKewPDc6DuYuhzDzg3IdKsp45oJBPrIGf97faeRspOnXB+QuDisXnUAb8D9g2HuYSRFIn3jf0IucPAZ+pQDHnqSuQP0T9DhnzfevXqFbyQz5zNOF144IEHbOTIIe6cJoLjibHAix9hi98uv1eeCZx/fmvkTmF4GONEY+jlxgklogEDAUeRnDX8nun1RiBkylrGv9JDkXs7poNlHT0LU6aM9eeOXn4ijBh/yn5xm8FzV6tWMxs8+CtetiVLPvLcCDxHzZv3tW7drvVnZsaMlzz8c+jQbwTHaeUJYZmpBhAgmSec84VTZT0bGBkjg/17uYH17rv/5730DE+g1wiBlMzVlJ0IB6bzRTB4++3fB45+N48MoMdpzpzXvW6ACA2iIHDKOT5tyIABtwdtWDmfDnfWrHG+HTBspWPHKzyigqzbXC9tBe0dzz7GH+0FvV0MN6BcXDNlwklnaAjZtQnBZT/aKgQIIgxok95//zEfbpcI3xMpQXv6ySfPBMblLP+btoy2Kn4vxCAYYUReddX3/ftZs8a7MMLQCeY5p66JbuOeEVFGXVPnnB+jjd8A4gRiFL1wCErcK0KGmT2DIRf8hvg9fPzxU952c72dO18VGJlD/B7MnfumvyPTBQTw556b7M+rEKJwGTduXPDOynKn/XzBhiTyDBs5joyF8uUrB3Zo/chG3O7v0tiexE5kHe382Wx+khgiFCduRxQb9jLvaM4f2vI5bXTKQfuMb8H3nJvtsYWBdzzvN8RrkjFiN/Ndor2Lvc25EJ/Ja4DtG5b51LXhJ+C7YHNzLnyJ+BwxefkGwHuL68jtf2AbU97YHmef0F8wj0ygTBD6TDnrGXJfb6LNj93AdmG5Q9uC78JtKgXvoBb+HkcI4v1zLnkwRPLhdzNmzNPBu/EeGz9+fLT2/ODpKDJv1sqVK9t9990XGEsfe+KT8wUnPGwMtvnfcS89BiYNDY0WjikLvfw8HDQcPCA0Whh/8feJC/uxP8ehRxBHOPF7Gi4ethgexPjBi6HBCB/cbf4/DR0NAk574rEoF9+zfQyNB9eVuG1YpgPRFiGUgbIkHo/zcW1sG18rDS/1w/kTt6Xe2J99+J6FOuFawnNl+7VxHNbxPetiqG/WcZzc1xWXNxYn+J9rYqxZeO5w3FdiHSXWQc76Q+QIBRLKy3XEDSVwHsrH8ePz5b5vOFJEXdBQ40AQVUI9i/zBSWrWrL899thjwf3KGVaergwePDhwcJt55E4ivMhjA4DfPr8tQjX5beIEE71ETwC/RX7HMRUrhrkeGjfu7C9kIpz4fYcvbabG7OT7sI4XBk4yhlHVquQ56OLOJ6IAoiBzXTOciOcRo4LhCDis9IzjgJN7gO0Ix6SpxOmNkzBioCCYcFy2o4eEYyN84OSShAswoDgmhgjGDeJBODSrQfC87fDtGILB80ZUFcZG3Lbwe8KgpE0iiRjGTTif96m5y4Fy4HxjBHF82jm2w/BBbKFsgGFGbw/nZ0gc84nzzNN2YGjxHQJD69b9gmvp6ZEACC2cCxGWMlNOjocYFLfprCPqjXaTPDe0VYkwjII6QGRiykzaPtoe2s7E90IM5eEaiWCgzERO8D5AJKGcjBmmXeWYgEDAdbAP94VyUh8kUya6gjokHJj7TRvKcflt0KtGeTg2xjTHjvP2hLNrpM8zTMTQ/Pmr7b333ovWCCEKi1GjRgXt4V4XQM8X2lveDbS3se3IwvsytGV3n7TZYnsytlXj7c5k87Nv7u2wR2O7PRYfctuyrOP9xf6n7OXExI+hHRzbprwD4vLF9m58Lr7PXeb42tiP9ZQt9GkSzxFCGTju6fb2qeuA2H6mDsLvQ3uc90VYzh1+/pjcZeE8eV1vos1POfg7XE9+ozC/HOdjGB8dCry3iB7B3uZ78fmBGMRQnZdeGhfYpEujteeHYiaFiAgdhjhhXZgwjnAy1tPLh/HNy02IZMELmRftnDlveK88w4lwZHH2iEYgZJ/IGoyNRHgxh0JFhr+0Y9EUIyacGiyclorvY1GDCKR47D5CAk44M96EjuUKjzwgYoCoJbZr2bKPO95nGipx6jyheML58oL9OWdiD1BuSFYFGD0sMTmvL384B0ss4OSGOiPyCUGkYcMObigRJYCxw31AyCDKg3wMOOb0ZlEP4Vjes+czCHvGDgVlIOv26deJ0JA7outsYMwidHB+BAvKxRAYDEHaJERVvqOOOD//Q3hf+Du+/znLH64LyxHvA/F+BalvIYQQ4nwgmoFOEyIyT9nbQ61Jky7+TmYYCUKLKD4U3PIRophDDynOxuDB93nCOBZCvjHu6QVdtWraScVWiM8Teh3ingJ6pMPETiUDpz4eUhR+Pnr0gL+06SWgJ5uhCy+++GP7xz9+YC+88EN75ZWfec4ZhlBxTBzwceP+03M80OuNY06iRZxloAcc4SIUIEiyVd2jInCMEUUQCggPxZll28TtWOh5zwucXIwMIF9DmJSWrOClPVqC64nh+DjEXF98/HA7snDnDGtNhG2I6iBRIsfjeU58phs16uTDJxAFmD7y5Zcf8CEcS5d+7NuczQmPnXWGu1BfucsRO/7hdqGgQuQE5Y7rNzf0FjHkhF4oohww0OKoFNbRGxWG2Fa1eKYNzsv18bvg98HvhHubCPebHilAUI2FEMSVcHjcqaSjQgghRDIhL0SbNgNPJnFm6dr16uDdaDZv3kRbvXq6R0mI4oMEByEiCOsj+RvJ8OKkeSyvvPIfnlBSiFQBJ5KxlIhhjN+n5xvnFUcTpxrHm/GR+/fnvV1uyFHCbAcxhFoSVkmPfSKE6ZOLgN72kiVL+tANetwpD5ES9LLjBBPNgICXuB1hkji2eYFjTQQR/5N3gGEd7Mf+HKd8+bDMOPQ42gx9IvqA3BDxdpSL8uUH56YXhWPFiXRzg3DC8ZnmjESTnLtJk64+TOVsUQ7kgiG0lBw/lCN3PdOjQ/QDZeccXAuzTZC8l3wKeUF9MMSE0FLEBOqQLOYkqERIIkSVCBkEB46BWMB5uc/cb+4795/7k8ju3axf48cn4gOxApEBkYL8HgW5XiGEEOJ8YMjlhx/+1f7853tO2tqPPHKbPfnk12zGjJf93SWKF2mZw0GIvKDnMR43nbgkhiqLs6McDqeTXw6H3OCsE0JPQkIiBs70u+M7kjox5IHeeYb/MIMOPeH0cjNkAiee/2kvccpxSunF79LlKl/4zBAKciswhS2zVpBYsGvXaz03AM4qiRHpkceBxSllIfQR550hSERPLF36oQt24TNzzKMS2J7ysB2/CYZM4PgyFCB3Dodly6Z4jzvbMJVjmzYDPNSSGWk4H88gBgiJMOmtJyIAsYEIJJIoMvQDB5ntSLBFjonEHA70lBD90aXLNV4PJEck0oFr7dLlSo++IBqAY5C3gaEV9LaQvwHhhrqmLuMcDom5KLhmIKIDx597gRhATovEoTDUGZEbHIfhKyTLotwcjzrMLzkW7RKzg5BTg+Ew5PTgd0R9MSyEOkXEIJFl27aX+v1t2LCzf0/ySoQg6gtRASGC6Ah+Y+SEIOIkzOnRw8vC/aQuuCbKyaIcDkKIwiAZORxEUSVve5tF9nbqkMwcDnRhFJnBmsmapUIIUXholorTyW+WiguBKAIce2Z+wNHFsT5x4qgneAJ6vpnZgl5wtkVcwLmlBx54qROOv2rVZ+7UZ2a2DY5X278DHHt6wdetm+3O8aBBd3sPOg4smauBYyBY4MDGUzuSJ4GEhDi48bkI4WcWH5x6hAN67HF+yZuAc074JJChGzGA/Anh8IMT3qvPZ2aImDDhf/LYLgzU27OHMmUEBssRd6qJOCBqA/GFc3I9ONdlylQ8uQ+vP87BNSEm8HJt0KC9xUM1cLbZD9GBqAcEBIZ8hHldsvw6MJCACApEAaZVY3gIs0EgLHB+6n3IkK96lAPJHvkOEQHRhXuDIIR4kR/x9SIGcF8x0OOhIJwXASTx2qgDoi04P/VAxAtCC/cEwQIhCWOvevWGLpCEQzpKBMc85EIN33G9/H7IE5EuaJYKIS4eyZilQghReCRzlgoJDucI46PppSJ0GQOYXiR69AoC+xJ+TA8khGHRa9yATBcw6DHYMX4J2Q5Dl9PHoE0HJDicTmEIDheLeOoqpsXMa4rJwgLHGQebIQeIE+SgmDTp99G3qQmO/RVXfNujL4jGYFovHHYiKYhwYDYQprdkKkqRepyP4FCqVClr2pRhKGVt69atwT1WKLAQBaE4CQ4MZUNYZjag7dvXuV2fO3dOsqGjoEaNBt7hEM/0gFicTLgmbHaiHEkujb2eVz4jyoAwjm9EFGNhlEVcfJIpOKRlDgd6rzAMmf82TpZVUJgurHfvW3yueXrx8huTnBt6sZjCbsCAO3xe9SFDxlj37td7j1OqgqOBwY/xTEh0vCCaxJnu0azYhp5WGr+zwXaESV999f1uhNM4CyHSnQxvT2hXaF9oZ2gbGZJBhAOGS1EQZok6YErPgwd3edQB10E7Wrdua48mWbNmtsSGYgK5Qxjm2bx5c/vCF74QvNevshYtUvd9LoQoPLCTu3e/LmgH7rf27Ye4XVzYYE8zFA6/glw8oU2eXIiM7N//duvbd5QLD7mTIccgNuDTkHS9sMoiijZpKTjw0DAbwTXX/LuH3BbEUb5QCLVt0eISD8X97LN/2OOP3+tZ0JcvnxptkXogyDCm+/bb/2hf/erYk8uddz56shcPo4ttLr30bh//K4QQ5wrtCO0J7QrtC+3Mvff+NWij/82NKqYLzSvJY6rBcITFiyfbSy/91CZO/LWR3JFhGW+++VCw7sc+nEIUD6pXr26XX365PfjggzZkyBBbu3atrVq1KvpWCCGEEDFpKTgQ8oPjX758ZVfrLkYybs5DGBJZ4xmKwZjmcKxswYZjfB6QhI7EbyQzGzv2n04u//jHv9tHH/3VyGTPGGyECeo0P+UzEcZSM9f/889/36ZOfTathpMIURQhumDnzvUe9so0keQFSDZhBEOWtyu0L7QzTz/9T/a3v33rpKMe50pIdRhiR9tO7gSui3afv1lX0OF3IrUZMGCA/ehHP7KvfOUrNn36dPv5z39u7777rm3ffipJqBAifdi6daVNmTLW/v73+2327Nc9d5IQ4hRpl8OBiAZC+lu2vMSYAmzt2jmebZxQVxxrkpqRVZ1wWDJ4YyCSRZ0s7OQcYIq0rl2v8YiFSZN+59nQS5QobfXrt7amTXt6GBECxr59Oy0ra6GPOyapG+PaiQAgqRchtTROjPElYRpjpBL3xTglt8GKFVP93Az/oNyEGjMemPwH4bYZHqZLGdasmXUyiRjHI3M787uT9f3EiezgONv8WuMkZ+G0aV1cKFi+/BPPJZF7vNmIEd/z85LQ7Z13/hStDSEqhOnrqKuWLft6WTgGyeOoS4aphPPLVwzOd8R7L+np27hxkSe1a9Kku1/junVzPIw6zAZfOihPZS8TYcjUA4IEGdnJxg7kvyCDfBxdcejQfh9ThmHP/Vm/nuz+O3xb8fmgHA6nU5RzOAiRLpwphwM5GurXr28DBw60jh07Bu+pch7RgNCwaNGi4H1VNAQxIVKFZORwwM5kVp54diYS85YrVzGwCU+4LYhYTU6BxO2wlck5wPS/sY1JAmKmb2YYHHYzbNq03GeMSpwVr23bQT5tM+cglQG5DTZsWOhJhLFdsZmx/bOyFrsdnNs3yMu+57wM18aeT7R3EyFHBNuR1JhyA9sxdTO50RYufPfkvtj3+B34MTGUj8TE+AvQvHlv9yVILrx48fu+DjhHZmb7oCw73c/q2HGY+0wVKlR13wVbG7cR23vTpiUn9+W6w2HizT0pclwWjsfMTxUrhtNEM9009YW/lXu6ZpF6JDOHQ9pNi4nTzoNBxm+cZpxVsqfv3RtmMWcquN69v+i99uRnoLLJ/k0kAtOc8dAxppjxWStXfurOMw93+/aX+7RkPIwM2WD8MfPEc1wyvzM3PhnBETF4CBE2aGxo5Fq3HnhyX7K688AyF3rcMHEupnBjmjgSVnJctsPhr1+/nTc2OPpMjUZj2rr1AJ/ijgaRqeDYh/JQdjLJc504+HEEA2IFaizCQCI0FDRYXDv7HTy4N2hcw+lqOC51xLR0NFqIBTTilJnIB8rWqtUAn26NhoYs6DTONFLUT69eN/lnssMj3nTpcrU3kJUr1/RrYxvuBXkyyDiPWMELgkayR48bgnPXDs5Jlv4avh3jzIDjqRH7fOGFrWkxc1LQaTGFEJ8f+U2LWatWrcCY7m5XX321de3aNbAFdvs2b7zxRmCPrA7ekZrGTYhzJRnTYmIr4hSzVKtWz+3hcuWquCOO7Y6Nz7TDCBHxdtjEYYRzKbf/sVmZUhjbGR+B4G98BPISYJfjlGPfhk71F9whxz/A7sVeDaewznYxgDwOCAd08mELJfoGedn3+AR02rVtO9g76MgBhH+QG2YTYsrj5s37uHjBubH3Q1Eh26cwJikxdjkdjm3bkkeCTseSwTU1jYSJ8i6w4Ld07Djc2rQZGByrnHc6xmC3M1U0QsiqVdN8P/wXzoXdz/GIbEZ0odOWjkZ8A/7Gr8BfwWanLDVrNgnOc4XXKz4AZaYOKRc2PZ29IrXheUrWtJhpN6SCMbVkWV+7dparnh988LhNnPi/PkYYBZF8BDwYjBceN+4X9v77fwkahkOBIXKVP3g8MInQ2LVo0ded3pUrP7NXX/25j93dtGlZ4LB39Id+xYpP7NNPn/d8DaieH374hE2Y8L/e2NBAJe77wgs/8AzwiCE44TjrqK0opayjkfvooyeCbf/Dw7cQNBo27OANG40sSmqHDkO9kX3vvUftlVce8LnYebDbtBnkTn2c0ZbognXr5nnUA9vnJpyDfY83ED16XB+JJg1cxWX7DRvm24wZr7iTj3LKfP3jx//SlVYiNxA82HbHjg3B+l/5lHZMwZcXXBeNEIoq27399h+8sUPwIRolFBbaeqPMMT/55Bm/PwzL4FoQIGJVWgghhLgQiNorU6ZM4CDUsb59+9ro0aNt5MiRNnfuXHv00UddbNAQCiE+f7D9sAGxBbEJsQ2xR3HEcXgRHhK3w/mfM+cNt7k/+WSs2/Y42nSoTZ36nL388k8Dm/05d7ZateoX7N/V/YO+fUd6dC0O+muv/Vdgr/8wcMR+EvgLrwR27lo/R0xevkFe9j0dZNjaREMTTXH60MEwoTK2PZ17RE+8+eZ/24sv/jiwkae70IFQEcM56QjEdn/nnT/6du+994jt27fVO+xw/hEOzgV8IqK9lyx5P/ApfuY+DmWl3ohyLlMmZ/J8IjnoEETcwefAR4jLvHLlNO+QROzA7qedFemBPLQI5pfn4SG3A044oUI0BIcP7/XGgMaGaAKUvURQQFEU2XbZsimugjLPOeoejRrREKioecF0Nrn3BcQBzomzTQgYAgGwHQ1MODXNQVddEU1oPMqVY0qaBi48IIokbkd0Ao0UEQxEOuCwc3waVhoO1Mm8wPmnMV6/foF1736D3X33YzZq1P+4eloQCJ0iXwW9uog2Z4LoDIaZLFjwjud5QDFGOWU/lFauifpAPSUci8aZKUm5Nho+IjTUyySEECIZMGSvSZMm9t3vftcjK/ft22e33367/eUvfwneQRuirYQQnzfYftiA2IJhNO5utxGxFXHYiSxI3I5hAHT+QTiLUEv/f+vWVW77E9WLk4wdiv1NFDNRCTj82Od0thEVcSbCKTILYt9XcQGDYcsIF7mHU8QJlbHtGVLNdTHtJmUMfRWim09FRFBGYOgECwIGHa1r1sxx0YDIDa71XMCW37ZttR8HPwIfJx4SkZePw+d4tqncZUaYIcqa6Ac6ZXN34oriS7ERHBAKeva8yR1iHGOWyy77moc+FQQUOhoWHFpCq66//gG7665H7YYbfhZ8HuRKXBhpkFONw3lHpSQKYNiwf7I77vhTsN8j1q/faC9T2Ouet4JHvgKUSxoYxkvFwxUQAIgQ4KGtWrWOnxtQMhExwu2y/TMLUK6yZcP8B6wjhIxt2Y5jhUMpDnkjh0DBMWiIwtCtvNN40DggGBBR8cwz37XXX3/IRQ6ms2RaT4aInClRZFi+497I5XeOGC4jLNOxaL8T/n+4X4bXZVyfNPSUPbzO8NoIETvbOYQQQoizQb4oxAUiGWrUqBG8/56xP/7xjx5SevDgweDdKHFbiMKC4b/kgvriFx90exp7nqnUmSY5f7CPsRtD2xEbEVsR2zi2H09thx2NfYxzXNK/q1y5jvfI33jjz+3OOx+2L3zhx0auMaIcsNPLl6/mtji2Jg54aJ/mz7nY95QHQSKMbsh5XKKb8U2IimCbxKHNDEtAXDl27JBfBzY5szpxHIZshz5AmJQ5HD5+2DtXOea5ENvk8fH4++DBPV4WOmMROWJRB8IyV/M6YJgF02rG95EpPOn4ZJuMjLMnmhfFh2IjOPBQh4kYP7HFiz/whV59HvSCwIMUOuBHPLkK4fwcY968iR6aNXnywz62KvfxcJDZBwcfdZXkkuw3bdpL9sEHf7EZM162o0dzJmOMCZ3rE95QEH4Ug/pIQ0XDQw9//JCfDcrPMWlg2T/WRvibRpPz0DDFDW1BoHFl6Adj7JYs+dD/5/govjRs59pwnS/cX+qCNj5s2MKLi6/tXBVbIYQQIjfkamD4RO/evYP39wx77bXXgnf5B8H7n/xAZ3c0hBAXBjY1uQbIk0akLTY1veQMmSg4YWQDjyu2Y+7IgRieZ74nypboA4Y/LFr0vs2dO9GHP2P/Mxyann0EDYSCM3W0xSTLvo/FEzoAsbcTbV3+JkIAx53tsNcRFdguPMcpKDfbhbna8m7DEA8Qe3Lvmxect1Sp0n48ohgoX0xY5lBAwWei4zL2y6ZPf9mHsk+b9oL7FgX1b0TRp9gkjaSBojFCZMDxZyEknwchNwyDQHWjt58QIVRQ9idSgfAgQvrnzn0zeDgm25o1M/1YhCaxnn0Sk0byQJFMhQef6eJmzXrVnfJ4H0K0eKBQUMPMtpU83wFlRf0jTItkK0QObNu2KjjeMXfmSYLIuKn589/yRgRFkOQwNIjsz3kJ14rzKpD4kWnlOBahTDSyPOQ0oiSm5HjkQGAGCeqIBomQJpb9+7fneOgRFMLZIir7dpwrbhwZtsE+NOaUg3AvEk/yPSFoiD4QhqA190aIOib0isaX7LoMXSEBDsNBKAvCBdvDokWT/Ty5tyPnBvVBwh3KRUgb9cL9YIwYY+zCULcFfi7x+UEYnZJG5kRJI4VIfUga2ahRu+B90jh4t9azBQsWBLbBMWvYsKF16tTJ2rZtG7x/ygXvTHo5T0/sRr6HLl26+EwWbJ+4aN+cpOO+JB8l4agIyS9pJHYwnXjMisCwAexp7EsiA3KDLU5ofp06Ld0GDKN5D7jdS8QCdmdsHxOJjA2L7YoPwXYIAuRbwG4m7B+be8GCSX5OFoZYYJ/jhJMLAicbXwC7NLSNQ3DUsdOxZUmayNANbNuz2fd0cJIsHXsZ/yAxggGwx4FcEJUqVQ98mv0+JINz16nTKjhWd68DZoDDLqYM+ASII+RnY7gFeSvI34Btxr7UN8NIsOVJmsnwCLbDnyAHBHXBrG/MpIEdju9CebkHu3ZtCuzzSp4QHj+Kz+TFo+xx0kiS2DOsnHuCb8Sw7OnTXwzOOz2o0zle//gKRF1IwE1tkpk0Mu1mqQAEAh4EHj4edhodnFceUBoexjiFn8kqW9ZDg6j0UFyoFzx8pwQHGh7GYBFSRNJDGjycZZRCHkqGAPBAh0JFTsGBxicUCHLuSxZaEkEimMyaNd4bHBqbswkOPOQ0nggqJGUJozFK+L40cAylmD9/kquKfE8mWma/oPFB/Y0ffBoIxoyFjUc1/xwqn9U8pI36o7Gl8UCQaNSIKcJoKPf4mDfKS2NGQ5UswYHtUEy55gYN2p28X7VqNXLBgW0RdyQ4fP5IcDgdCQ5CpD4IDpUq1QuM6zLBu66VO5J9+vRxB3PQoEH+96FDh4zpMHftOv0906FDB7vlllvs3nvv9e0TF+2bk3Tbl2169OjhUTMiJBmzVMSCA8OnsTEZZkBEAYkTSfiIaEHHIT3/eQkOdJ5hx9auHc4shx2M7Yy9Gw6jYHr8o35cbHAcemxibGY63LD/40467NBYcNi8eanb3Gez7+kUJKE7Q5XxE7KyEDlPzRgXRi7sC+z8TLfb8RmwcbH1sX3jPAhcJ04+CSTxAfBVuGb8GGbBQJigfohUJh8DQyvo8KQzlGthu2bNegXbkVi+ivtGseBAZ2WYbDMUgvANOCYiy9KlH7mwwX2IBQc6O4lI4brxJbDxSWJJmTk2dcXf2PoitUmm4IB0VmTkJcZVTps2zSZPfsjDrM4XHjDyMgwceFfw46/qDxAZa+fMec0fvMsv/5Y3VjxMYWjQMX9ASbDIeKuuXa8JHtTmNmnS7/wh54aQcbVfvy/7PjRegKPMcQkd4qHt2vVabwTIokuPfSxg5N6XMvCwfvjhXz0hDNswFSSNC1EU7I/DzbSVXbpc5cols2nQODCei/WDB3/F/yeMiltM40ZCGiI32JcpNnv1usUd+Hff/T8XT2L1mMa0Vq1mXj+omFxfDOrr/PkTg2ON8zqhob300rsDw2y4K8qMG5s+/QVvaHkBMITjvff+HGwbqrs0ljSul1wyKijvZ0Hd/MMFHqbxpJwvvvgTb+zz2g6hhMZ18OD7omsr6dcSj01D2KCuER7E5wdjL4cM+X7w++oVPB9Z0dr0hnn9R44cYmPHfidaI4RINUaP/k3w/q0eOCTr3d54/PHHbcKECSfbMewBIh6OHiXE+fQ8DjggpUsTanz6ED/tm5N02/fHP/5xYOd0sxtvvDFaI8aNGxc4o1mBTf9ItObcwQnv1etmd6ixz3G4sVm5H9jgEyb8t9uGOP7YvC1a9LZPPnk28CHe9ygEwJbEpuze/Xr3DYhiAGxWhlgws8TSpR/7enK1MVsajjVOOjYoCdiJHEBsQDiYPfs171zg+7PZ9/gj2Pd0/jGjGzNk5NVphg/BbHGdO1/pDjvXx9SbiBNEaZNwnXPSwYkYwLW0bt3ff4t0fOKrzJr1ml8LwgG+Qc+eN1jfvqMD272ub4f/gA1/8OCu4Jhb3efhWvGH4vwQ4cx5pbyMdBBOnPgbr6dwStDrjSjk+PpZT5RJ7943e4crZQ6eFK93oiImTfp9eHEiZUEEGzPm6eDdeI+NHz8+Wnt+pKXggBrIw8+ME+EYpGPeM89DQAOBAooQEWdP5SGJx3fRYKDaEV5EY0Zjw7rE44XVyjCPw8ExOe6WoCEsGzystfyYREWwH2pj7rKwL40Bjv3u3RuD8x4KtinjDjhRBAcO7PHjUU4aVcqCYsh4NxRYRAxUVJz/eEhEXH7CumhMOC+NJT8kwsRQMuN9ARGBhpsyxXMVx7BNXFdcHyCI0BCFSvAxPw/XQTloxOLroBzx9dLIco1sS12yPyBicIy8tosjHxKvjTpBtW7XbkjwYpjmwoQEh88XCQ6nI8FBiNQHweHtt+fZ888/7zkc6JHesWOHffzxx4GD8KELEUKcD7wDyA9y3XV0rghInuBwizvFOMBEuTKUOtFu5zM2LTYvNi02+IEDu0/avIBtyff0/CNAAMegZx77k+2B6AHs7tA/CBNVMvyAaInYlqUTM7a1C2rfE1GBTR3bwLmhE4/tOH547nAoOTnZ+B8BID4nPkF4zOq+HdAxh92O/R7DNnQ6UjdAfXAsysjfCCCUH3sb+56yxtfB91wnQ1iA+sPHIW8Gw7QTfQ3OkdhxmXtfkbpIcLhAwUEUHwjhQvElYgNFdebMVz0SQnx+SHA4HQkOQqQ+CA7PPTfZHnroIYvzNhBGz/h7xt5/9NFHNnXq1MBh2RMYzUp2JgqOBIfTSabgkFfkghDiwkim4FBsZqkQxR8UYIZUMHwDkYGlY8crPIyNnBiMIyNSQwghhDhfmI2C8aovvviiG1mMy0d0GDp0qN10003Ws2dPq1kzjMoTQgghxJmR4CCKDAyvaN16gOeMGDToKzZ48L0+lIKQNnJTMMYuryzGQgghxPkwa9Ys+8Mf/uDLwYMH7Z577jGmzezbt6/Vr1/fKlSo4MMQhRAXnzA8f7sPcabDieHGQojUQ4KDKDKQlIf5ex977E575JEv28MP3+bLs8/+sw+lIBmPEEIIkUyY5nD+/Pn24IMP2ne/+10fTvGtb33Lw+SJdmBWCyHExYccZB999Dd7/vn7beHCdz2XgRAi9ZDgIIoMJKAhoQ3CAgl64oXEO6jcRSgdiRBCiCIEIsP+/ftdeCDa4ZFHHvHpD7/3ve/ZD37wA58Wkam7hciL2bNn2zvvvBN9EskCu5Ap07EDSXZIokchROohwUEIIYQQ4izgzOzbt89WrFjhs1a88sor9vrrr1v58uV9ysPGjRtHWwqRk+nTp9vEiROjT0IIkV5IcBBCCCGEOAe2bdtmn3zyiT311FP23nvv2ZYtTFd9IvpWiJwwperixYujT0IIkV5IcEiAuWirVat/co5d5o2tWrVesC7T55bNyPh8q4t5eJnPtnr1Bj4vbjxXcHGgZMlSPgtFjRqNfJ5hrlUIIYRIZQ4dOmRvvPGGvfTSS7Zo0aJorRAiXcBerVSpVmCbZ7odeyZfAdu9atW6Z92uIJQpU8EqV67lUxeWKkUemcJLXpts/yP0tzIj/6pctPbzB/+vSpXawTVWitYkD5IL40ty/0mCz/3Li4JuV9SQ4JAA0yt+4Qs/tf79v+wPVcuWfe3aa39gN9/8C5+O8fO+6XXqNLerrvoXGzXqf6x9+8uCBqt69E3Rp3LlOtajx/V2222/s4ED77K6dVtG3wghhBBCCJF61K7d3GdNu/nmX1r37l8IfIXy0Tenw8xqV111/1m3KwhNm3a3yy77mg0d+nXvrCtZsvA6IZPtf+Bv3XTTz33h71ShX7/b7Ior/snatLk0WpM86Mhu2LCD3/8rrvi237+8KOh2RQ0JDgmgNpYuXdZvNgpTRkZJVw1R9kqUKBF8jjb8nKBMJUuW8TKWKFHqcysPKmfXrtfYbbf93u6++zG7554/+8LnYcO+4+pnrVpNrVevW2zAgDuDhrDhWdXQ8NpKudJZqhT1r5+mEEIIIYRIDRo37mr9+99uPXveFK0JHKnAP8BvwH7l/zOB7Y5fcbbtCgJ2deijlMlhMxM90bbtIPvSlx6yu+56NE8b/VxJtv9BefGtWFLJ3ue+sHCNhcEpv7KM37/8KOh2RQl5dWdg06YlNm3aCzZlytO2ffsaO3r0cPTN58Pu3Ztt5sxX7IMP/mrr1s21w4f3R99cPGjImjXr6epf2bLlbfnyqbZo0Xu+LF36oZeLjMGEAdWr19pV0XA4yplbp4MHdwfH+tTee+9RW7DgneBaN0bfCCGEEEII8flCmHu9eq2sZs1G0Rps8002f/5b9vHHf7MVK6b6bGqfFwwDR2zo0uWa4O/6tnLlZydt9K1bV1qjRp08irtRo84+bLygJNv/2Llzg33yyVhf+FsUf/ACi8wcMpmZmTZt2jSbPPkhW7Lkg2jt+cE4nQYN2gcPXCV3hhETqlWrZx06XGEbNiyw6dNfDJzgvdF4pUq2ceMSn3qRxqZixep26NBe7+lHCdu/f4dt377W5//lISbUiN76EyeO+0PJvgcP7gr2P+bDMhjnVbNmE1eugPUHDuz0hxjnvGbNxp5LIla1aLx27lwfnGenjxOrXLmmbdu22vbs2eIq2JmOx75hLgrGXjUMyr3HyxePmeJ7xBTmMs7OPu5CAeFhHCMra5FfWyKEbfXocYO1aNHb1q6dY++++7DXRQzXTVmoR7bhJ7ZkyfvBOdbZ5s1LvbyVKtXw9ZSX+j927LDt3bvN64+hFPv2bQuW7cGxylitWk2C4+9zoYMyc6+oVxqobdvWBPW7z8/LsRLrnuuiXKznWLt2bdT8zBcJxKghQ75vvXr1Cn5DWdHa9Ib5+keOHGJjx34nWiOESDVGj/6NPffcZH9ehUgmdevW9dlMVq9eHa0R48aNC+zBrMCmfyRac35gh9ev3zawX8llEOb/SrQTsdmxa8uWPTUsGht5+/b1bltDnTotfDt6thnqQE8+diq+AR1gmzcv93N06jTcbU06yWbPft1t0K1bVwd+QkXff8+erW5TY0NjLyee9/DhA9akSdfgt9AqsJ9n29Spz/r5ctv8lB2bFb+C8wC2OdvhA2AHMx0odj3DvY8dO2offvhEcK2rrGXL/ta585X+3eLF73mnaSwOYF/37XurNW7cxebOfdMWLnzHbfw6dVq6rYyvEtv8sU1NHVBH+EOcP/Y/DhzYE/yeq5xmowNTlG7dusrLXKFCVb8/lBdbfPPmZcG+u3197vNeiH+Ej3H06EH3KbhO/seXwI/Jj8zMdi7KcK+ZgYh72anTCC/vsmUf26xZ43w7fhv4gokCDQIM94dzxL8/vuc3t2PHumir8BxElHDtrG/cuJsP2yAqBh8q3jbxnnMdbIcwxNT/c+a8HtzL9327xDLjvvP73LJlufuDhdEpTn6QMWOeDt6N99j48eOjtecHd6zIvFmZ4/q+++4LGuyP/YE+X/jRNmnS3a644luBczTQ/+ahrV27WfDDKRPcuM3Bj3Rh8MPGub7eOnYc5g8JD0CHDpdbt27XekPCenr7+ZHxQ6XhGDr0mz6+qXnzXta0aU9vXHCmWZgjmKEG7N+nz8hg317B991c+KhQoUbwQM0Lfkxt3aHnvDQKTZv28EgBxA4efM7fq9dNwY93p//QyX2QeDzKw7nr1m3t10BDQyPMuDFyI1Du1q37B43SJb60bn2pN148rDQIHGPw4Pu8TFlZi70uEqFBQN3lB4+qu2nTUm9c2BdocHA4KScPPcIO18xCQ0xD27Xr1daiRR+/NvJk0GCxH8ceOvRr3lDQiBAdMWjQV4L/m/l9YlvKjHpbrlwVf1ARYbhnNFCJdc/95MHs2PFyv9979271B1IUPtzPZs3622OPPRbU+ykxKp0ZPHhw8FtsZvPmTYjWCCFSjc6dR9j8+at91gkhksmgQYOse/fuNmPGjGiNGDVqVGD37Q1s+vOvE5w9Eg8OGnS3O4vYidjd2IDMGrNz57rAce4SONoj3fbF7mzTZpDbpzh5mzevCOzX4253d+lylbVqdUlgQ/b2BbsTexKHEVsXR5512Dg4/tjmOKKIAi1a9PWhxjjCOLk4hJ06XRnY3Xf4eRmKgV1do0YDL9euXVm2fv1835/jYvNjv4flG+i2M04qnYH4Hq1bDwxs/5uDc1wbXE8nt9Vx8ukQxc5ft2528P+BwM64wm1njo2QE/oOIceOHfJjcg6OiZBC/eEbYLdv3LjI7XrAxh4x4rtebjrr2Jc6iv0PPiNI5LbRse2x0wF7HHu9Vat+fnzKhRCBP1S7dtMc56Vc5+MfUe/4YHv3bvFyIbT06zfabf+SJct6hEduGMKB4NG//x3Ws+eNXm6uJTOzvTvYOPkIVfh9bEe9c16ukTK1bXupix74fbt2bfJ7femld/v1hp3Mp0QOzoE/hJ+CaILvxG+TcvJb4Ny57zn3gO24Ru4f5cBHI6F+v35f9vwfLVv28bJQ1wgN+DixOJVMqFvq6KWXxtnSpUujtedHWg6p4GbzUOLkTp78qD311Ne8pz78wTc+qZzlBT30hCzxQ5g69TnvsXzzzf92x3fIkPuC7+q4avnUU9+w119/0FWzPn2+5Koc+/Hg8aMk7Orvf7/fHn54tD3++L02YcL/BD+2at5g0QChrPEdy5NPft3Pldv55weZ+3icl/NTDsrDAw5cE40m+7z99h/9uK+++ovgmrcFP9rurszSqKBc8qDRYCZGLsRQBrYBlF4MNESPGB5Uwq5Y1qyZHTzsn9oLL/zQnnnmn23hwnddqaSR5MGm4Xn55Qfs+ef/Ndj+1egIp0AIQWlGXZw1a7w9/fS37cUXf+xl4x6SaIaIBq4xd92/8cb/c4GHl0KoBAohhBBCXHx69Ohhw4cPjz6JZIG9jEPYsGEnmz9/kj377Pfcvv3zn++2Dz/8q/c4b9mywj744PGTNnXsiLduPSDYr4M73cCMD6VKlbMZM14O7PKvuF2+desKFxZwgD/++KngHBMDZ36BRwg8+ugdgX377z78Ojc40jiT+BXjx//KHnvszsCOfdV77HE2Y44c2e/DkceN+8+T5Vu4cLL7DC1b9gvKVvJkRyHiAtHXnPell37skQXY30T1hpESjVwMQUw4fPh0+/3w4YPeWXvw4B4XaXCuL4S8bPTx43/pfgACD8LC668/FNj43/chHVwH4g++UG7O1z9atmyKNWjQ0aOqsflxzEOxYLnt2LE2OnpOKDNOO2IGUQYvvvgTe+KJr7q/QqRKnBAz3g5RY9OmZb7dn/98j73//p8D36KGn/N8Ejrik+B/IkDkdc/zgns/ZMi9XuZlyz5ynwpfZ8eODd6hjPiQ6qSl4MDDTsNCI4GySs83TvT69fNcOEAkOBOE/ixf/kmw73RX1eiZD8N8Mm3DhoUeWUC4DQ0NY6Y4F+E2OMk8LKiQnBcV68iRgycjBAi9QsGigeQh4Lv4exrHOIoghuPmPh7n5fyUg/KgGOLgc000AmvWzPRtOC7l46HkoSKMqXz5qkHDvNLeeeePLnCgwOaG46xY8al99NGTLigwTuxLX3rQM8126XK1b0ODyoJ6zIL6hhpKYxCW46C/AGbMeMXrne8TVdhTZPh6lNpTdbrDyxwKKFW9keIac9c9oUnklyB0izIIIYQQQnwe4DiWKlU4iejSmfLlK3u0AmH19PLjUOe0m7N9Hc5dbFNjd2L3x1M9xkkLceA3blzszh+2I0Mldu4kn1i2d8phSx4/fjw4Jv8fC87BeQ4H63Pa5lCzZlO3U7FLGT7BcGY6y+itTuzM2717i9utDCuIy0d5QzGhltu3CB70fuNc4hvQs44NzTUl5jvjOhAB6GXfvz+vIcTZXn46F7HHsbEvjNNtdMqGb0H94idRn3wmQoTIZYSDvKaczMufie/jmfyjrKwF7pMhZtCRSZ3Pnv2a55pYuvSj6Og5QaCpX7+d1zF+H2XknnDecEjDgXy3o+4WLHg3uI8rPBob3+9c4XfEeaiz06+joV8H547BR0NIql27hfs269bND/Zf5+ViqDq/Y6LH+a2kMsVGcMCpJiSFKWKuvPJ7vnTrdp3fpETYjnFFKIA8vPx4aDjo6adx4UeX27HPDeOleIDifREceBBY6G1ndoZhw77t42/4EfA9DxhqIo0WYS+oZfxYYhjPE44/K+PHJTzmbDB+KvfxePhpKHlY+ZGiwpUpE4474kceljl07mlwaJg4N8MO+IEjShB5QOPNg54XiDJr1syy6dNfsM8++7sLD9QrEQ+E3nDeM0E5wlCkjfmeI4Z7wfXE1xaXGSgvURvhNZb3a2ZbtuMB5hq4nxIchBBCCCFSH8K4CXFneO+IEf/s9nzfvqOsQYMO0RYhbIdggBNLaDt2eV7j2HEKCdWPfQNmmMCJD2dJYIaH0PHGdsTWxB/A9sQ+DR3ecOhGQcDpx9bHnsc/QBAI/YrswOdY7wtOdQy2K73TAwbccbJ8REeEfkrpk9eY6BvEHXdEHLMut+CBbcz2ecG1htecHPcvt43OZ4QF6g0HGnudeuB/bHHqMa8ZIOjwPB//aNeuzR6xgS/AEAUEB3wBRBt+D7mJRSaOx34II/g9lJHOTD7zG+JceW3H9fH7YKFcCEHnSnj/DuS4xpzXwcx+p+qIMleqFPqP+LT4Wldc8U27/PJv+JAX1uNn8ltJZYqN4MCN58FlvA3hMCxUfokSORsJtosfNFRKFL/w7xP+mf/PFR7gUFkMp3lBCOD8fCaZx6JFk/2HTAPBtvzYQnUxMZIiPAbwPcvZCM+Z1/HYn+ugES2c6TxpFFaunGaffvp8sDznSiuCC2PoaGwT1bnCJLw26i1MonN6HfD57HUphBBCCCE+X3La0tXcnsYRY10ibIeDGdt/eZnNhPu3bTvYnXiEBxxEoiJCpzvaKIlwTMqErwGJPsUpHyM72C7Dr4+8De3bD/XQ/ETfhYiYGLaF3L7Bqc/h/wgbJHeknoj+pc7ifQG7PK7TMDrjlPCRSLhdWN+xX1LYUM68/RnI3z8K73tYnwUpK9txf8Jtw31DOC9R2fHxwt/W6duFnLqvef+IOA/1z9CJ8Dd6Zs52HeH6cGpSOrDD30klj/hgWAkRGIgxqczZ704RgVD7efPestde+y978cUf+cJ4fhz+RNgOpQo1izB8bhg/Bm4eszjwmZt6LqBUoeSx4HgzPuzll38alePHNm7cLzxbLJEDKIE88DSCnCuGHzpqHOXiexSrs4Ealvt4XAv/4/Qz+wM5ExA6CgoNDMoqjXJeii4NEQ9QYsPPD55QMZRbvkN4CBtzHhAa3rM/bOcL18Y1cq1cc1wHlI/8DeH9VBijEEIIIUSqg+O8atU0z4/20ks/cVuaKdMZEpwI2xHZgJNNbzS2cG67FbGBMfjY5xMm/G9wvJ/6jA7kYcDePh9iZxQ7N7fDicNKD/uePcxeUMrtaSKIsYcRARjSzWf2p8zkk0MIIfwff+HVV3/m+SGIAAYc0fx8AzpYcWo5Fj4E52UYN5EGhNeTOD2xPkgESQ4A9sFexxfCyWVfjoH9zvbYzfgUCBMXq/OQe3g+/hERCFwPERTUGdtSL9j/eQ3dIPKC7Tge9UGENP4CEQVEDzALBzkW8tuO+8j58JGoO2YgBOqc3wX7xscj4j2MzMgtlIVRJtR3TM7ryPLriCFihN8v9cOwDoa8v/LKA5GP+SP/zZB3BF8slSk2gsO5QDgON4+HkXAUQnkYP0TWVH6oealLZwJVKR4TRhhYnMwwN4Tg8APmfGQl5WGOQdFjTBbHIvELWWjPRl7H47ycn3JQHsqFQ15QeECuuOLbnuWV8VS5oYGk3hhPlQjOPgIOIgihTISM0XDxwNNAnGudFhSuLa+657wMZwlfQIUneAghhBBCiIsPogNONvZ7fgkJcdjobGTcO7Y29jWzrZ1vQnGcRTrWyBuQn30ZJyxkGEicmBKbmnD53I4wofXY/nGCSPwSOkABJzs/36BGjcZueyfCbA4MF8f+ZRgKofYxCBt9+owKnPkKnjMC0YHhA/gSONDhlIv13JcgSSYzMYSiSuFzvv4RZaYOcLbJJYHjT6LHwYPv9aiWvKBOySnBOUg2ij+DsILQUaVKvZNCQF7b8V27doN9SA5RIsyWhziAX8l3TPXJdtQbCfkRfnIPdUDciQWhmJzXgRh2Kq9dPNQd34rrJx8gvlhRgycl7abFRCXih8RDTRgT4UxM5cLDxU3mISSZBz+SMFlLdc9eSi86P0i240cW/7iBBgPHl8aCECnG2JBRlUSKTI/Jj2jXrg3eI1+mTNlgm3DKHaaIZNoYZo8gFwKNJwoomUo7dRoWPDjXuTrLeXDmabwYp8S5SXrJcTkm2XA5TjhHcBd/MFGEw6SQFbzcOOM8PKzjPFxX4vEYJsF2ZInloV+3bo478omQXBLFuHfvW3xMHOVjCWedWBmc87Fgn3A2jWrV6vnxaTyYWohGH9UxzqvBUBNURGA4DA0x94NrYmEdDQt/cz+4JgQEGlLuC9dCI8T3JGDhIeQBZzocMvoyawUPNg9qPDZLFD7cX02LmRNNiylE6qNpMUVhUbVq1cBW2WmffvpptEYkY1pMnD569nGmsX2xX5nesl27ywInktka9rszjV3eocNQt1dxqnEwsduxIYmExqFEEECYINkhYAfjCCba/PROs13jxp196kw6upgRgkiGxO3opaZnnDIx+0LHjsOj8fY1gu33uc3KlI1sQ9JLbH6mT2TGgeAUbvNjp5MvDRsXB5ZrbN68j9u4XAf2NOXBNsZ/4P8w38DmYP/Dfj6c49hWx09AYHj77T94tAjbUz9sj/3Mgh+Bb8K1hMfb674GnbSJ/gIONg5ybhudnnpsfvwOZpvg3uS270mcyRCGxO22bVt1Vv9oz55N7vwzFWSXLlf6NeHgk3Bx/vy33Mbn3uDTUaeHDu33SJncMLQFPw+nn/vXps0AjzQhuT+zVHCt+A1cE9vxW+E7fDJ8rFat+nudLVjwjvuGCAKnjtfJj8cMFvhTx48f8XphelMi4LkWkj+SnwMfrEePLyT4UKsCv+jdYNv1vl3itJj4MCT1Zx/Whz7m1b5v7CNeiF+cH/jByZoWk1ignANTUpjMzEybNm2aTZ78kC1Z8kG09vygcaABokGh950fBQ8iN40HiaQlPCT0+LMNDz0OcxhyU9sbExRCto+JFS2cckKmgHAoHPlVq6b7w4CyWatWs+DHGyas4RbQYPJjpAEgpCbMNtrEQ3KARocf/p49W12VpbEkrIYHl5Ce8IfZ2R/c+FqYjmb58il+TRyzZs0mfi2IAggjNLRcV+LxaGgJG+KHz3XxEsjtpKPq5i4f0FDwY49fHOF1hEofKjIPJI0U+9CQQVw+QBnkOlCCaaDIdst+POR85n5Qj2H9NfXj8vBxTuqHbWmwiVThJcO94G8eRBqzuXMnBOef5+cShQuq8pAh37devXoFv9vTZzpJRx544AEbOXKIT6MrhEhNRo/+jT333GR/XoVIJg0bNgzsp0q2ePHiaI0YN25cUCdZPgz5Qjjd9s72DsKNG5e6A47NmWiz4lBim2PTIxBgE9er1zawQeu6c5jbjk20+eNOL46HvY1div2MPZ3bN2Bf7GmOA3SwYZ9jL2PXsh091jjN7AuUK7a72X7DhgV+DVwb23EtccRwfB3Y8/F2fMZ3wfFGQMAvwEkNe+ibuWPMlP1MHUkdQW77mYgCyhgmejzm9cOsF3n5C7ltdHwEzotNj9/EteS27zkevkvu7c7mH7HulF8RRiFQR/g1OOSUl/vDtRKtTsTEmcQsBA98I+qL3wx+CtEKXAf1hI8B+E6J9wj43dDpyfXE5HU8or35neGTbdy4yI+BEMF9QchAgIKwnpnOc5n/Btku9sUQYygPMAUo95HrjIl9ROog2VCOMWOeDt6N99j48eOjtedH2goOonhDY9u585U+UwmKIYIDjaQofCQ4nI4EByFSHwkOQlw8kiU4iDODMNCq1QCP/kC4WLjwXc8ZQY86TroQ+ZFMwSEtcziI4gVj41BVUZxR/lgIg2MYB+og0RIov0IIIYQQQqQLRCMsXfqhzZnzevD3do/8JTKBqAwhLhYSHESRh2iGgQPvsnvuedzGjBnry403/szDrhYseNuWLfvYmAtZCCGEEEKIdIIwfSIbnn76O/bEE1+1GTNekV0sLioSHESRhzFUn376vD377Pfsqae+GS3f8M9ho7rZx4sJIYQQQgiRTsTTX5K3gdxp5AyQXSwuJhIcRJGHpDEkcFm7drYnlgmXWZ4RFgU3TowjhBBCCCGEEOLioaSRQoikoqSRp6OkkUKkPkoaKQqLunXrWvny5W316tXRGkHSyBYtKnpibyFE6kDeD6ZuJQ+eZqn4nAUH5r4tVaqcT70CzKvL1DSpBlOvMCVPiRIlfeoUyqkwKlGYSHA4HQkOQqQ+EhxEYXHVVVdZ48aN7eGHH47WCASHoUMH2v79O6M1QohUgGlW589/y6duleDwOQsOzPvbqFEX69//9uBTts2bN9EzwKYarVsPsK5dr7FKlWrZrFnjbMGCST6/rhCFhQSH05HgIETqI8FBFBY//vGPrXv37nbDDTdEawSCQ9WqW+z99/8SrRFCpALZ2Sc850fFijU0LWYqkJFRwoUHpmUkgqBUqbLubF122Rh39M8F9q9Ro2Gw79fsy1/+vd1zz19OLrfe+uvAebvZqlSpY+XKVbLLL/+Gf65Tp3m0d/5wXMpHOflbCCGEEEJcPEqWxBaTDZab48ePeR4uLVq0pM5y7NgRFxySiQSH84QbsX37Gvvss7/btGn/sPXr5/vLpGbNRlavXhurXLlWtGXBKF26nHXsONwaN+7i4WULF75zcmH+3M2bl/s5q1XLtAYNOlqNGo2sTJmK0d75s3nzCps581X75JOxnkSR8ThCCCGEEEIIIURhk7aCA7kXmjXrZZ06jbAuXa7ypW3bwVa/fhurXbuZtWzZ1xo27HgyRwMQgdCsWU9r0qSblS1byYcm7N+/ww4e3BM4/+WD9d2DfTq5KMBwi44dr7DmzXtbpUo1fR+iHzIz20VHy0nJkmWCbbr6/6tWTbdPPnnm5DJ9+ku2efOy4Lj1rX37y4L/63l0Q8uWl3gkBeWl3FxP8+Z9gvX9rHPnEf5dqVKlozLudsWK/A116rTw62D/du2GBNte6dfPsXOXj3NyvFN1NMhaterv56pbt2VQ3lLRlkIIIYQQQgghxCmI7yoygxUrV65s9913n61e/bFHF5wviAMIA5deerd16DDUhYLGjbtarVpNgm+zrXr1BtEQhrq2a1eW7d271fdDkOje/frAKW9rW7assPLlK1v//rcF+/dwUYH1LVpc4tENVasiCrTw9Tt2rLfevW8OHPrLfdjFypWf+fESIcIBRx4HnsygO3asdYEgpnLl2i4SdO/+BRc0OC7lZT3TPiJWIBywDUJJq1b9/DqIiuC4HTpc7gkjt21bZV27XuviAaIKgkjz5r1cnGjWrLcnmGR6SSIhGL6BING37ygXIxo16hxcYwffnvpjmEZW1iJFTYgc8Lts1qy/PfbYY8Gzszdam94MHjzYOnZsZvPmTYjWCCFSDYT6+fNX23vvvRetESI58A6oX7++Pfvss9EaMWrUqMAe3xvY9DOiNUKIVKJs2YrWs+eN9tJL42zp0qXR2vMjLSMccMi7dLnaIwXef//P9uSTX7eHHx5tzzzzzzZjxivnlVRx69aV9vbbf7Lly6d4Vs8PPviL/fWv99lrr/3Ks31u27bGtmxZ7kJCXuC0b9q01KpWrWudOg2zNm0GRd+E7N690RYunGwffviE7dq10bOHvvLKf9gLL/zQFi2abEePHvZ9K1asbmvWzLRHH73D/vGPH3hZ8gKhglk2Zsx42R5//F57883/Da5hhdWr19pFBgQQysDfCB/jx/8qcCDvtJkzX/Exd5xLCCGEEEIIIYTIj7QUHIhcIAoBB3/16pm2d++WKEnGYTtx4li01bnBUIXjx8MkG2T3PHbs6MnEG3yePXu8ffDB456PIS/YllkkyAlBOS699C67665H7YYbHnARgONTNpz9OHsoxw7LHCb2YNpLohNWrJh68nrYNi/YduPGxbZw4bt24MBu27Ztte3cuTH4JttFCxJi0lNdokQpy8pa6McN91nkwzv4WwghhBBCnJlZs2bZO++8E30SomhBJyUz3t188y+9w5ah1n36fMmuvfbffSg2keNCnIliIzhUqFAtmiHia3bllf/iC8MPwmESp2A7ZntgOMCOHRsCZ3uXO/GFze7dm32oxL59O6I1OUE02L17ky1e/IF99tk/gpfTeB+2gdjA8A6urWLFatHWecN1IB7s378rWpM/RFQcOrQvKM92FyUQKFiys5nys6w3LpUr1/FjUi4EBkQP6owhIocPH4iOJIQQQggh8mPGjBk2YYKG1Inkgo/DEOn+/b/sfxN9jL/AUOgWLfq6r5MMGMbN8GyGi+MrEHVNNDhJ8sntxtT7qQZlZjj4wIF3+ZBw6ob/+cx6vhcXj2IjOJQoUcKHAZQvX8UTPbKUKVPBe+gTYTt67yHs/Q887AJSunTZ4OEtHX0qHHbuXG+LF79vn376vA93IPKAhJMkaWQ+1ItBRgb1VDL4P/gjIDFKIjs7jOA4l3oTQgghhEhX1q9fb0uW5D3EVaQfCAHkUOvYcZhHDMQLudjIkUbnaEFAACABPAnw+Rs/gZx0HJfh40yLf6FQFnLS1azZxCOjt25d5cuWLSs9aT558Eiqj49UEGrWbOw58eJr5m/WJZKZ2d7atx96Wt3gCxGlXhDwB5s27Wldu15tdeu28rrhfz6znu/FxaPYCA5EDpDX4PXXH7QXX/yxL1OnPutRAomw3Z49W7znnhkYmG0C5zqGHn6+ozefB5UFx5twISIjCvIDRdCI943hgSVqgKSMuWF7ogpCgSQsCwoikQRMZUkkAo0T2wDlYTvEk8LgxIkTHtWwd++24BpK+XVz/ZyXBo1F4VNCCCGEEEIUDPwC/AEiA+hpHzToKz6EmoXPAwbc4UnfsbtTBSInGjXq5H4HSe/379/u64l8xseqVKmGb1PQTlGu/ZJLRvtwjOuu+5H163ebr+P4JKtn2n8SFQ4efO/JumEZMOBOT4CfW5wQRYNiIzicC8w6wVSRKGgogeXLn5r6kh58vmeIQ9WqdVy1o4Fo0KBjsHQoUNhQmTLlfN9EFY7hHTQshDrlpmzZCj7NJVNpJpYFZx81juMdOXLADh/e7+uJ2kC4IKKjMIkTXHLdXD/1UL16Q68ThBohhBBCCCHE2aHDjtnuvvSlB93enzDhf+zhh2/z5ZFHbvPk7OR727x5ebTH5w++Bh2e+Ebr18+zAwf2+HpmvgvLmeEiQUGHKCxa9K69884fPYceyfTfe+9RX0d9MGzj1lt/7UMfpk9/6WTdsDz22B1eX2vWaFaTokhaTotJngPGHuHkE4rE1JidOxNi092Fhk2blngPPiFErVuHU0q2bj3QSApJ5AEhREQeANNRIgAQXkQSSpxyRAIelmbNengOBvJEMO0k63lAV62a5vvGEL3AVJe9e3/RunW7xhsjBArCh3DwmYWChZkwUBTr1m0ZHLeVh2MhBiBMED1RvXqmRyYQ8kQZAZW0fv22RiJIysfDTbgWU2YS7bF8+Se+HQ86iV+I+tixY13QqMy3Xbs2+PWgPLZrN9hnz0Cg4VhcR7ydpsUUiaB0a1rMnGhaTCFSH02LKcTFo6DTYoZTuw91u5Wk5WcDu/uKK75ll1xyq/Xocb1PBY99j9OMDcvwA2xy7FpyH2CrMwU+Q7HZdujQr/t+2OHY2GH+snV+bPbv0+eLduml95zchtnc6ATct2+bJ3PH5u7bd6RPPc9wAzobO3Ua7j34tWo19bLQ0UiS+LVr57i9TlL4eImHLbPtwIF3+tKjxw1+LnwW/JPt29f5tnQAcr3Y5StXfurJ4vFdEm15ruFCyly7dnP3Xw4c2GlLl34UbH/I6wL/AN+hadMegW+yx/0gys3x2Z88cIcP77X9+3f69jHUJ1ERDBfnWpYt+9jrn2shHwW+zIIFk/xcYQfwqbrBR2N/pmvs12+0DRhwu/tOnJP7Sj2wD5Hh/M2116jRwOuB9fhKRGvs3LnBE+Lzm6Au+L307HmTH4cyUB/4bixEVDAMo0uXa9y+5dr4m47leJviSjKnxUxLwYGHC8edoRUkcsSRD8cjrfD/9+zZHPyAdvsDQA4FvseJX7XqM1u3bo7/SJnmkogDHiQEClQ+oibC4272Y23evCLYbqWfg+OxjuMwrWUiPDwM4zh69EDwEMTnDMuzZs0sb0SINiDKAcGDc27dutrFA7bZtm2VH5NyZmUt8r+5xvDYJ4Jz7/TycW7KyDEoEzNOxGWhDJQ9vlbqhuujISQ5DOfnO+oEgQTFkyEfEhxEbiQ4nI4EByFSHwkOQlw8Cio44JjS8YWdik18JnAUO3a83PfBHmZBpMBWpkOO4+C0My0+tvTq1dOD71YG9u4Bd5xJtEjnIkMHgtO581ulSm23o9keRxkn+8iR/bZhw0K3m2vXbmoVKoQdcdjW5DpAIOFcDJnm/NjVOLx0dNav39r9BKbhZ11inrQY7ChyGxAVjbjA9PqcC4cZQeHgwV3Bsjv4XOusggNCyvmWmf+JysDpZjum3U/0Lxhq3aJFH/+M30Ii+tq1W3hd4jNQ7/g/uaFO2Yah5Mysh0BAp2e7dpd5OefNm+idpPhGuQkTWPbzvA7sF/pVG/w6qYujRw8H59zlnbFnExyIaidynfwTfKa8DOugDhEjNmyY7/vwmyF/BN/h/+H3sfCbogO7uCLB4QIFB+AHgmPPQ0yIED/GUDTY6Q8RjQuNUPjdPP/R8TCx8BAfPXrQFx5AfnxsT2PIw8s2HJcfL3/juLMdD25usQE4H/tx/lPlCcsUiwTxQ4e6x4OCWBCXmVwL/OgpL//HjQFwnWzPgx9fGw8d5UosC/vEx0BsiBtAGjQewLhMnJ8HkQdw8+alfo0SHEQiEhxOR4KDEKmPBAdRWNStWzewneoEdlfx7Q09V/ITHHD+iGYg8gAnlKiCWrUau/ND4vbatZu5o4tznWh/EjVA5AIRETi+n3wy1nvJmdYdWxnnFAe0fv02bg8TOYzTj22OA86+OO5z575pM2eOd7seR5yIYmxk7HHsfmadwx7GUca2JhKB8tKZhyBStWr9k733WVkLPJJh1arpgf18ws9fs2YjL8+SJR/68fKCKANmf6CDb8qUsUFZ33P7nM6+5s37uI2OD0OdnE1wuJAyI04g4iA4cD6OEdd57CdQHu4L5aOjlbqig5R6x/9I9ElicgsObF+/frvgnvd0n2r58inuk+QFZSESgQiDOXPe8IVy4e8wXSdlCYWAA2cVHBAm8NE2bVrmvxU6lalzIjqoQ+qAMmZmtvX6QtigbogOp5zFWWyAZAoOaZnDQRQMGm+UTRp3QqpYUPgYq8WDjGBBAyqEEEIIIfKmR48eNnz48OiTOBM4eIgChMqTKLBNm4HuVDMUgcSKJBkM86/lTOKOM4lTyDAAHEyicHGoc4PwkJW12LeJYVgzPf5sz/c1azLrQjnv7KOnG7uX4x46tN8dVIYTIEaUKVMx2OdwcASSy1cMDxZA5xwdjQyZwNnncwzHxJGnkzIvODbDEbg+evnpSY+HMXO8OMw/8Xxn4kLKXK5claAclX3fvOAa8Afi66Oc69fPtQ8/fNyjIbjOcyGOts4rsgG4B+XLVwvuR0MvK/WDuISARFQKUeIkryQSpSBQduoTEQUhCD+H+856nG0iYfiMr8Pwk5Urp0Wdzqf/rsSZkeAg8qVJkx525ZX/Yvfd95SNGTPWlyFD7gse+BIe7oQ6rIdOCCGEECJ/JDgUnP37d9nChe/a009/2x599Ms2efIj3sNPzzKJFR9//F6PTMjdA47zzILTSnRu3ANfEIgQoMec3vpbbvmV272jRv2vdet2rQ9HiGFIBLMn3HPPX07axeRHYOhFQSGCA0Ehv5nmqlat62UhimPPnjCJfQyOMddGmQo6Tf+FlJmhH7t3b8m3J5/hFwg1JUuWidZcGByP3HP5TbHJfaLcpUuX9+juUDgJ4X4TlYJAULp0hWjtmeF4DOO47bbf2le/+jevm2uu+Xdr1qx3tIVIFhIcRL6QGPOdd/5kf/vbN+3JJ7/my1//+lUbP/5Xtnjx+zkaQSGEEEIIcTolS5b0RRSEbLcvCcXHoaS3m8/Hjx/3zwwbCJMr5owQoFeaBUedhIg4rwWFPAM4sPTKjxv3C3vqqW/aE0+McXHj2Wf/2aZM+ZtHBxB1QeTvtGkvnLSLZ84cd5r4kRdx3jgiDohQYPgpQxhyg8hAWbi+ypVreq9+DJEGXFsYBXDm4czkMGA2vgspM2VgIcqDfBGJZYkJqvuCof4ZKo/AEeaMaGJMH5obtqPcdHYSxcDwh5hQ/Kjqv4/8hqokgrDRocMVPjEAQ0Gef/5+r5u33vqdrV175lwh4tyR4CDyBRWVsV6EVzEWK14Y70ZeCSGEEEIIIT5vCK0Ph/oePznrGo5yQWA/wvIBMYN8arHNGw/PYKgH093Tk07SdvIGsA8iQEHOgyNMHgQSvRPF0KnTle5c54btECcY2lGnTksP8+fcXE+DBu3dESesn0SXZwIHHHHiQsoMJNEkuSJDFRJFHPYnFwNlIwICESAcDtPWRY6GDTtaQafQRzxhGAf+BiIM+TQYVpMbtqP84awWjTxfBVEKCA0MsyEXBd/H9/JMhCJK7WDfKn5/6WTl/nAOhlOI5CLBQQghhBBCCJFyhMkP57rDfCbo9UcoILkjEQRMk9i16zWeDJaZFOihzy/qgd519iXXQevWl/q09MyC0LnzVcHngZ4bgnB9xvHjqDL1Pd8zhSI95QWFa1mx4lPPy8C0+h07DouOEx6rffvLvOz04pPAkPIyPWXXrtdat27XeaJFkh+SaJPynIk478CFlpnORxZmh8BBj4UKnHJyvDFzA2IPuRDIO0HySabxJOdGpUrVfdtEuL7Gjbu56IJ40qhRF1+HSEACydWrZ3p9t28/NKFurvZIBMQMhI1ly6b4/W7evJfXDUvnzsNdrEEgIink2SAahrpBuGGYRseOV/jvBaGEYRnnMiRHnB0CYfLOWpKCZGZm2rRp02zmzKc8c6gQInUgWRDTqDZv3tuGDPm+9erVy7KysqJv05sHHnjARo4cYmPHfidaI4RINUaP/o0999xkf16FSCb8prp3727XXXddtEaMGzcucEizPEdDMiG64dJLv+KJBRnGEs4wsdRnnyCfAQ4l02UuWPB2jmEFRBAwwwWOPb3sDM3AaWcYBDNMMYsBzjqzR+AQM9SAnn2ifnFOd+zY4DNjcH6OQVj/4sUfBP7KtOgMISRkJ3KB5JccJ85XwLmIHp4+/UX3cXDoET44Hw4wUF7ypzEzA+dGRGD6TK51ypSn3Q5jpgbKwPAQtouPcb5l5jvEG6IOOAf1gOiBSECOi3bthnqZFy1614dcxNsykwNlJbFjIgxjYJYJEjLCrl2bAr/u1eB+TPL9uZZevW72a0uMNEDQIJcH9w0BhHvRrt2Qk1EiCBEM9+Y+E7HAcTp2HB4cp1NQD68bM+4REYF4sW7dPJs/f6JHbSDoxFN7MmwH8Yn7QHTIp58+F6zN8GkxOR7H5/rTJX8dAtOYMU8H78Z7bPz48dHa86NICg5169b2B1MIkTosWPCWzZjxqqvdEhxyIsFBiNRHgoMoLCQ4nE5hCQ5EBZC/ABeH/AKBj+3ONUMt+I5kjfgQDBPAAY9BYMjIKOlOb5yXIPw6zCnBwnfh9+EG8bFDsgOH9Vh0jjDXAfvk1VOeu4wxlCc81wlfH54rsTx8z7WEszjE56I84cwO2b59fI1sd6FlZthEmzaDrG/fkbZ8+VQXF5han/wQgwZ9xSNH3nrrty5wQFxm6jes55zXf3p5TtUvsL5EiVJepvi6gXKHZQvvG9twnTmvKzwO34fH4TzURXhN8XXyd3i+cJs4gSfHCP49uX9Yp5SZ70sE60+VMx1Ie8Fh/vwXfFyVECJ1CMMNt/v80RIcciLBQYjUR4KDKCy+8IUvBO/GJva73/0uWiMKS3AQyYV8Dwxl6NPnS1a3bsvAD3vRhywQOdCp0zBbunSKixDkPxDFi7QXHCZPfsiWLPkgWiuESCXatLlUgkMuJDgIkfpIcBCFRcOGDa1ixYqB7bokWiMkOBQdyM1Qr15rq169oW3evNyOHNkf3LuaPkyDoQpbt6724RyieJFMwUFJI4UQQgghhCgk1q9fL7FBFFnIz0VeiZkzX7ENG+b7kIrw86uepFFigzgbEhyEEEIIIYQQQgiRdCQ4CCGEEEIIIYQQIulIcBBFBqYzuuSS0XbTTf9pLVr09bl7mVboiiu+7dlySWwjhBBCCCGEECI1kOAQQQZWnNmrrvpXX5gjtlatJtG3+YPj27v3F30u2POBeX+Zk3bIkK/6PK8VKlSNvik6MAdux47DrG/fUda4cVerXj3T5/Pt2fNGn+84WdSq1dRnQKhQoYrPx8s8wEDWXOo/nss4lahYsbr/Rpg6qGXLvn5/+a0xx3DPnjf5XM9CCCGEEEIIURyR4BBQtWpdd/aZ3qVBgw6BU1jdHUHmeD0bbN++/WXuCJ8PlSrVsubNe1r37tcHznkHK1u2UvRN4VOxYg2fUaBLl6usa9drfOnS5Wrr2PGKwIlvFdRBhWjLM0Om2mbNelmHDpdbvXqt/Jpat+7v8/bWrt082urC4B5RpvLlK9vatXNsx451tmtXlm3fvsaOHj1oTZt2t2rVMq1UqYKJDogUbdsOPnnN7dsPtZo1G1vp0uX8e6IliKDgmuK6iZemTXv4vMMFoVy5yv4bYb8GDTr6/eU8nLtdu8FBecPzCSGEEKJ4Urdu3cBOahZ9EkKI9EKCQwA9zjiFx48fs88+e95effVnNnXqcz7VS2Fz7Ngh27t3mzvO+/fv8jIUNjjlTHXSvHlvj6wYOPAuGzDgjpNLnz4jrXHjLu4spwoMmahTp4UdPrzfVqz4LKi3I76eutu1a5NVqFDN7yFT9xSERo062yWX3OrRLNde+wPr3//LwTnaBddcyY+BuHHJJSNt8OB77dJL78lRP0RTIG4IIYQQQpyNnj172vDhw6NPQgiRXkhwiKCXfM+ezbZ58wo7caLwnf4Y5rP94IO/2tNPf9tmzHg5cKC3RN8UHuRCGDz4Prv88m/Y/v077amnvmEPPzzal0ceuc2efPJrF60sBQUhAHbu3OBT8hw/ftQ/IzgQ7WCWHVxXy5PbnQ2m8vnooydt6dKPXex5773HbPnyqf4dESs33/wLFzmmTXvR/va3U/XD8tZbv/FpgIQQQgghzkaPHj1sxIgR0SchhEgvMoIlO/wz9cnMzAwcwGk2efJDtmTJB9Ha0yldurx16DDU8yMQfr9y5WfRNzkpW7ai519o3XpAlK8hw8P0mV92ypSnrWrV+ta58wgP54/ZvHmZLV78gS1b9rF/pvebEPtSpUrb0aOHfShGRgbH2Rg4sFNs9uzXfbuuXa8OztHMQ/XpjadsOLrr1s21EydOeBk45ooVnwZO9FarV6+155Rgu5IlSwXbHHdne8mSD23//h0e6k+Pf6lSZSw7O9uOHDlo8+ZNtFWrPvO/cZYp+44dG6xSpRqe/4B5dJlDl0iAZs16urDy2Wf/cEf72LHDXs7cIE5QtlatBliJEiX92ojEoE4//fQ534bjMSSEbefNm2AbNy6xfv1G+3CBhQvfsblz3/SIAergfMvM8IyaNRsF9TUnuP+P+nmB+uRahg79RlDnG1y8OXBgZ7CutwsH1PGMGa/Ytm2roz1O0aJFHx/qwLCPSZN+Zxs2LPDysY68C+y3aNG7QXnWnxQ4EiFKhLwM7dtfbuXKVQzqpoQdPnzAI2Pef//PdujQXh8+QY6Obt2uDX4Lr3ldUF/kuODRe/HFn/jvgeEVzZv3Ojmk4+jRQ0EdTwvO/15w/rX+O+jc+arg+zLBvTrmuTH4XfAbW7r0o+CcK32/VIBhOkOGfN969eplWVlZ0dr05oEHHrCRI4fY2LHfidYIIVKN0aN/Y889N9mfVyGSCb+p7t2723XX8e4XMG7cuMDWywpsukeiNUKIVAI/Z8yYp4N34z02fvz4aO35USwjHEqUKOGJDGvWbOLOXH7gRGZlLQwc5EUelr9790Z3+Fno+T9+/Ig7m/PnT/IFEaFWreaBQzXQjx3neMDZZGw+QsDixe+7YFGlSh130gndxymuUqVe4AT3cOcYcBJxKHHeKSvh/PyPM84QD5Iwkg8B5xVxZcGCd4JyTXXRAejZX7NmtpcLoYI8CuRNqFOnlZeL/AwNG3Z2sQBhZc2aWYFz+okP2ahRo5E7tpQTQSYvZxooT4sWl/jQC4YyUI5Vq6a76BDmvBhx0kE+G4gV51PmZcs+8npnf8p54MDu6IghrDt8eJ879+TeoP5w+hFQEIr4jBBQULhP1as3sn37dnh9ce686odkkCTI7NhxuDv+cf3yuyGfBKIF9VcQ+L1S/qysRSd/a9nZ5kIWx6K+EdHq1GkW1Hs//61w77gf7HPgwJ7oSEIIIYQQQgiROhQbwQEHNTOzrfcm4wjXr98mcBwbuMNGUsR27S7zz4lJBckDgLiA479t26pgWeM97vPnT/QoA5w6eqSnTn3WlwUL3g4cwz3eI167NtEKJf04GRklAwd1u4fp0+tP1ABCAb3SCAw4vcC5cdzpNf/00+eD87zlPfCJcB2NGnXyHAo4u/Tuk0+C486dO8EjLIjCwNmcNu0fXi7C/llPXoHatZv6MQAn3eyEh/9Pn/6CzZnzms/uUKZMucCJPhIcZ5N/zs4+4dvnhqiPBg3au7O7cCFl/ruXY9WqaR7JQXLJKlVqu1hwJjg+wzPOp8xEiCDkAGIJkRC54T6yDfXL/jjvGzcu9nuJCEDEQ0GhHFwb9596JtIgL6pUqeuRCkRd8PuZPv1lv0+LFr3jZSS6gt9IQQQZyoeQM336S143LGvXzvJyID6VK1fFRQeEE8Srffu2+e+C+8G5+SyEEEIIIYQQqUaxERxIcNi0aU/r0+dLngywSZNuHh7ftu0g69//duvV6yb/jLNdUA4d2uc95ezHgrOH08v/9HDHPef0sCNOrF49w51fnN2srMW+LcMCYoec4QEMNyAKIr8hDMx+gDCC44zTTYRFotPL8At60Tkn10y5cHopK04pUQIMRwi3PebloBecHvtEjh49EjjGB6JPeYMYwDl2797sQz8QKTgOeSeIBkFQIVoCx/hMXEiZ+Z7IBYQAIgnygnrmWInCyfbtaz1HQzgEpeCCAzB8hbph2Ed+UN6qVesYERcM80C4QejYunW132OuqUaNhla+/NmnOT14cG+w7x6/vvi3xrVQF0wBSqRGKMSQwyLLo1IQtC5mrhEhhBBCCCGEOFeKjeBAwkd6hp966uv2+ONf8SgDwvEnTfqDPfro7fbMM9/1YQznEn7O+PwbbvgPGzNmrC833fRzYzrDgvRak4QSoQBn+VxC+suUoYe9oju7Bw+eHn1AVAV5Aa644tt2992PernuvvvP1rv3Le6YFhSSKyKanAm+JzqD6A3yCOCIA9fGsAUiCnCoEWDOxIWUmXNybsoQz0yRm9Kly0aRFqFTfqFwzWe7bwyhQTxBRCIyJhZvGH5x8OBuL0vZspUL9FuhDvr0GWW33/6nk7+1wYO/6nk8hBBCCCGEEKKoUmwEBxx0nFOcUhb+pmcdBzBeFzrvBcuRyRj8Tp2Ge6/1uHG/8Jkcxo//leceyC/MPhEcTRzhvESDM4HjykLPfhhKf+oWEUlQr14bGzTonsAhrmZTpz5vTzzxVU9Ex3COPXu2RlvmTei8r7Pt25nVwYw8FPTC5+eo02tP/SE8xFEXQDLIMmUqeJ3icOeV4yDmQssMcaQBUQ755+Qg/+mFw/CEPXu2WLVq9TwxY37TbDI0hqgKRAfqMI7yQHxhH+qaiI4z/VaIfGHfXr1utgYN2vmQE+qG5eOPnzRmTBFCCCFE0WbWrFn29ttvR5+EECK9KDaCQ7JhjD693PSsExlBUkAca4Zk5A7txxFmiECcILJu3ZY+KwN/E9p/LqHvOLzkDsBhZdYGhi3EeSdw+IlMqFGjsUcZkAOB4Qfsg+N7tkgDHHcc4HC4wnYP3T9T4kdyPCC40APfsGEnPz4OP7NRsG737k2exPLMTvWFlTkGEYZj5SUA4LhzDxAB4rpGIGEGEmaiqFDh7MMaYhiyQBmpk86dr/QEjUQz5IacEeR54NjcdyI92I7fAfcesYb7yFCJ/Mnw3xP3mGtjJo316+d5GaiXcxn+I4QQQojUZPr06TZhwoTokxBCpBfFUnBgTD9O49q1swOnb2O09tzAmcTZZkoQZk0g8WSTJl1dhEAMSAQhAkecqAiW7t2/4DNMcIzVq2eeMQIgN/Sab9iw0J1ynFec3m7drvH/yVGBc00PPA4xeSo4HzNakFOA2Q4KEsFBjolwhowdJ68tLjvnad16oOeSwGFev36Bl4mZOdiO6RyZPYE6XrLkfR/Kcqbr4zucb8SJCykzAgXHYmYLyhZHfiA0cI8QLzjHkSOHfB3JFikr10c+hdwgCjVo0NGqVyfPQhVr1KiL56wgIoWkmIhMJH1k+lGmtKTMXbpc7VEvCAqIG+TYIGcD18R6tmNKSI5HJAx5PfJKchlD5Av5G4jyQAxiCEWXLuF9IPoE0SGO7hBCCCFE0WTDhg2BXbE0+iSEEOlFsRQcSMhIYsZp017wHuOzgfOIE4/zHA69yA5eDgts06al7hQPGHCHL/Ri40QiZtBzzXbMMMA5tmxZ7kMH+vYdZS1a9HVHkxkS4kSSbIf4geOcCE40SQ0Z5sD/OPIcb+7cN7ynu1Wr/tanz0jr1+/LngCT71eu/DQ4t7kzTZLM5s37uIhAskKmniTiALGE4RN8PnYsZwQCUQnMxDFr1ngvJyH98TX263ebCxw439QJM2osXfpx8LmBlwOnGnEFp3zGjFd8f87HeSgvQyz4TKJJBADWE+WxbNmUCyozyTM5NpEnRH7EkRFMPYkAwPAVEikyjAGHH2GIiAqiQ/LKxUBUArOBEH1B9ASiAU4+YhIzRrz77v+5oFC3bmvr2fPGk/XTt++tLk5w37gPM2a8dDIagu3YHsGI3x71nNf95fdG0k2+R9ThN0KCTMrUv/+XXYzh98JvkO/5PbPEdUo9CSGEEEIIIUSqw8D3ItOFmpmZGThy02zy5Id8vHuywCENe9rDPAcICeE0hCVProfE3uZwFoHjwfclfVuqMvw/hG3jbSDcroSvTxxiEZ6nRLCUDL7j3Cd8m7BM8bFDwn2PR/vwXfRFQJgnIiPaP/yb/cNyhNeUE74Pz5Gb+DwcJy5f7u3IjxFfx6nynDp/uD2fw1wa4bWcf5lJOtmjxw0+XSjRB0wriuOOcNG169U+POTtt39vRGQgOsRlDq/lWI5jQVge6v1UgbhmyhqULFgyjKEzid/HxHXDIfk+9xAbzoWwwHHCusl5f+PrBLYrUeJU/cWcKm94LyDc51SdpipEeQwZ8n3r1auXZWVlRWvTmwceeMBGjhziuUuEEKnJ6NG/seeem+zPqxCicBk3bpxVqpQV2PSPRGuEEKkEEeRjxjwdvBvvsfHjx0drz49iGeFwruAE4vixxI5e7KjGCSdZ6K2Ol9gJ5P9w31PJKeNt420g3I51OfM5hOfhuzDR5anz50x4GR+T9fH2Ob8LyxAfI94/L2c7JDxv4jFOHSs8j28VlS/3NonXEW6T8/ynyhMe50LLTO8+Pf5ECeDQNm7czSMNyNHA1JwMXSHJItEKiWUOr+X06w/Lk7N+WUe9hHANOb9P3C48Zljm3N+zX3ycuCyJ9ze+zng76ij3ueLv498kS+46FUIIIYQQQohURoKDKBIwpIAhDtOnv2jTpr1oO3euN3JkrFgx1aMd5s2b4LkiQtFACCGEEEIIIcTnjQQHUWQgfwG5IGbPHu8zOpDfYOXKz1xsIPohjBgQQgghhEgd6tWrZ82aNYs+CSFEeiHBQQghhBBCiEKiR48eNmLEiOiTEEKkFxIchBBCCCGEKCQQHIYPHx59EkKI9EKCgxBCCCGEEIVEOCuYTG4hRHqi1k8IIYQQQgghhBBJR4KDEEIIIYQQQgghko4EByGEEEIIIYQQQiQdCQ5CCCGEEEIIIYRIOhIchBBCCCGEKCRmzpxpb7/9dvRJCCHSCwkOQgghhBBCFBIzZsywCRMmRJ+EECK9kOAghBBCCCFEIbFhwwZbunRp9EkIIdILCQ5CCCGEEEIIIYRIOhIchBBCCCGEEEIIkXQkOAghhBBCCCGEECLpSHAQQgghhBBCCCFE0pHgIIQQQgghRCFRr149a968efRJCCHSCwkOQgghhBBCFBI9evSw4cOHR5+EECK9kOAghBBCCCFEISHBQQiRzkhwEEIIIYQQopAoUaKEL0IIkY6o9RNCCCGEEEIIIUTSkeAghBBCCCGEEEKIpJMRLNnhn6lPZmamTZs2zWbN+putXj0jWiuESCWaNu1h3bp92Xr16mVZWVnR2vTmgQcesDvuuMZef/3BaI0oCmT72zHbMjJ4VYriztVX329PPvmaP69CJBN+U927d7frrrsuWiPGjRtndeseCuz6f0RrRHEm21+oGcH7NPwsUp+KFavbLbf8l40adYeNHz8+Wnt+FEnBoV69usEP90S0VgiRSmRklLBNmzZLcEgAY/MnP/mJnThxLFojigLHjh0L7lm2lSlTOlojijMlSpSyn/3sZxIcRNKR4HA6CA5XX311YM8fj9aI4gpiw5EjR6x06dLKZVKkyLCSJUt5u5VWgkOZMmWsc+fO/r8QInXhxTJ37lz/X5g1atTIF1F0+OlPf2q9e/d20WHz5s12//33286dO6NvRXFl3bp1vgiRTDDYmzZtar/73e+iNaJt27ZWo0aN6JMorvAe5X0aiw7PPfec/f3vf4++FUWBRYsWXbD9U6QEByGEEKIwqVChgt1www02ZswY27Bhg0fpfOELX7Af/vCH9s4779jWrVujLYUQomA0aNDAKlasaEuXLo3WCFH8YTrY0aNH+zv0j3/8o9100022cOFC+7//+z+bOXNmtJVIBxTXIoQQQgSUL1/eWrdubXfddZcdOHDAXnnlFQ/73bNnj91yyy3WuHHjaEshhCg4iJcSG0Q6Ubt2bRs6dKj16dPHPvjgA3viiSds1qxZ1qJFC7v88sujrUS6IMFBCCGECKhbt66NGDHCQ32JZvj000/dUXjzzTetb9++1qFDB6tatWq0tRBCCCHygjxevDcPHjxojz32mO3fv9/ef/99O3TokA0YMMCjfkqWLBltLYo7EhyEEEKIAKIbvv71r9v8+fPdMFq9erUtX77cQ0F37NhhX/7yl9UzI4QQQpyFkSNHWpMmTTy6YerUqXb48GF78cUX/d3asmVL+8EPfmBVqlSJthbFHaQlpWMWQgiR1lxxxRV29913W82aNe1f/uVfbN68eTmSnjI1Zs+ePW3fvn02Z84c77URQgghxCkQEf71X//VBg0aZG+//bY98sgjtnv3bv+OxJGlSpXy4RZEOfA935GcWRRvJDgIIYRIa8gef/PNN1u3bt186qdXX33V9u7dG31rduLECduyZYsLDvTYHD161EUHIYQQQoQgNjD967e//W1btmyZ50HKnRySoRVly5Z1QaJSpUoeRbht27boW1Fc0ZAKIYQQac3gwYOta9euPiMF03WRMDIRel8wiiZOnOhjTq+66ioXKeipEUKIs1GvXj1r3rx59EmI4gl5GW688UarXLmyvfvuu3kK84gL06ZN8zxJV155ped60PSoxR8JDkIIIdISxIOGDRv6HPnlypVzQYH8DUQw5MXLL79sM2bM8CzbV199te8jhBBng+kBhw8fHn0SovhRrVo1/51ff/31nrdhypQptnHjxujbnKxYscIeffRRH6pIpEP79u2jb0RxRYKDEEKItIQZJ37605+6sfPWW2/ZX/7yl+ibvCFx5Ny5c324xVe+8hWfV18IIc6GBAdR3Bk2bJi/F5lG+j/+4z9swYIF0Tenw0wVa9as8QSSl1xyiU+dKYo3EhyEEEKkHYRwDhw40IYMGWKTJ092w+f48ePRt3lDwiuSXI0dO9aTXn3ta1/zaAchhDgTJUqU8EWI4ghTRjM0kai/3/3ud7Zr1y5/X54JhIlf/epXtmrVKo9yIDJCFF/U+gkhhEg7mjVrZnfccYcbPQgOixcvjr45M9u3b/dxqSTCuuaaa3zMqhBCCJGu8C5s27atRzVMmDChQLM4kRtp5cqVPvSCnA+I/6L4IsFBCCFEWkHytqFDh/qsFMwLTgKrnTt3Rt+enXXr1tkLL7zgU2gSJcGc4kIIIUQ6wWwTTG952WWX+TuUWSnWrl171mjBRIgaJMqhY8eOLjpwTFH8yAiWM8e8CCGEEMWI22+/3b71rW95kqv77rvPoxbOFYZk/Pa3v/Ww0T/84Q/25z//OfpGCCFy8sADD/h0gSSoFaK4gOj+pz/9yXr37u1JlZ944onom3Nj9OjRPrvFkiVL7M4779Q0mcUQCQ5CCCHSivvvv99+9KMfedJHwjrPNtY0L8iuzbSYzCn+i1/8wh588MHoGyGEyIkEB1EcYbpXprckyo9Zn84lsiER9j1x4oTPXkGUw6ZNm6JvRHFBgoMQQoi0grwLLBg5ZwIHgR6cSZMmRWtOBwNrw4YNvgghRF4gNDRp0sR+//vfR2uEKPqULl3aE0aSLBIRPj9q1apljz/+uAvzH3/8cbQ2Jwj/zF5BHoj8pqYWRRcJDkIIIUQe3HvvvZ4I63vf+160Rgghzh0ETiKqli5dGq0RIn3IzMz0XEljxoyx8ePHR2tFOqGkkUIIIUQe4CS0atUq+iSEEOcHEVASG4QQ6YoEByGEEEIIIYQQQiQdCQ5CCCGEEEIIIYRIOhIchBBCCCGEEEIIkXQkOAghhBBCCCGEECLpSHAQQggh8mDjxo22atWq6JMQQpwf9erVs+bNm0efhBAivZDgIIQQQuTBjBkzbMKECdEnIYQ4P3r06GHDhw+PPgkhRHohwUEIIYTIAwSHiRMnRp+EEOL8QHAYMWJE9EkIIdILCQ5CCCFEHmRnZ9uJEyeiT0IIcX6UKFHCMjIyok9CCJFeSHAQQgghhBBCCCFE0pHgIIQQQgghhBBCiKQjwUEIIYQQQgghhBBJR4KDEEIIIYQQQgghko4EByGEECIPunfvbsOGDYs+CSHE+TFz5kybNGlS9EkIIdILCQ5CCCFEHmjufCFEMmCK3QkTJkSfhBAivZDgIIQQQuRBgwYNrFWrVtEnIYQ4PzZs2GDLli2LPgkhRHohwUEIIYQQQgghhBBJR4KDEEIIIYQQQgghko4EByGEEEIIIYQQQiQdCQ5CCCGEEEIIIYRIOhIchBBCiDzYuHGjrVy5MvokhBDnR7169ax58+bRJyGESC8kOAghhBB5wFR2EydOjD4JIcT50bNnTxsxYkT0SQgh0gsJDkIIIUQeaO58IUQy6NGjhw0fPjz6JIQQ6YUEByGEECIPsrOzfRFCiAshIyPDFyGESEckOAghhBBCCCGEECLpSHAQQgghhBBCCCFE0pHgIIQQQgghhBBCiKQjwUEIIYQQQgghhBBJR4KDEEIIkQfdu3e3YcOGRZ+EEOL8mDlzpk2aNCn6JIQQ6YUEByGEECIPmMpOc+cLIS6U6dOna4pdIUTaIsFBCCGEyIMGDRpYy5Yto09CCHF+ZGVl2bJly6JPQgiRXkhwEEIIIYQQQgghRNKR4CCEEEIIIYQQQoikI8FBCCGEEEIIIYQQSUeCgxBCCCGEEEIIIZKOBAchhBAiDzZu3GgrV66MPgkhxPlRv359a9GiRfRJCCHSCwkOQgghRB7MmDHDJk6cGH0SQojzgyl2hw8fHn0SQoj0QoKDEEIIkQcIDpo7XwhxoUhwEEKkMxIchBBCiDzIzs72RQghLoSMjAxfhBAiHZHgIIQQQgghhBBCiKQjwUEIIYQQQgghhBBJR4KDEEIIIYQQQgghko4EByGEEEIIIYQQQiQdCQ5CCCFEHnTv3l2Z5YUQFwwz3rz11lvRJyGESC8kOAghhBB5oKnshBDJAMFh4sSJ0SchhEgvJDgIIYQQedCgQQNr2bJl9EkIIc6PrKwsW7ZsWfRJCCHSCwkOQgghhBBCCCGESDoSHIQQQgghhBBCCJF0JDgIIYQQQgghhBAi6UhwEEIIIYQQQgghRNLJCJbs8E9RFKlatao1btzYFi9ebEePHo3WmpUuXdratm3rC9vkZuPGjb7PihUrojWn0L450b6n0L450b6nKI77DhkyxI4dO2Z33HFHtEYIIc6d+vXrW4UKFfJsh5JNuXLlrH///n5O/hbi86Zy5co2ZswY++Y3v2mTJk2K1op0QoJDEadz5842evRo++Uvf2m7d++O1ppVrFjRbrzxRl+aNGkSrT0FUzS9+OKLNmHChGjNKbRvTrTvKbRvTrTvKYrjvogV7Pf73/8+WiOEEOfONddc451Df/rTn6I1hUft2rXtqaeesrp160ZrhPh8oUN00aJF9utf/9rmzJkTrRXphASHIg4vsYcffth69+7t0y4lkpGR4UteZGeHtz3+Pzfa9xTaNyfa9xTaNyfFbV9gv/z2FUKIgvDTn/7UevToYdddd120pvDIzMy0adOm2de+9jV77bXXorVCfP6cOHEi+kukG8rhUMQ5m6HNw53XcjYjWvtq3/zQvto3P4rbvixn2lcIIQrCmUTNwuJsbZsWLRd7EemLBAchhBBCCCGEEEIkHQkOQgghhBBCCCGESDoSHIQQQgghhBBCCJF0JDgIIYQQQgghhBAi6UhwKOKsWbPGnnnmGTtw4EC0RgghhBBCpApMz/vWW29Fn4QQIr2Q4FDEWbt2rT399NO2f//+aI0QQgghhEgVEBwmTJgQfRJCiPRCgkMRZ9euXTZnzhw7evRotEYIIYQQQqQKWVlZtnz58uiTEEKkFxIchBBCCCGEEEIIkXQkOAghhBBCCCGEECLpSHAQQgghhBBCCCFE0pHgIIQQQgghhBBCiKQjwaGIU7VqVevUqZOVLl06WiOEEEIIIVKF+vXrW4sWLaJPQgiRXkhwKOI0adLEbrvtNqtYsWK0RgghhBBCpAo9evSwESNGRJ+EECK9kOBQxIkFhwoVKkRrhBBCCCFEqoDgMHz48OiTEEKkFxIchBBCCCGEKCQyMjKiv4QQIv2Q4CCEEEIIIYQQQoikI8FBCCGEEEIIIYQQSUeCgxBCCCGEEEIIIZKOBAchhBBCCCGEEEIkHQkORZw1a9bY2LFj7cCBA9EaIYQQQgiRKsyYMcPeeuut6JMQQqQXEhyKOAgOTz/9tO3fvz9aI4QQQgghUgUEhwkTJkSfhBAivZDgUMTZvXu3zZ07144ePRqtEUIIIYQQqUJWVpYtX748+iSEEOmFBAchhBBCCCGEEEIkHQkOQgghhBBCCCGESDoSHIQQQgghhBBCCJF0JDgIIYQQQgghhBAi6UhwKOJUrVrVOnfubKVLl47WCCGEEEKIVKF+/frWsmXL6JMQQqQXEhyKOE2aNLHbbrvNKlasGK0RQgghhBCpQs+ePW348OHRJyGESC8kOBRxEBxGjx5tFSpUiNYIIYQQQohUoXv37hIchBBpiwQHIYQQQgghComMjIzoLyGESD8kOAghhBBCCCGEECLpSHAQQgghhBBCCCFE0pHgIIQQQgghhBBCiKQjwUEIIYQQQgghhBBJR4JDEWfNmjU2duxYO3DgQLRGCCGEEEKkCjNmzLCJEydGn4QQIr2Q4FDEQXB4+umnbf/+/dEaIYQQQgiRKkhwEEKkMxIciji7d++2uXPn2tGjR6M1QgghhBAiVcjKyrLly5dHn4QQIr2Q4CCEEEIIIYQQQoikI8FBCCGEEEIIIYQQSUeCgxBCCCGEEEIIIZKOBAchhBBCCCGEEEIkHQkORZyqVata586drXTp0tEaIYQQQgiRKmRmZlrLli2jT0IIkV5IcCjiNGnSxG677TarWLFitEYIIYQQQqQKPXr0sOHDh0efhBAivZDgUMRBcBg9erRVqFAhWiOEEEIIIVIFCQ5CiHRGgoMQQgghhBBCCCGSjgQHIYQQQgghhBBCJB0JDkIIIYQQQgghhEg6EhyEEEIIIYQQQgiRdCQ4CCGEEEIIUUhkZ2dHfwkhRPohwaGIs2bNGhs7dqwdOHAgWiOEEEIIIVKFmTNn2sSJE6NPQgiRXkhwKOIgODz99NO2f//+aI0QQgghhEgVpk+fLsFBCJG2SHAo4uzevdvmzp1rR48ejdYIIYQQQohUYePGjbZ8+fLokxBCpBcSHIQQQgghhBBCCJF0JDgIIYQQQgghhBAi6UhwEEIIIYQQQgghRNKR4CCEEEIIIYQQQoikI8GhiFO1alXr3LmzlS5dOlojhBBCCCFShczMTGvZsmX0SQgh0gsJDkWcJk2a2G233WYVK1aM1gghhBBCiFShR48eNmLEiOiTEEKkFxIcijgIDqNHj7YKFSpEa4QQQgghRKqA4DBs2LDokxBCpBcSHIQQQgghhBBCCJF0JDgIIYQQQgghhBAi6UhwEEIIIYQQQgghRNKR4CCEEEIIIYQQQoikI8FBCCGEEEKIQiI7Ozv6Swgh0g8JDkWcNWvW2NNPP20HDhyI1gghhBBCiFRhxowZNnHixOiTEEKkFxIcijix4LB///5ojRBCCCGESBUQHCZMmBB9EkKI9EKCQxFn9+7dNm/ePDt69Gi0RgghhBBCpAobN260FStWRJ+EECK9kOAghBBCCCGEEEKIpCPBQQghhBBCCCGEEElHgoMQQgghhBBCCCGSjgQHIYQQQgghhBBCJB0JDkWcatWqWZcuXax06dLRGiGEEEIIkSpkZmZay5Yto09CCJFeSHAo4jRu3Nhuu+02q1ixYrRGCCGEEEKkCj169LARI0ZEn4QQIr2Q4FDEadKkid16661WoUKFaI0QQgghhEgVEByGDRsWfRJCiPRCgoMQQgghhBBCCCGSjgQHIYQQQgghhBBCJB0JDkIIIYQQQgghhEg6EhyEEEIIIYQQQgiRdCQ4FHGys7N9EUIIIYQQqYfsNCFEOiPBoYizdu1aGzt2rO3fvz9aI4QQQgghUoUZM2bYhAkTok9CCJFeSHAo4qxZs8aefvppO3DgQLRGCCGEEEKkCggOEydOjD4JIUR6IcGhiLN7926bN2+eHT16NFojhBBCCCFShY0bN9qKFSuiT0IIkV5IcBBCCCGEEEIIIUTSkeAghBBCCCGEEEKIpCPBQQghhBBCCCGEEElHgoMQQgghhBBCCCGSjgSHIk61atWsS5cuVrp06WiNEEIIIYRIFTIzM61Vq1bRJyGESC8kOBRxmjRpYrfddptVrFgxWiOEEEIIIVKFHj162PDhw6NPQgiRXkhwKOI0btzYbr31VqtQoUK0RgghhBBCpAoIDsOGDYs+CSFEeiHBQQghhBBCCCGEEElHgoMQQgghhBBCCCGSjgQHIYQQQgghhBBCJJ2MYMkO/zw/GjRo4Iv4fBgwYID9+7//u91xxx22bdu2aK0ozuzatcuWLl36/9u7D3C7yjLR4196Pen1pJAKqYQUQseEJiAE7CgqAlLGaTjXMs44mqneYWbuXOfOvddR4KKCICgqoaMgTYEQEhIgJCG9997bXf937ZUcwjlJCPvE5Pj/Pc/m5Ky99mr7sNb7vev73lX6TZKk8uPpV4MHD06NGzcuTdGR+sIXvpAGDBiQvvzlL5em1J4OHTqkH/zgB+nb3/52ev7550tTdbwgviPOk+qS951wGD9+fPrWt76Z9ux5X4uRdBjq1auXHnrooTRu3LjSFEmSyo9HOU6cODF17dol7TXEk2pVFt5lr/oR302YMKE0VaobypJwuOaay9Mjj/xLaYqk2nLqqR9Ny5Y1MeEgSapVRcJhypS707x5r5amSqoNLVq0TR/72D+mT33qGhMOqnPKknC46qqx6e67bylNkVRbxo69KW3aVGnCQZJUq4qEw9NP35pmzHi2NFVSbaio6JhuvvmudPXV15twUJ1j0UhJkiRJklR2JhwkSZIkSVLZmXCQJEmSJEllZ8JBkiRJkiSVnQkHSZIkSZJUdiYcJEmSJElS2ZlwkCRJkiRJZWfC4SirV69eql+/QfaTQ18vfuff+bR6+UzHkdre9gOPlyRJko6GPAbjVVsxmHGeVPeZcDiKWrRomwYNOi998pP/nM4++3OpbdvK1L37kHT++X+UPvrRf0jdug1JjRs3L8197GvWrFX60Ie+mj7ykb9PAweeV5paPs2atU79+5+VHa9bs+N1TercuV/pHUmSJNWmrl1PihiPF/8ut+riYkl1DynL8fk/j8yYMWPSkCG907Rpj5Wm1D0NGzZOPXoMSyNGXJ5OPvmSrHE9Jg0Y8IF4de8+NO3ZsyutW7e0NHfNmjZtmbp0GZBOOumctHnzurRs2YzUvHmb1KvXiNShQ680f/6radOmVWnXrh2lT7x/Q4ZcFMmAiooOacWK2aWp702TJi2y7T4p2/eLIxO9ffvm2EaSIyNGXJFat+6SVq6cmzZsWJb69BmdRo/+eBo8+Px9x+nEE89JlZUD08aNK9PWretLSz001tupU9+4GG3Zsq60jhWld/8w9e49Ku3YUZHuueee0hRJksqvoqIi3XjjjWnevBfS6tXzS1OPfzRyi1jlhBOGp717d78rhmvatCLiu9GjP5HFbOem+vUbZrHPpuz6u7U0x7GhceNmWWx2acRbLVq0yWKl9Wnnzve+jS1bto84d+DAsWnbto3ZMrZFbNu+fY+Ie5s3b53mzp0Y8V9xXPL4cn+c17PnKXF8OE67d+8sLfngqouLiff+EBHzjhr1kfTAAw+mmTNnlqZKdYM9HA6hRYt22Yn07KxhPS5OxtzV37Vr574XJ9U9e/aU5j52cHHs2LF3bPuQIRfGT35n+nvFSZDM9oABY1KHDiekRo2axPRdu7anGTOeS2+88au0cuWcSEAw3+DBF0SioGHDJtmFPL+481ku2u3a9YjPSpIkHW1VYxUa0z17Do9Yr6pWrTpFUmLYsEvT0KEXp86dT4xY6FjSqFHTLKbqGUkC4rx+/c6IGO1IsP89egyNhn9FRcfUoEEeK27cuCpiPF78m/iPG2SDBp2funUbnP3eLGJhEgd9+56WHauLslizT2ybJBXs4XAQNJi7dx9c6s7fP82a9UJ6+eX70uTJZB+fj9e8eZPS+vXLYn4a8+3b90xt2lSm1q07xwWLrDHj0khMFCdqTupr1y5OS5a8Weo9cGI0yufMeSl6AZCxbtu2W7xYBi+yy/XqNUg7dmyJdXFBoNcCn+NnmzZdU7NmFVkDf0/auXN7nOzJPldWDth3kaTxv3z5rH2ZZ9bDtubL6BjbTG8F/s36SCiwzVw8+vYdHT83b16dTd8R+0QWnR4Za9YsShs2LM8uUI1i2EOnTn3S668/GceKi9SaNQtTr14jI1O+efOa2Pc2bbrFdrOsYnuK40evj2xrYx3t2nWPHiB8hm3ftGlNJH2Yj21t1apzbD8BBMeJz5GV5zjURfZwkCQdDXW1hwMxBLFKx469shincdq+fUsWW6yOOKPAcNf+/c+MeAiLF78eN1a4w181BiFuYh7ikD17dmfxzK4slqkfMRTxCzEU87Vp0yWmEaMQ9zCN95lO7MIyGjZslH22QWn5J8Syi/do0LPsPXv29xwgSdCnz6gsLjg1fmf9xIiLF78Rv4PP8XmWw/ytW3fdt83FDTRix27dBkZvD2JJYlp6s+7NgsYdOzandeuWZcdmUcSnxHnEsd26DUpz576SfvvbH6UpUyZEnMdNLeI1Pk9vVuIy9pN4jG3nJ8eDbWE7QA9ibkRVjYvp4UDcSvKE7WF7iQvZXmJqYkXiPPa3LmGf7eGgusqEw0G0bds99et3ZvY6Pc2Y8WwkGrjgVK9eXHAuv/yv07nnXhtd9YYPvyKywHl3vSVxcuQEeqiEQ9++Z6Tzz//j7NjemEaMuDKNHPnhuKBwIVqwYHKs7fTTP5Utf1waMOCcNGzYh9JZZ30uLgCbN69NK1bMyZbbPDLzfIaTNydn1jVnzsRIJID1nn/+F6PnwfDhl8U2001u+PDL46JB1zYuFkwfNuyybBvbRJc5ektwEWB4w5lnfibWz0WLfSIxw3KXLZsZxyofIrIthlSwjwyL4Hiwf9xZIIlQJGyo2TBu3F9H3QYu6hyzqgmHFSvyZEm/fmdlx/nr6YwzPhVDOpifCx0narrysV1FYqauMeEgSToa6nLCgV6YxBc0gmno7969I82fP6U0R7241vbsOSwSETTIlyyZHjENDXF6Elx22dcjDiPuIH7q3//sLPZYmc2f3zQirrrggj+JxvLpp3865iWWITZZvXpBxInEQUwnjiGOIm7jRlevXqOyGOcv06mnfiziP2I54ipiIuKboqHdpk3niH+aN28bsRTxHo3x2bNfjPdBEoG4btSoj8bwB9bH78OGXZK9NyKtWjUv9pV4kn1o2bJd9pO494zo5UDSgDiviNe2bt3wrhtnxJjc5OImEtu5atXc+By9LrhhR88IYltuUpGoYRvOOeeatG3bphi+QfKj6vJIVjBs44or/ibqOowc+ZEsLj49tpNlkqRgCAyfrUtMOKguc0jFQXDy5IJEZnb58rfj5FgT7uqPHXtjZG5ffPGe9MMf/km6776vxYl/4MDz46JAJvtwcAGYOPH+dP/9X0/f+97n0qOP/ltcaLhY0XWODDEorkNCgETFnXfelH7+82+lt99+MRruPXqcEid+ehQsXTo9O9mviPnJ6HMhKHBxIkmwbNms9Mgjt6Yf//hLadKkn0dWnGQL4/hefvn+9Prrj8fF4Jlnbk8/+clX05NP/kdcNDk2B8O2kKQgGUJm/0jGFha4qHLBGTXqw7EtP//536a77vqzSAQRPHCRz6scS5IkHRw9NIlj6FFAL0wa7cRzNIxBrFH1Tjo3PdavX5qef/7OLP740/Td716dJkz4p7hJQp2r4s49sUiTJi0j9psz5+X0059+I4vp/jpu+uQ3iAZHL9l77vmLbBmfSd///uez+OqOtGjR61mj+430+OPfSbfddl0s/4UXfhjxDYkHhjCAGzjU1qJhTgOfOG/btg2R4KAAOT0RCiQyiP+4GfWLX4zP1vnl9OqrD0aPi969R2brnJZeeeVnadas59PKlfOy/fl2uvfeL6eXXro329flpaUcHL0nSJSQkCERwI2mI8VNNxreDFd+5JF/SXfccUP0mOWYtmzZIb4jSccXW2cHQXaXFxlpsrM1FXOkuBAZ365dB0YjnGEWCxe+Fidxupw1aNAge793ZHEPx9q1S+KixEVq6dIZacGC1yKbS6KAIRDFyZahEytWzE2vvfZIZIVXr14YJ3q2p0uX/onucHx2+vSns+2Zlm1H4+zidHKpW1+OeUiksK7Zs19Kixe/Gdu+Y8e26LrG/tNLgWI+7D/ZdRIibE/RU6IqLjZkukmMXHjhn6bLLvtaOu20T2XL25qmTXsiW/bU0pzvHdvDsA4utPPmvRoXZpa3YMGUOO55LQ0fqSRJkg6NBjZxTd7roU/EPNwgYUgrSQRu2lSt08VNGHpqzpr124ir6M3Ja9Wq+RHj0bAnBiMWoTcn04mv5s+fnK1nedzM4W4+sRqxC7EMn6f3AO/zIu5jCC+9KvLlz4rt4AZY27ZdI8YiHsoTJPUjDqJ3BgkFtp/aE/QCKLD9+fomx3ALYlS2h6Ek7CdJFHpy0HuB/WP4BHEePRPo+VEd4sk+fU6NXhpXXvmtdM45n499mzLl4dieLVs2lOZ8b0hcEL+SOCGJwrFjm4n3li17O5I/xK2Sji8mHA4DjWheNeEkS88Gfq5ZsyC7YNB1bFuc4DlhcuKlm1pem+DQmjZlmEX/KFRElzqK+HCh4QKSF+LJt4XeAgxH4IJU9DQg+80Fj/GHdAMkA07WmWRIURSIXgcFuhMyDIHxdwzH4OLCT5IJXLjoAXEkGMJBgoIL2IoVb0dSZObM5+JuwZFif7jIsq88cYPt5jhzvLmo5xdGL0SSJOnQSDYQRxHr9OhxciQNOnXqF/EPDW9u7BwYV9DLtGfPk9MppzAU9RMxdJYYj+kkG/I4La+pQA8KeqgSrzBcgl6pxGI08LlxQ1LjnRie2yYKMJ566kdj+dRpIG7j8/xk21gO8R2JEn4y9JderdS1Iv6jh27Ry4F4jBtLrI+YiW3hRhL/JmY80h4D7B9xHvEi+/jGG0+m119/IpIVLPtIcEOJ74DeDCR2SLSQECH5wbCefLiscZ50vDHhcBCc5HhxQuYEyMm+Opys82xyvTj5ktUGDWMa3JyMeZ+M8KHkwwZOjUTDaaddFfUU6C1QPPXhUDhZ54Ub+0Uyge5yXBT5yXblhYi6vGNYRTmReeZCw9Mrnn76v9JDD/339Oij/xrd4bjY1YRj2Lhx07jo15Tc4T0uoPlFbnvsH9gvfs+LRXohkiRJh8aNGxqzxG48iYynVzD8lYYuPQuqIv7g5hLDTc844zMxvJP4isdCUp/rUDdo6I1AHMd8xIfELFURJ7IcEhgMu6CuAsunfgF1swoMryCWy59IUS8SJYMHXxjbTrKDGI+nanATrLZwg4feGc888/1SnPdv6bnn7iwlG97d+7VAIqGIl6vDMeZFLJfHefn0Iu4jJjfMk44/JhwOIs+oLswuDg2iEc8d9upOkjSw6c3ACTHPQueJBRr1XBTIQPM+WeVDoTcDxYP47MMP/3O6/fbr009+8pXoIUDy4lAqKtonKv5yYn7qqe9FLQnqQPDz6ae/n53IG0bmvHPnvqVPHImae3u8d/myqh6rmi7aHGcqJnN86S1SZO9J5PA7F3JrOEiSpMPFkFl6OXBjiRs+3Pgh/qOHQ1XEGTT+KWS4ZcvaqN1AfEW9rTfffCqLuw5+V5/GMgUWmY+Yh8RBVfRO4Oligwadl3gqxg9/+MexfOprMTy30LFj3yiUzbKoq/X//t8NMR81rX73u7sjNqLmF/vx3pQztnun4kYSCRGSNiRfqkOPD2Jl5ud4F/PxOeJrjtvBehxLOjbZOjsIHgXEWDSGG/BkhvxZzP1K7+5HfQPGAVKYkUwz3dvoacCLngXUTODuPheww8FFiRMulXrJ8nbpMiCWWbX2Qk24YNJdj2EWCxdOiWWAn4sWTY0LK9lv5nsvOME3atQ8EgJFd8EjRfab7oRsJ0+vIHPPsWI8IDUqioTNgYoEEEkFKigzvAJk8elKeKi7C5IkSVVRFJwC39zUoLHPUyuI+2oqmEhNhHzo7PaIXYjPeBrEoXqxUjOBHgCrVi2I+gsUd6RWwYFYLstnPUURSGKcAkNseaIBNRuo0VX0KChiUepA0Cv2vfZw4OYay23WbP8NnSNFDLtlC4/GbJZte/8ooEmsRy8S4uia4jWOeT5EdlcWP4+K/SDJwBARaqWxfSYcpOOPCYeDoMsYhXzIGFOwhozxBRfkBXKKF+PrOnTomZ3k58SwAcbFUUn40ku/GkUT+/Q5LQo3UqSnePzjwVD8kIsFj+QcM+aGNG7cNyLjzYWDk/fB0FjniRMkBYrHF9HrAvzM6ynM2XeBbNOmW7x3KHktihnZRW1LGjBgTGwXj8okG19TlvpgGDP5xhu/iqQDXQcvvvgv0nnn/VEka0ja1PQkC2pLkADiEaUUjxw79qb4DnjEEtjHYpiFJEnSoRBzEHeRDKhfv1EkIPJG787SHDliIeoI8FSI7t0HR9xyySVfjkc10tuAmPFgMQjvEcdMnHhfFAen7sLFF/+3LI75ZvrQh74WtRe4OcR6uMlF0e2LLvpSTGcany9u1FAvgngxvzGVr5MhGvS8YD+4qcQTwkhOHI68Fta8SDRQO+K8876YBg++INZ3JFgehdMZlkKvEOLhiy66Jduvs6LeQz78+N3HKh+qMSkSKU2btkrnnnt9uvzyv0qnnfbJ1L599+w4bDjoMZZ0bKJSzPj8n0dmzJgx2cm2d5o27bHSlLqFjDc9HTjZ52Pudr/jReOZ3gskE3hxItyzhwFmFGPMn7dMA5lqw/mQinpR9Gbp0rfi5M4FjeXymKVFi96I5fFEh2KsGhcQTs4kEPLnQM9Oa9Yszi4KDSMBQfFECuuADDK9D0h6kOQotme/erG8bds2R/FGejts374xihrxdAoSEnnmmOrKe6IiMImUzZtXZ/NtjgsBx4HtZ3wjn+MYsP/0qGB5fJzl0B0wL1D07uQBFxo+z7p4n+VybLiIs90UmWS/9s+zPYpvsu9kv0lUsB6OT368STTsju53XOA45nlhobqHjP+OHRXpnnvuKU2RJKn8Kioq0o033pg1AF+IhnZdURRJJIYiFiueQkY8Qowxe/bv4uYM06rGNPSwJLFAjEYsRZzGE72I0XjqA3EVTwyjNybxSdVYj8+AmKW4+VTELsSArIsYh0QESYl8OsvYHHEYT2qg1wXbRc9X4hymETMeKB9+uiWbf0EWL63JXmv3xZgkKFhvUSeBdZIUIFHBNvJZ4jFiPmJfjg3HpYgTq4tji32ririOeZi/OFbExOwDCQWGq9R0rEj+8N0UcV7++fxpGdx8Iz7MH1W/MabVFfTe4HGgDzzwYJo5c2ZpqlQ30Lp8X+VXxo8fn666amy6++5bSlOko4fES9euAyL7zU+ejT1z5gsRFNRF9OrYtKkyjRs3rjRFkqTyq6ysTBMnTkxPP31r3DiRfl8oiMmw5oEDz0uvvPKzeCLGwQqRH4/olXLzzXelq6++Pk2YMKE0VaobHFKh4wo9Hrg7wfg/kg0tW3aI7oUMxyAzz92BuppskCRJqsuKOI8Yr3gxjJY4D3mvi5qfhCHp2GPCQccVak987GP/lG688QfpppvuSp/73H+mM8/8THTHe+mle6OboSRJko4/1Ky46KI/jxiveJ1//hdjyPDkyQ/GEzuKguiSjg8mHHRcIbM9deqjkVx48cV70gsv/Cj95jffT0899d00e/bLMdZSkiRJxx9qR8yc+VzEeMWLOI/Xm2/+Kup7UYdC0vHDhIOOKxSMfOut36TJkyekV1/9ZbymTHkom/ZMJCMoMCRJkqTjD7HcnDkT98V4vOjZQOzH00NMNkjHn7IUjfz8569Ijz/+76UpksqJqtZk9Kk2fc45n7dopCSp1hVFI6dN+0maP39KaaqkcuKJIMR4PDnEopGqq8qScPjmN79pxlGqJdSnmDTp5/E6+eRLTDhIkmpdkXDo0qVzPEJRUvnNnz8pi+9+kebNe9WEg+qssiQcrrnmsvTww7eWpkgqJ3o4UCCJ+hTnnHOtCQdJUq0rEg6TJ9+VNYYmlaZKKqedO7emLVvWR1FMEw6qq8qScLjqqrHp7rtvKU2RVFvGjr3JhIMkqdYVCYenn741zZjxbGmqpNpQUdHRhIPqLItGSpIkSZKksjPhIEmSJEmSys6EgyRJkiRJKjsTDpIkSZIkqezKUjTylltuTnPmvFSaIqmcdu3anubOnRRVwk899WMWjZQk1bqiaOS2bQvT+vXLS1MlldOqVfMixlu/fplFI1VnlSXh8Od/fkOaMeO50hRJ5bRr1460YMFr2WtKGj364yYcJEm1rkg4bNo0O61du6Q0VVI5rV69IGK8jRtXmnBQneVjMaXjiI/FlCQdDT4WUzp6fCym6jJrOEiSJEmSpLIz4SBJkiRJksrOhIMkSZIkSSo7Ew4qq/r1G6RWrTqnk076QOrf/8zUtm231LBhk+z3c1OfPqNT69adS3NKkiSpHFq2bJ969RqRTj75ktS+/QmpU6c+qW/f07LX6al58zapXj1Dfkm/H38QZ59GjZpkDd/K1KXLidkJuV1q3LhZ/OR3pvP+8YIGfbt23bNt75813rtkjfnGpXfKg+U3bdoyde7cP1tPj/j3e9GgQaPUs+cp6bTTPpkGDbogtWrVKTu+TdOQIR9MI0ZcmXr0OCWOvyRJUl3XokXb1KFDr0gCEP/w4t9M471yIcFwyimXpzPO+HS2/B4Rww0cODaNGvWRVFk5MIvPGpbmPHYQY7KdxJz8m2NDbNupU9+IH4lJJR3/jvmEAycbTpI0ZKu+mF6vHg/ZOLQ2bSqzE/Bn0sc//k9pwICxcZLnJ78znffLie1i++rXb/i+M8r5cvbva5MmLdK5516fPvKRv0+jR38iehMgP07vPEbv9TiBk323boPThz88Po0de2P8+70gudC//xmRCFm0aFqaP39y2r17R5o3b2L0bujT59TUsWOf0tySJEnHnjyWe3f8SUxavz6x3eHFVieeeE764Ae/lC644IsRf/Li30zjvXJgW9u165nat++Zli2bmRYunJreeuuZtHTpjNSiRbs0dOgH39PNnjym3L/veTz7zv0tR9xJjEmsSczJvzk2xLbjxn0jDR8+LmJKSce/Yz7hQELgs5/9z3TzzXfve9144w/SJZd8JfXqNbI017GF7br44r9IH/nI30V2+UhPmE2bVsQF6bTTrkqdOvUrTX23Zs1apUsv/Wq69trvVTlOd6UbbrgznXvudQf9bDk1a9Y69ew5LDLVPFd4zZqFMX337l1p+fLZacuWdZHNp4eGJEnSsapr1wHp4x//dsScRWx1000/Stdc8900cuSHU6tWHUtz/v4Rd/boMTTt3Lk9zZr127Rr146YvnHjyrRp06pIRHTo0Ds1btw8ph9K1dib/ec4cDwKx0rcKen4cEwmHLiL36PHyemii25J/fqdnlatmp9++9sf7Xv97nc/TtOnP5U1aBeVPnFsIUvbpctJ0aWN8XNHMuyBJAX1Dzp37pdat86HJWDHjq3p1Vd/mZ566v+mN954Mm3evCbVq9cghoawngULJscxevnl+9PatYvTCSeMSP37nxXLqm1kz+ktQuZ/9er5acOGFTF9z57d8TvfV6NGzSILL0mSdKwhXhox4op05pmfidoHkyb9okoMeneaOPH+tHDhtLRt26bSJ37/Kio6RDJhw4bl0bthf8JhVVq3bmlq2rRVDFM43GGy8+a9Er0jQE/d6dOfjmVTJ4IaXRde+GcR586e/WKVY3NXxOezZ78USQ5JKjA4anz+zyMzZsyYNGRI7zRt2mOlKdWjOz3ZUe5ucwKkEVoT5h006Pw0dOiFWSN1Qbbsx9Obbz4V3cSKF43p7ds3RSObIjm9e58atQO6dx8S6+HEu3375uykuz3uqpMEaNeuW1q06PXI+FZUdIxsMMtZsuTN6ALGPDTOmc5yipoP27ZtjJN3vpxBqbJyUHRRoxAPv3MC37FjWwwdqKjolAYPviDWv3XrxtgXhhawrXv27NqXSCARQZKAcXW9e4+K9bHcJk2axz6RrBg8+MJsn06Oz9DbgYwyjXm2ld937twWvQZIOAwaNDZ+nz79N2nq1EfTqlVz43Pdug1JDRo0iGPORYNCjiyH/SF5QTe5jh17pRNOGB4Xkr1798Sy2b4tW9buO9YHHmcuNHyXXMC40LFvjRu3iAQRx3bmzGfT8uVvly56e+N7YHwh+8Xv+y+Ie/nKdZj4W9mxoyLdc889pSmSJJVfRUVFuvHGG7PG5wtx06AmdKOvrBwQ8QAxytat60vv1Ix5+/U7M+IK4h9iKWIQbjgxpj+P2fg5KHv/5OhNsH79siym6pLFK6dEjNK9ex6rkRQg/iLmK2IaYhXu+ufLHhxDOYk7idUYKlDEYcQvxDO9e4+IeVgOy6V3KvPQW2DSpAcidizizxUrZmcN6tXZvDuj5wBDRXmxLl5sI4jP0LXrSaX170oLFkyJaewD27py5dxY3vvd5p49R6Q2bbpGvPbWW7/J1pDHVsRubA/Hkdh3xYo5WazWNHqjsi7iyR07tsS+VMW8xIrEeTt2bE4vvPCjtHnz2oiLBw8+P2I9hsxOnjwhEgzFsVm+fFYkJohHiZOLY1PE1QyZaNiwURwb4s28JtmJEV/PmfNSKVbsG/tCL1mOOzFpjx5Dsn0/I25Gshzi/ANjb26wdehwQiyT48Rx5++RbSkSMMcy/vapt/HAAw9mMfTM0lSpbjhqCQdOEJykunYdmObOfSVOKtXhwsXJ5pRTPhQn4ylTJsRJjRPGgSj2yMnrrLM+FxcuTkCcYDiJcnHasGFlnNQ4KR0q4cCJ9cQTz47qvjSMmZ8LIScuTp68OJENG3ZpjIWjmA0Jh44de8eJev36pXHSZhoN8nXrFmcX6HkxvIALE5/nYsh6aNxTh4HeC5xouRCw7VzgmjRpGcvjwjtkyEXRY4BpxYWYdfToMSzbzosjobBq1bw4kZJwYDzhsmUz4uLFsWvTplssl2NHwoGL1Ac+8IX4HBdueiBwDPv3PzudeurHshN++zhmDL2rmnAgU33gceYiR7KEY8ZFhWPKxWPAgDFxYSTxwbCKqkg25BebJnFRKi44OnwmHCRJR8PhJhzo3XjyyZdmDcvREecQgxwM8RNxFMMSiCOIuYgpiFtojHKdGzbsQxE/EdPxPjdxVqx4O4tBzog4jJtDxBOsk4Y4N1CIs2hoE7sNHXpxtpyRWYzVPxqpxDR5LJTHKkUcRvHGbt0GxjzUxNq4cXW2zFFZ7NcjkgEvv3xfxEJ797775giN5IEDz4v96NVreLY9vWPdReKFGIhYlzjvYAkHbhAd+TZ3yhrmi+PzNMxJKCxc+FqsAyQU8nj35LR164aId/md72v48Mtj2cUNvAOxHxx/0MOBbSApQpxLEoIeDezjgckKEHezj2ee+dn4TOfOfbN2wNCIrZs3bx2f4zsjsXCohANxMLHloEHnRdzM3wV/By1bdogkCPE3bYvTT78qOw4j4++CvyG+w02b1sQ+Vrd/xxoTDqrLanVIRdWCO/zkDjuvgxWW4UTEyYKeATSKaVAXWeID0aDmf07u4r/xxq/Sffd9Ld1775cjSUGjf8iQC+PkdDhoVM+c+Xx69NH/ke6444b0k598JU6wXIBo+NNIB9vNCZ5Ew69//b+zht9fpGefvSMuGjTeyfpy8V2yZHokVrhYcLF8Zze2etm8PCmjQ2z397//+fSjH/1ZWrz4jVKDvHGaMeOZyCjTFY55HnzwH7OT0DejCFBNyZqqx5sTF8UbSTIQAHBSPlLVHecHH/z7CCpat+4a+5urFxckvi8yzgfihM+FKe+x0epd370kSToe5MWxi8KCRXxXxCBM5/cDcd2noUuxROK7n/3sG+n226+P1+OP/3vcYGIZ3KAgVqB3wQ9+8MX05JP/EQ1t4jGWT9x15503peeeuyNrrLaJG1rc4aZRT2zy0kv3pvvv/3r22T/K4rp/Tdu2bUh9+uR3vUtbEnEYjV1ugLAd99//l9HIJQ5FPhR0YfQyqA77MGDAByLOe+ihW7PY8QuxD/TwIBExcOCYiAsP5f1s8733fiXNnv27SCYQ6x0YL/P7unVLonHPjSu2h3iXm0nErdykOtzGOPEw30HTpi0iYcD3x02w6hAvcgOPIcHPPnt7xLi//OXfRe9Wkgd8jyQ+DgfbR3z+0EP/PeJlXtzUIqFA8oPjgrx3cM+IQ3/xi79Nd931p2ny5AejLSHp96vWEg5ko+nV8LGP/UP6whfuSJdd9vUYIsDJ+dpr/ytdf/3tacyYGyLrW509e/bE3XYK4NSEbC6fJzvMSYzGOZ95881fZxeJRXEyo8F9ODZvXhcn4MWLXy/1WFi+L9nRvHnbfRdOTmTr1i2LdXDC3749P9myvyQLGCaxcuWcuEhRX4FsNheHIoNb2LNnZyQYmK/4nfVz4SGhUTx94r0guXLhhX8SxXs+//nvRuZ/xoznIgHDNh2p6o4zCQwSKuvXL4keFiAIqHqsDsQx5kLMPkqSpOMTN4UoaP25z/2fdN11t6XRoz+eNcDPihiEIoOf/vS/Ry8EikkXSFDQSCRWov4B8VF+h/ydDfq9e3cnemVy42Xp0rdiGgkMYhx+Es/QUC4KUtOLlPXQI5VlsUzujBOrEKMRu1ALjPXTYC8Qd82bN6kUy9A7Yj+271A3amjcgliuiB3nzXs1zZ8/JbaNO/EkTw7l/WxzcUwZ/kuDuzpsF7Es8StYx9Spj2QN+G/Hthdx7OEiLqeHLHF6TehlTDzIzTe+Z2I/htm+/fbv4rjSi4HY8nCwn0uXTs++9/09ZxhuvXXruthvvgeOA4kh4miSE9X9XUn6/am1hAMnOBrmr732SHrxxXuyBvqv4gJBl7iXXrovm3ZvnHi4UFSHLDi9Ari4VIcTFRc8hihwMsrvqu/cd2Ilg8tdfoYjHA4y2mSSL7roz9OVV35r3yN56NZFDYQig0q3Ou7eb9myPrLaxQmcz/fsOTxO/GTZGX5wwQV/EtlXLq6cXMkuF1gOGeciocLv+fL2RsOdboXvFRfomTOfi+I9zz//w/Tkk/8rO/4PxUmeZR+Jmo5z3m3y7UgicGEFJ/udO7dm/6q+LgM9IbhjQc0JSZJ0fKK21fz5r6aJE38ad+YXLHgt7pgTg1A4kEKL/F419uBmBEMwiSvoqUnMUl0tJ0YvcGOCOljESSBuIB4jjqKL/pgxN6YrrvibeCICN3SI9xiuScOzbdvukQD50Ie+FvEcT/uiKz/rrXpDhHiLWGbbts0R11RF450bSdVhHcRF3NQi/mEoB3f6i+XRoGb/eJ95D+X9bDO/E5fldRiqv5nDsSP+KnqVFnEyQyk4vkUce7iIy/Ptqr6XKt8xN86IY9euXRJ/K3l8uC2ODckHhvDyfR0O1sXQXwpVfvjDfxsvhtXQ+5Zt4btiWzgWrKOou1ZTLCrp6KvVhAPjpmbMeDaSDiQX6DGwevXCqPdAdpULFCe9qigAQ88Assv5CZ3Ku+9+djAnluIkWf0d9fzkczgnHE58jPdifBhDJThRMT6NC8bhnojJrlOLgZMdDfG1axfF/pPdZX/ohsbwg9qU9zqYFEV86NVA8UiyvVycakYXvaaR5KjuOB7sOOe/77/gcFeCY9awYdNqL7KshwtMTRcpSZJ07COuIL55/fUnItagJwI9S4lBpkx5KHqBEgcRE7zT/pjsvcYCxCLEJMSXNJTpas/4feJMhntyB7yotcWNH26UEMtxBz/vWXnweJDlE5NyI4VGbJs2XRIFKd8dG+3NlkdclC+vutipaAAfSl6L7P1tM8MpisKS1cXL1JMg/qoarx0JGvLUsyB5QF0Fkj/Ejgcqvifk3/H+9eZfOf/h/YPvG5/l+FOvYcCAc+PmHceGFzfriDklHR/efZb8PeMCwkWLzDhZUsaBkdU+EPPRpYuLA4kJTnw0ZrlItGyZD6XIs8CHHpvGRYXeDXTXmzXrhfTEE99JTz75n9kF8+lEwZlDYb2sj4QCSZRnnrk9PfzwrfFiWXPmTIzto9tXTRnzmnAho0seF4z3J79IcyHgAsdxIinAXYG8MGXz0oXhnWo6znyOk3+LFq3jIgcuwGTYuWDSs+TACxHrY3/YBodVSJL0h4NrP71a6SFKHMJd8LzX47tjjwPRyF27luGca2JoJ70oijiL1zPP3JbFX1MTT2+gfheNYx5f+dhj/yM9//ydiWKKBxuiC2IYbhRRT4GbRxSBpNjigbFMMR+xEfEPT4GgRy77QfxDPEiMRc8HtvtgeLrX+9nmAjEVx7LqEBaw7fkxrh8xINuex6wd99UXO5xeGCAO5MYhPVMowk5RSBICB2I+jg037yjoSQ/gPBnSPOJzfs97txx839gutpNkA3EqT8N45JF/yeLq/8hi9eezZVTfQ1rSseeoJRzIdnLiPdTJF1yQ3n77xfgMdR9OOGFknDT3v2iAN4iTMxcGGvJcFBi/R3KC4kGcnDjZc1E4lHzbdsUFhiQFyyb5QA0KTpaHQsKic+cTY7vy5w/vPwmyXHo8gN4TnOAPR54c3pttS/19DXgSD9Vl0g8HFxq6sbGPdEOjRgTLpRoy1ZWbNXv3RaNQ3XHmgpHXpWgX3wm4eHC8eeQStSwOvBCxD3Sx484E20LwIUmSjm9FfHewu/q8zw0l6hPQ+OSJW8RFNIiJI/KbEtUnH4il8uGh2+NmB4/hrBoXFp8lrti1i2GfFKneFT1YGe7K07W4UXI4qKXAdrJto0d/ImKld66LWKxe1Algn3jSBo/uZJ/oLcsjJ4nVqPN1ODdXyrHNxGlo1uydQx2Iw4jHiMuIz4jTSJDwRIxLL/1qDNuo7kYYx3P/90Gx9/zf1JWg7gMx4+jRn4zvouqxIQ5m36mnRixMwUv2hX3i3xRWJylCXFxsc02KOJi/KY4N8/O3wvfC307btrXba1hS+ZDWPCqPxaS7/+LFb8aYv7yxWfNFiRoJGzeuiF4OZFEpPMRjh0aN+mi8Bg06P8Z0cdHixMcJiFoJp5xyWZxEuRBRpIZufQwpYF5OqjU9FpNH8bA9DIk46aRz45GTJ510TrZcqvnmCQueWMGJnAsAxR9ZLidMLg48EYNt5KLBeEZOsvv3r1528m0Q20Q2n+lkf3mEEevmgkQmmGw4jwyiUU9FXTL4vE/th/zxk2fFergAUCSHhArz0Y2RLPKBj8U8ENtJNzTWw7ZQXZkufDzmki6JXCQYa8cx5/pS9bGYvLj4tmvXMy6mHGMe4cm2ggrIzEONB7LlXAjYRwoTkcUukMGnF8jy5TOiwjDbpPeG4+9jMSVJte1wH4tJo5uGKPEdBR3z8fM1Y1kUQuzT59QsnvhgGjHiiohH8hiJmzhd98VrzJvXR9gTcSQ9HIgjhg69KPvclRET8vlOnfplDdINEYtQrJF4iWGyPA2he/fBWXyzKFvz3uz9WXGXnhsnB8ZhBZaTP9lhS1xziQmL+JM4k+3mhhYJEOYlNho58op476STPhDJg+nTn8ri4sfjBgs3Z2p6LCYxG0Ug3+8206uCobskR4jlOFYcM4Zr8Bnee+ut38Q2c3z79z8zYkvitLVrF2b78c7ewGee+blsfz8cSQKWzfElwcKLfWfbiJkpBM9TzDg2xOk8mYMbW0XxdApH8h3z/RK7E79S1PHVV3+ZLWdlbEtRVP3Ax2Ly3XMTj6didOkyIOJcHufJcmgnMC9JiIULp0U7gBiam2scG/4ejzckl3wspuoqUpc1t/wPw/jx49NVV41Nd999S2lKeZAhpfHKiYiTHZnTAhluTmSc+DjhkO3khM+wAFCZlhPoypXz4mREwoGTLkkGToI0hsn6cgEg+cCJiWQCvxdPkmAZfJYTJ70MeFQTWWAa2SyP9XPS50JL9phikWC+qhfbqvvBCZF1Mz6QngU0xjlpc2Ggwc9+cMFlGEe+bzsiUZIX32mcKKDE/Pybk3YxHydYns+MfLuWxL8PRLKCHht0Eyyy4Gw/Fy32je0oHh/EhYj9J9HAMeL4F9tCIobfGV7BiZ+LIcUpqczMcaboEftGwocCUlxUOW4UeeKzjO3kPb13Y8felH3vlWncuHGlKZIklV9lZWWaOHFievrpW6NOQjnRAO7cue++O/jEXOvWLY64hh6URbzGjQzisAKxG3FGXjAwHwrAjRziGOIhbvhUjVV4j1hq8+bV2fxNIm4jzmH5B8ZhVRGvMYyURAD/LnoNEDPROKd+RRFL5tuz/257EZsVTyEjPuR9EgA0hsFyiQ9p8LM973ebKysHpREjxkVjferUvE4ayQ5uLpEIIY5++OF/LsW7rWKbieG4yUScd+DjLdkeYlv2ne0hHly0aFrsG/Ef+02cWHVIBvPxXbGPfG/M17EjT2/rse+7ojYFT5hgvdx0Yp9IpBBXc0xJJOT1IdrFd8p8JJiIIZkGhoWQeAJtAIaeEBcXSR32p4hljycci5tvvitdffX1acKECaWpUt1wzCYcdGzjxEhvkLPO+mxk7ClUSZaei8b5538xLnpz506MgqFclMl+c+Hj0UY8F5ksu947Ew6SpKOhNhMOKi8SAPQkIC4j5nr++R9EcoQeEzzVg56vv/71/4nEgY5NJhxUlx1zRSN17CFzTM0HMt7UcGDIRO/eI1PfvqMjo02GngscyMrPnv1iZPbJjJOxJ4tPdp2MPEkJkw2SJEnlQQzGEBReRQ9Ueg4QhxGPEZdV7X0rSUeTPRx0SHSro25DXjyp9b6uhTt3bo0eDC+/fH+ML1Tts4eDJOlosIeDdPTYw0F1mT0cdEgU9pk06efpzjtvTv/1X59J3/3u1fG67bbr03PP3ZkoriRJkiRJUlUmHHRIFKWkOBG9GBgHWLwo6JQ/ZsluepIkSZKkdzLhIEmSJEmSys6Egw4LdRt4/BGPHeJxSjxWicdd5o8k7RFPp5AkSZIkqXBcJRxo9DZo0DCe+VsULjwWsX3FdtaG4jjw4gkQRwNVj7t1G5ouvvi/pfPO+6PUs+ewSEBcdNGX0rnnXp+6dx/ye/lOWGd+vBuVjndN21AvjtX+7+XY/fuRJEmSpLrguEk4NG7cPBq1V175rXTmmZ9JnTv3K71z7Bkx4op02WV/FdtZbnnDf0i6/PK/ytbx9TRgwLmld2pXw4ZNUv/+Z6RGjZrEY5fmzXs17d69I82d+3Jq06ZL6tPntOj9cLTxd3DOOdemz372P9LIkVemVq06lt55pxYt2qSBA8emj370H7LvZ1yN80mSJEmSyuO4STjUr18/a+w2i+cKV1R0yBrATUvvHHuaN28bj5Js2bJDaUr5cEef5EubNt2yV2Vq2rRV6Z3a06RJy9Sly0mpsnJQ2rBheVq5cm7avn1z2r17V1q2bEbauXN7ti1dU/v2PUufOHr4OyB50L59r9SiRdtIyFSHXg3NmlXE3w/fT03zSZIkSZLKwxoOx5k9e/ak9euXpenTn8peT8eTImpbkybNU8eOvaLBvnr1/Gz9S2P6nj27svXPi+1p0qRF1HI42jZtWp3mzn0lTZ78y7Ro0Rtp+/ZNpXckSZIkSb9PRy3hQFHBtm27RaP0ULUNeJ/6AF269E/duw9NPXoMS127DkitWnWKcfhVFYULGW7BfMzP5/g8y+FOdsuW7VNl5cDs/ZNjnmJ5rVt3iYYyd+Y7deoTrx498vUxL8ulOGKBHgWdOvWN7Sg0bNg47u7Ttb9Vq8417hvLYXn5Npwc28sQBKaxXHouHFiUscC/mcZ7jRs3i0dRzp79YtbQnhiN/QOPVbH9rINtYjgE+9mly4ml9e8/BsU2sx8cD/aP74neDCyP7WMe9pHHX65evTBr5K+J7SL5wbasXbs4lsF+0PuC75rlsL6qx6rAPB069MqOWf/YrgLL4O+Dz7E+lsO6u3UbvG+78+PWO5u3YXyGhMOCBa+l6dN/k1asmJN27Nha7XfeqVO/1KJFu/iMJEmSJKn2UTlvb/7PIzN+/Ph01VVj091331KaUr2+fU+LMfQ0fh9//N/T1q0bSu+8Gw1NGpYXXPAnkQygMbxly7poUFZUtM8a2y+ladOeSIsXvx4NyyuvHJ81SgdF45Xu/WvWLEy//vX/TgsXTosG+kknnRvj/OlyXyQsaCRPm/ZYmjNnYho9+uOxHA4FjWwas3v37o0G/aRJP09vvfWb+J2CiTTs+cyzz94ey6GBPHLkh9MJJwxPs2a9kF588Z502mlXpT59Tk3Lls1Kjz32b5FMGDBgTNQY6N371PidhvGSJdNjnStWzE2/+tX/Sj17Dk9nnfXZ7L0t6bXXHs7W+0ysY8CAD6Rhwz4UDXWWz7E4++zPZcelabYtL6Xly99O55//xWjEN2rUNPaRdWzfviW98MIP0+uvPxnH7ZJLvpLN0zP2j3nWrVuSreeRWGbz5m2itgHFINmeE088OzueLdO8ea9ky5+V7fdJ0WB/4on/mebPnxzbVRg+/PI0aNAFadeu7en553+QmjVrHftBouTNN3+dHas7SnPmSGaMGfOFGHLyxBPfyZb3ahzf5s1bpw9+8Euxrrff/m30XCBhcOqpH4u/iXyfNmff+5vpF78YH8kGjv/gwRfGNkyZ8lCaOvXRtHv3zn3fecuW7WJf165dkjZvXh3H5803n8q++8fjb+B4M3bsTdl+V6Zx48aVpkiSVH6VlZVp4sSJ6emnb00zZjxbmiqpNlRUdEw333xXuvrq69OECRNKU6W64ZgcUkERwpNPvjgah7/97Y/SD3/4x+mRR/4l7dmzOxqpJC3AHX8aYNxFf/HFe2O+hx/+52i8jh79yUhWcBefRv6aNYvi/e9+9+p4/fjHX0qTJv0i7dy5NRrgLGPbts3pZz/7m/S9712TXnnlZ5GgGDr04ijSeKRj/vkcn2c5/PuZZ25P3//+tenxx78Td/Rbt+5amvPIkFRYtGhatt3fSLfddl3s2y9/+Xf7hjqQ1GAIxIYNK9Orr/4i3XHHDTHPQw99O2oxkMzo1WtENPZpmLdq1SWSDhzPH//4lvToo/+a5s2blB3TPZHo2LVrZ2nN+23btikKSFJjg6TIkiVvxFAPXiR/DsSwB5JHHN/+/c+M3iF5r4fe8Z3xGZIJ9EoYNOj86M1x331fi++P7eK74nuvqUgl33m/fqdn27Ux/h7Y55dfvi/2j7+fmnqhSJIkSZLKp9YSDiQL6FZ/3nk3pyuu+EY6++xrUp8+o9MJJ4yIpyuMG/fXacSIK6P7flXcyW7f/oRofNJg5WkIPBWBhjNd5+kZQOOXegJ0reduOHUFuEvOfCtWvJ3Wrl2Uff6E6JrPXXka+hSaJHu4efOabJ7Z2WcWZA3otTEsoF69lE1fl5YufSsa19zRL4YrcIecApBH2kjlMYxsBz0M1q1bGj0Gli2bmd5++4Vo8HPH/v3gWHBMSKgU9RwYjkACYOrUR9KqVfPijj8N+Jkzn491s/8cT44bwzH4DkgW0OGF3hVLl86IHgb0JGCbd+7cEd/L3r27s3n2xDqq2rJlfSQd2BYa9WwPvQ1efvn+tHDh1NJc+23cuCq2peihwFAOtqNz577Zz1bR84CClO3adYvl0dNh8eI34vvle2a7+d75/tmuqvi+mE6PDeafM+eV2Ff+TY8TklYkpCRJkiRJtavWEg406igqyB14eg7QCKXhy4tGNq+dO7dFA7AqGp4kBvjJnW7uzDMf85NMYCgGn6G7P3e6GQpB47Jv39NjaAPd67mLzfu8R4KBRv6GDSvSkCEXptGjPxHDExiCURV3w5mH5dNwpgs+665Xr0EkLWj4Hgl6T/BkBD5PQ3rVqvmxfBrd7B+9BsqF7SShQ+0ChlkUjXowtIThIKNGfTSdfvqn0qBB58UQjPr1G0XvgiKhkicvFkayhSESub0HbaQz1IFkRf4zRyOfZMP69ctLU/YjqZH3gJgbwy6o/VDUj+DY8B7rbtGiffZ9rM+W9Vb2c2P8HfCdsH1V/06q4gkUTOd4k2zZsmXNvoQLSSbWzf5IkiRJkmpXrSUcaDDSuKaGADUb6NLO2H+6/z/55H9k0/5n1FCgYVsVDV9qNtCApUghDVDwk9/37NkZjV/ma9CgcfSkaNeuZ3TNHzLkotSr18ho+PK4Rhq7/KSGAWP7We6JJ54TNQEY4nCwApZFcoQ2NJ+r2piuKt+OvCZCdfgcjX22mcYuDfoCDWjWcSisg1dN28B0jgPFERkOwddK7QR6PfA9kJBh2ASJBupIMFylf/+zY8hCvu3VL7eQJ442Z9tQ/X7S6OdJFu8lKZM/UnNmLJMeLSRDSIBQkJK/G3pMNGzYKL7zbdtIMu2KzxV/B/x98L3w+arYH14cb/a9yJOQpOJzrPcguRNJkiRJUpnUWsLhSNEIz3sx7ErNmrXZl3xgWAQN58aN86dP5POtjx4MPB6S2gvUMLjttmvT7bdfH+P9p0yZEL0WuLs9efKD6a67/jzdf/9fRrd8ijqee+51UWgSNLqLF/JGdMtouNILIU980FJ993wMA2jUKK8rcSAaumwD8/PEhdatO8d0fqdHAuvYr2gJ718+Pxk2wHwHNq4LHA8a68OGXRK9BRYsmBIFnooeCgxlyQsvtoxED8fmpz/9q6jpQALkYL0XCmwHx7/4PmqWLytPktSciOH7pRcG62fICk+iqKjoFL1Y6G1CwoG/A2pLsG/0wmC9rJ+/Cz7P+9TgqKroPZNvb9vYDpCQYVkspzi2kiRJkqTac8wlHKilQFd4us7ziMquXXk6QptocHMXnC74NCJJAlQ334G4e05jtkCvBxIAO3ZsK03JUcegZ89TorcEy+dpFe3b94j1UPOAO+M0hGnwUh+i6nxsFw3a6vC55cvzz1NbgO3kc3ye5dAIBo3+ogHdsmXbbHu675uP7Tqw1kVV1F8YOvSDkRCYMeOZNHnyL0vv7Efig+VT/4BhLjTiTzjhlOy4HroBzpM/ePwl+8h2HHic+W44Lmw762BfeFLHBz5wXfSsqA49O3jKyLJlb8U2UOdix47NUUNj8+a1adOmVWndumXZ9906eq1QYJL1cvz4vvne+f75e6mK77eoW9G796jEo05JMlDDg+N9OPsrSZIkSXr/uP07Pv/nkRkzZkwaMqR3DI84GLqzU4CQIQ78LIZKHKjoSVC/fv1IFPAkgt69R0bjkQQAwxNoUC5dOjMazzRM8y75J8WjN3kcIq/KysGRWKB+ArUbGG7BYzl5KgPzbtiwPL366i+jkUzSgEQGDXcayAzPoAcEDW0ewUkBSf5NV33qRvD57t0Hx3w0lGlwk4ygtgDFCXmkJw1zhgfwqEyeysB2F0mNXr1GpRNPPCtqTND4pZFMkUZ6JNDAJtlAjQkSAuwLPRw4HiyH5dO7g6ET9CAoek8MHz4ujg8Nax47yWM4+Wzz5q2y40nPgCaxTIZR5MdnYOwzn12+fGY04Nk+Ck4W+1EM9+CzNPj5PvJEwNLoWVJgXWwzQyFmzfptPHlj2LBLI6lBwobik9UhCUOvD75jjis1Fhj6QsKB76XovcCjMXlxzBg2QoeMl176cdR2YNgFtR9IRDBEg78vvgt6cxTJIP4uOF48/QTsL70rmO94w/8HO3ZUpHvuuac0RZKk8quoqEg33nhjmjfvhYi3JNUeelyPGvWR9MADD6aZM2eWpkp1w1FLOFC/gMYxjeuakg0FGqI0VElSFMUluXPOoxR5kgRPLKBRzF13lkf3el58js/QcGf+lStnx519Gp/cgc/f2xEFIUkizJ37cvZeqyi0SG+CdesWR0Oaz/MoSZ6QMX/+pGhgkwTJt2VrDAPYtWtbzEcjm21asuTN6AnBEzJIBPAEDIYHUBiRfSdZQK+KfDt3xPaRRKAOBY34IuHA8umBkC+f+gUbS09YmBHLLxrKPDGCGg2sPx9CQFHKRVGMks+xDpbHtnOsSLAwjSQC769btyS2m8Y3P/MikdvimNJwZ1kcu9yebH17o6cB392aNYtL+9kgEgY8upIhJYsWTU0LFkyNk2aDBg1imXxnzFsTlsfxZHuo8UFyIt/+ndl+boj9YT38znwskyExDKNh2AXHkGXwpAz+LvgO86dmUGRyexx7/n5YTv50jjdjf1kf7x9vTDhIko4GEw7S0WPCQXUZfcsPPYD/IMaPH5+uumpsuvvuW0pTjh/0WODxm2PGfCE1bNg0Ci1S66G20auAXhHUkOAuPIU0n3jiO6V3j030vLj00q9Er4y33vpNmjr1sUgMDB58fho27LJo6FMzY/78KaVPqDaMHXtT2rSpMo0bN640RZKk8qusrEwTJ05MTz99a9SFklR7eMLazTffla6++vo0YcKE0lSpbjjmajjURSQYSG7Qy4IXWUyGBjDEgboI3JE/1tE7gh4hbD/DTnr2PDl6NRS9G3gEpskGSZIkSVLBhEMtKwo/Xnjhn6Vrr/1euvnmu9MNN9yZLr/866llyw7pjTd+FbUkjnUMP5g+/TfpgQe+mR577N9juAnDFh555NZ4QghDHCRJkjXJ+MYAAAQHSURBVCRJKvxBJxz27NkTtQ1eeukn6Xe/uytqA5Rb/ljNtTEM4cUX70nPP/+D9Nxzd6annvq/6Ve/+s+sof5UvH+so04CdSfWrl0cdRSoG0GNB2pEUKOB9yRJkiRJKvxBJxyKRjR36+fMmRhFGMut6jqmTXs8TZny0L4XvQJ4MoMkSZIkSXWNQyokSZIkSVLZmXCQJEmSJEllZ8JBkiRJkiSVnQkHSZIkSZJUdiYcJEmSJElS2ZlwkCRJkiRJZWfCQZIkSZIklZ0JB0mSJEmSVHYmHCRJkiRJUtmZcJAkSZIkSWVnwkGSJEmSJJWdCQdJkiRJklR2JhwkSZIkSVLZmXCQJEmSJEllZ8JBkiRJkiSVnQkHSZIkSZJUdiYcJEmSJElS2ZlwkCRJkiRJZWfCQZIkSZIklZ0JB0mSJEmSVHYmHCRJkiRJUtmZcJAkSZIkSWVnwkGSJEmSJJWdCQdJkiRJklR2JhwkSZIkSVLZmXCQJEmSJEllZ8JBkiRJkiSVnQkHSZIkSZJUdiYcJEmSJElS2ZlwkCRJkiRJZWfCQZIkSZIklZ0JB0mSJEmSVHYmHCRJkiRJUtmZcJAkSZIkSWVnwkGSJEmSJJWdCQdJkiRJklR2JhwkSZIkSVLZmXCQJEmSJEllZ8JBkiRJkiSVnQkHSZIkSZJUdiYcJEmSJElS2ZlwkCRJkiRJZWfCQZIkSZIklZ0JB0mSJEmSVHYmHCRJkiRJUtmZcJAkSZIkSWVnwkGSJEmSJJWdCQdJkiRJklR2JhwkSZIkSVLZmXCQJEmSJEllZ8JBkiRJkiSVnQkHSZIkSZJUdiYcJEmSJElS2ZlwkCRJkiRJZWfCQZIkSZIklZ0JB0mSJEmSVHYmHCRJkiRJUtmZcJAkSZIkSWVnwkGSJEmSJJWdCQdJkiRJklR2JhwkSZIkSVLZmXCQJEmSJEllZ8JBkiRJkiSVnQkHSZIkSZJUdiYcJEmSJElS2ZlwkCRJkiRJZVcve+3N/3lkxo8fnz796QvST37ytdIUSbXl3HOvS+vXd0zjxo0rTZEkqfwqKyvTxIkT03PPfSfNmvVCaaqk2lBR0SFdd91t6eqrr0sTJkwoTZXqhrIkHL7+9a+mDRtWlKZIqi3Nm7dOv/71cyYcJEm1qkg4tGzZMO3YsbU0VVJtqF+/QWrTpmu68soPm3BQnfO+Ew5Dhw6Nl6SjY/HixemZZ54p/SZJUvk1a9YsXXzxxfFT0tFBfEecJ9Ul7zvhIEmSJEmSdCCLRkqSJEmSpLIz4SBJkiRJksrOhIMkSZIkSSo7Ew6SJEmSJKnsTDhIkiRJkqSyM+EgSZIkSZLKzoSDJEmSJEkqOxMOkiRJkiSp7Ew4SJIkSZKkMkvp/wPi2JR9d6jO3wAAAABJRU5ErkJggg==;" vertex="1" parent="1">
          <mxGeometry x="580" y="40" width="662" height="344.21" as="geometry" />
        </mxCell>
      </root>
    </mxGraphModel>
  </diagram>
</mxfile>
